<svg width="40" height="39" viewBox="0 0 40 39" fill="none" xmlns="http://www.w3.org/2000/svg">
<g clip-path="url(#clip0_11047_192957)">
<path d="M26 19.75H19.75ZM19.75 19.75H13.5ZM19.75 19.75V13.5ZM19.75 19.75V26ZM30.1667 38.5H9.33333C4.73096 38.5 1 34.769 1 30.1667V9.33333C1 4.73096 4.73096 1 9.33333 1H30.1667C34.769 1 38.5 4.73096 38.5 9.33333V30.1667C38.5 34.769 34.769 38.5 30.1667 38.5Z" fill="#51D1E0"/>
<path d="M26 19.75H19.75M19.75 19.75H13.5M19.75 19.75V13.5M19.75 19.75V26M30.1667 38.5H9.33333C4.73096 38.5 1 34.769 1 30.1667V9.33333C1 4.73096 4.73096 1 9.33333 1H30.1667C34.769 1 38.5 4.73096 38.5 9.33333V30.1667C38.5 34.769 34.769 38.5 30.1667 38.5Z" stroke="white" stroke-width="4.16667" stroke-linecap="round"/>
</g>
<defs>
<clipPath id="clip0_11047_192957">
<rect width="39.5" height="39" fill="white"/>
</clipPath>
</defs>
</svg>
