<svg width="16" height="16" viewBox="0 0 16 16" fill="none" xmlns="http://www.w3.org/2000/svg">
<g clip-path="url(#clip0_275_12902)">
<path d="M13.0001 11.6001C12.841 11.5999 12.6885 11.5366 12.5761 11.4241L7.57607 6.42407C7.47009 6.31033 7.41239 6.1599 7.41513 6.00445C7.41788 5.84901 7.48085 5.70071 7.59078 5.59077C7.70071 5.48084 7.84901 5.41788 8.00446 5.41513C8.1599 5.41239 8.31033 5.47009 8.42407 5.57607L13.4241 10.5761C13.5079 10.66 13.5649 10.7668 13.588 10.8832C13.6112 10.9995 13.5993 11.12 13.5539 11.2296C13.5085 11.3392 13.4317 11.4329 13.3331 11.4988C13.2346 11.5647 13.1187 11.6 13.0001 11.6001Z" fill="white"/>
<path d="M3.00011 11.6001C2.88152 11.6 2.76561 11.5647 2.66704 11.4988C2.56847 11.4329 2.49165 11.3392 2.44628 11.2296C2.40091 11.12 2.38903 10.9995 2.41214 10.8832C2.43524 10.7668 2.4923 10.66 2.57611 10.5761L7.57611 5.57607C7.68985 5.47009 7.84028 5.41239 7.99573 5.41513C8.15117 5.41788 8.29947 5.48084 8.4094 5.59077C8.51933 5.70071 8.5823 5.84901 8.58505 6.00445C8.58779 6.1599 8.53009 6.31033 8.42411 6.42407L3.42411 11.4241C3.31169 11.5366 3.15918 11.5999 3.00011 11.6001Z" fill="white"/>
</g>
<defs>
<clipPath id="clip0_275_12902">
<rect width="16" height="16" fill="white"/>
</clipPath>
</defs>
</svg>
