<svg width="25" height="25" viewBox="0 0 25 25" fill="none" xmlns="http://www.w3.org/2000/svg">
<g clip-path="url(#clip0_7680_151153)">
<path d="M10.7679 4.5C11.5377 3.16667 13.4623 3.16667 14.2321 4.5L22.0263 18C22.7961 19.3333 21.8338 21 20.2942 21H4.70577C3.16617 21 2.20392 19.3333 2.97372 18L10.7679 4.5Z" fill="#6DAD36"/>
<path d="M13.2355 9.30273H11.7637L11.9272 15.1899H13.0719L13.2355 9.30273Z" fill="white"/>
<path d="M13.2355 17.064C13.2355 17.4704 12.906 17.7999 12.4996 17.7999C12.0931 17.7999 11.7637 17.4704 11.7637 17.064C11.7637 16.6576 12.0931 16.3281 12.4996 16.3281C12.906 16.3281 13.2355 16.6576 13.2355 17.064Z" fill="white"/>
</g>
<defs>
<clipPath id="clip0_7680_151153">
<rect width="24" height="24" fill="white" transform="translate(0.5 0.5)"/>
</clipPath>
</defs>
</svg>
