<svg xmlns="http://www.w3.org/2000/svg" xmlns:xlink="http://www.w3.org/1999/xlink" width="120" height="120"><defs><linearGradient id="g" x1="37.67" x2="69.23" y1="65.64" y2="65.64" gradientTransform="scale(.70588)" gradientUnits="userSpaceOnUse"><stop offset="0" style="stop-color:#8ae9f2;stop-opacity:1"/><stop offset="1" style="stop-color:#51d1e0;stop-opacity:1"/></linearGradient><linearGradient id="k" x1="68.769" x2="104.865" y1="68.331" y2="68.331" gradientTransform="scale(.70588)" gradientUnits="userSpaceOnUse"><stop offset="0" style="stop-color:#00c297;stop-opacity:1"/><stop offset="1" style="stop-color:#27b5c4;stop-opacity:1"/></linearGradient><linearGradient id="t" x1="54.777" x2="62.85" y1="33.543" y2="35.898" gradientTransform="scale(.70588)" gradientUnits="userSpaceOnUse"><stop offset="0" style="stop-color:#8ae9f2;stop-opacity:1"/><stop offset="1" style="stop-color:#51d1e0;stop-opacity:1"/></linearGradient><linearGradient id="u" x1="46.946" x2="55.029" y1="123.073" y2="125.43" gradientTransform="scale(.70588)" gradientUnits="userSpaceOnUse"><stop offset="0" style="stop-color:#8ae9f2;stop-opacity:1"/><stop offset="1" style="stop-color:#51d1e0;stop-opacity:1"/></linearGradient><linearGradient id="v" x1="32.38" x2="29.62" y1="84.42" y2="81.68" gradientTransform="scale(.70588)" gradientUnits="userSpaceOnUse"><stop offset="0" style="stop-color:#00c297;stop-opacity:1"/><stop offset="1" style="stop-color:#28ccde;stop-opacity:1"/></linearGradient><linearGradient id="w" x1="139.4" x2="136.64" y1="95.101" y2="92.361" gradientTransform="scale(.70588)" gradientUnits="userSpaceOnUse"><stop offset="0" style="stop-color:#00a580;stop-opacity:1"/><stop offset="1" style="stop-color:#28ccde;stop-opacity:1"/></linearGradient><linearGradient id="x" x1="117.71" x2="114.94" y1="132.261" y2="129.521" gradientTransform="scale(.70588)" gradientUnits="userSpaceOnUse"><stop offset="0" style="stop-color:#00a580;stop-opacity:1"/><stop offset="1" style="stop-color:#28ccde;stop-opacity:1"/></linearGradient><linearGradient id="y" x1="132.82" x2="158.61" y1="69.72" y2="44.08" gradientTransform="scale(.70588)" gradientUnits="userSpaceOnUse"><stop offset="0" style="stop-color:#00a580;stop-opacity:1"/><stop offset="1" style="stop-color:#28ccde;stop-opacity:1"/></linearGradient><linearGradient id="z" x1="120.18" x2="138.31" y1="35.44" y2="35.44" gradientTransform="scale(.70588)" gradientUnits="userSpaceOnUse"><stop offset="0" style="stop-color:#8ae9f2;stop-opacity:1"/><stop offset="1" style="stop-color:#51d1e0;stop-opacity:1"/></linearGradient><linearGradient id="p" x1="93.318" x2="90.267" y1="123.444" y2="109.517" gradientTransform="scale(.70588)" gradientUnits="userSpaceOnUse"><stop offset="0" style="stop-color:#00c297;stop-opacity:1"/><stop offset="1" style="stop-color:#27b5c4;stop-opacity:1"/></linearGradient><linearGradient id="s" x1="81.21" x2="83.17" y1="139.31" y2="141.25" gradientTransform="scale(.70588)" gradientUnits="userSpaceOnUse"><stop offset="0" style="stop-color:#8ae9f2;stop-opacity:1"/><stop offset="1" style="stop-color:#51d1e0;stop-opacity:1"/></linearGradient><linearGradient id="J" x1="57.516" x2="57.516" y1="61.365" y2="66.885" gradientTransform="scale(.70588)" gradientUnits="userSpaceOnUse"><stop offset="0" style="stop-color:#8ae9f2;stop-opacity:1"/><stop offset="1" style="stop-color:#51d1e0;stop-opacity:1"/></linearGradient><linearGradient id="e" x1="54.94" x2="53.78" y1="76.359" y2="58.679" gradientTransform="scale(.70588)" gradientUnits="userSpaceOnUse"><stop offset="0" style="stop-color:#fff;stop-opacity:1"/><stop offset="1" style="stop-color:#fff;stop-opacity:.8"/></linearGradient><linearGradient id="c" x1="47.42" x2="120.24" y1="124.8" y2="47.67" gradientTransform="scale(.70588)" gradientUnits="userSpaceOnUse"><stop offset="0" style="stop-color:#d9f6ff;stop-opacity:1"/><stop offset="1" style="stop-color:#bff5ff;stop-opacity:1"/></linearGradient><linearGradient id="I" x1="89.796" x2="88.56" y1="61.077" y2="41.357" gradientTransform="scale(.70588)" gradientUnits="userSpaceOnUse"><stop offset="0" style="stop-color:#fff;stop-opacity:1"/><stop offset="1" style="stop-color:#fff;stop-opacity:.8"/></linearGradient><linearGradient id="C" x1="84.989" x2="84.989" y1="54.367" y2="103.37" gradientTransform="scale(.70588)" gradientUnits="userSpaceOnUse"><stop offset="0" style="stop-color:#8ae9f2;stop-opacity:1"/><stop offset="1" style="stop-color:#51d1e0;stop-opacity:1"/></linearGradient><linearGradient id="D" x1="58.506" x2="58.506" y1="78.675" y2="81.216" gradientTransform="scale(.70588)" gradientUnits="userSpaceOnUse"><stop offset="0" style="stop-color:#fff;stop-opacity:1"/><stop offset="1" style="stop-color:#fff;stop-opacity:.8"/></linearGradient><linearGradient id="H" x1="69.989" x2="105.988" y1="49" y2="49" gradientTransform="scale(.70588)" gradientUnits="userSpaceOnUse"><stop offset="0" style="stop-color:#8ae9f2;stop-opacity:1"/><stop offset="1" style="stop-color:#51d1e0;stop-opacity:1"/></linearGradient><linearGradient id="G" x1="88" x2="88" y1="27.45" y2="46.825" gradientTransform="scale(.70588)" gradientUnits="userSpaceOnUse"><stop offset="0" style="stop-color:#fff;stop-opacity:1"/><stop offset="1" style="stop-color:#fff;stop-opacity:.8"/></linearGradient><clipPath id="d"><path d="M0 0h121v121H0z"/></clipPath><clipPath id="b"><path d="M0 0h121v121H0z"/></clipPath><clipPath id="f"><path d="M0 0h121v121H0z"/></clipPath><clipPath id="j"><path d="M0 0h121v121H0z"/></clipPath><clipPath id="l"><path d="M0 0h121v121H0z"/></clipPath><clipPath id="o"><path d="M0 0h121v121H0z"/></clipPath><mask id="n"><g filter="url(#a)"><path d="M0 0h121v121H0z" style="fill:#000;fill-opacity:.741176;stroke:none"/></g></mask><mask id="F"><g filter="url(#a)"><path d="M0 0h120v120H0z" style="fill:#000;fill-opacity:.741176;stroke:none"/></g></mask><mask id="r"><g filter="url(#a)"><path d="M0 0h120v120H0z" style="fill:#000;fill-opacity:.419608;stroke:none"/></g></mask><mask id="i"><g filter="url(#a)"><path d="M0 0h121v121H0z" style="fill:#000;fill-opacity:.870588;stroke:none"/></g></mask><mask id="L"><g filter="url(#a)"><path d="M0 0h120v120H0z" style="fill:#000;fill-opacity:.2;stroke:none"/></g></mask><mask id="B"><g filter="url(#a)"><path d="M0 0h120v120H0z" style="fill:#000;fill-opacity:.278431;stroke:none"/></g></mask><g id="K" clip-path="url(#o)"><path d="M86.824 72c-.48.875-1.027 1.71-1.644 2.5-.176.219-.352.441-.535.656a24.852 24.852 0 0 1-5.766 5.004 1.518 1.518 0 0 0-.594.766l-3.836 10.59c-.101.28-.289.523-.531.695-.246.172-.54.262-.836.258h-4.07a1.445 1.445 0 0 1-1.453-1.375l-.227-4.844a1.476 1.476 0 0 0-.52-1.043 1.448 1.448 0 0 0-1.125-.316 37.544 37.544 0 0 1-5.042.343c-.883 0-1.754 0-2.614-.09a1.373 1.373 0 0 0-.562.075c-.184.062-.348.16-.492.285a1.44 1.44 0 0 0-.34.457c-.086.172-.133.36-.14.55l-.216 4.583a1.442 1.442 0 0 1-1.45 1.375h-4.124c-.297 0-.59-.09-.836-.262a1.438 1.438 0 0 1-.531-.691L48.2 88.32l-2.02-5.62a1.495 1.495 0 0 0-.305-.485c-.129-.14-.29-.25-.465-.328a30.624 30.624 0 0 1-2.95-1.64 25.063 25.063 0 0 1-2.929-2.15c.473.098 8.258 1.79 21.758 1.79C75.04 79.84 86.47 72.223 86.824 72Zm0 0" style="stroke:none;fill-rule:nonzero;fill:url(#p)"/></g><g id="h" clip-path="url(#d)"><path d="M35.578 53.844a1.387 1.387 0 0 1-.535-.086 1.38 1.38 0 0 1-.453-.29 1.492 1.492 0 0 1-.363-1.07v-1.687h-.993c-.277.02-.55-.066-.765-.242a1.02 1.02 0 0 1-.282-.703c0-.266.102-.516.282-.707a1.07 1.07 0 0 1 .758-.246h.96v-1.415h-.953a1.05 1.05 0 0 1-.765-.253.864.864 0 0 1-.211-.325.847.847 0 0 1-.055-.383.897.897 0 0 1 .059-.378.886.886 0 0 1 .207-.325c.215-.175.484-.257.758-.242h.96v-5.46a1.226 1.226 0 0 1 .055-.548c.063-.175.16-.336.293-.468a1.207 1.207 0 0 1 1.012-.348h3.723a6.37 6.37 0 0 1 2.78.55 3.99 3.99 0 0 1 1.716 1.552c.398.714.601 1.523.586 2.343a4.264 4.264 0 0 1-.594 2.262 4.04 4.04 0 0 1-1.707 1.488 6.16 6.16 0 0 1-2.684.528h-2.406v1.414h2.566c.278-.02.547.07.758.246.18.191.281.441.281.707 0 .262-.101.515-.28.703-.212.176-.485.262-.759.242h-2.566v1.688c.023.39-.102.773-.356 1.07a1.338 1.338 0 0 1-1.027.383Zm1.34-8.32h2.02a3.534 3.534 0 0 0 2.058-.516c.254-.203.45-.465.57-.762.125-.297.172-.621.137-.941.027-.328-.02-.66-.144-.965a2.061 2.061 0 0 0-.563-.8 3.252 3.252 0 0 0-2.059-.599h-2.019Zm0 0" style="stroke:none;fill-rule:nonzero;fill:url(#e)"/></g><g id="m" clip-path="url(#j)"><path d="M72.883 50.254c-.121 0-.242-.02-.36-.059a42.413 42.413 0 0 0-11.683-1.703 32.604 32.604 0 0 0-10.746 1.688 1.16 1.16 0 0 1-.871-.024 1.171 1.171 0 0 1-.606-.633 1.172 1.172 0 0 1-.074-.437c.004-.148.035-.297.098-.434.058-.136.148-.261.257-.363.106-.102.235-.184.375-.238a34.447 34.447 0 0 1 11.567-1.84c4.195.012 8.367.621 12.39 1.816a1.154 1.154 0 0 1 .785 1.266c-.042.27-.183.512-.39.691a1.12 1.12 0 0 1-.742.27Zm0 0" style="stroke:none;fill-rule:nonzero;fill:url(#k)"/></g><g id="q" clip-path="url(#b)"><path d="M60 103.996c24.3 0 43.996-19.695 43.996-43.996 0-24.3-19.695-43.996-43.996-43.996-24.3 0-43.996 19.695-43.996 43.996 0 24.3 19.695 43.996 43.996 43.996Zm0 0" style="stroke:none;fill-rule:nonzero;fill:url(#c)"/></g><g id="E" clip-path="url(#l)"><use xlink:href="#m" mask="url(#n)"/></g><g id="A" clip-path="url(#f)"><path d="M48.867 46.328a11.104 11.104 0 0 1-1.875 6.192 11.135 11.135 0 0 1-4.996 4.105 11.14 11.14 0 0 1-6.437.633 11.13 11.13 0 0 1-8.754-8.754c-.43-2.16-.207-4.399.636-6.438a11.148 11.148 0 0 1 10.297-6.871 10.982 10.982 0 0 1 4.274.825 11.026 11.026 0 0 1 6.855 10.308Zm0 0" style="stroke:none;fill-rule:nonzero;fill:url(#g)"/><use xlink:href="#h" mask="url(#i)"/></g><filter id="a" width="100%" height="100%" x="0%" y="0%" filterUnits="objectBoundingBox"><feColorMatrix in="SourceGraphic" values="0 0 0 0 1 0 0 0 0 1 0 0 0 0 1 0 0 0 1 0"/></filter></defs><use xlink:href="#q" mask="url(#r)"/><path d="M58.059 100.152c.597 0 1.078-.484 1.078-1.082 0-.597-.48-1.078-1.078-1.078-.598 0-1.079.48-1.079 1.078 0 .598.48 1.082 1.079 1.082Zm0 0" style="stroke:none;fill-rule:nonzero;fill:url(#s)"/><path d="m45.18 24.871 1.41 1.152a.283.283 0 0 1 .043.383.267.267 0 0 1-.082.067.237.237 0 0 1-.102.03l-1.828.212a.307.307 0 0 0-.101.031.24.24 0 0 0-.075.067l-1.18 1.414a.275.275 0 0 1-.195.078.281.281 0 0 1-.195-.078.317.317 0 0 1-.098-.176l-.203-1.828a.35.35 0 0 0-.07-.172l-1.461-1.156a.265.265 0 0 1-.102-.184.286.286 0 0 1 .059-.2c.02-.027.05-.05.082-.066a.307.307 0 0 1 .102-.03l1.847-.212a.285.285 0 0 0 .184-.098l1.144-1.414a.355.355 0 0 1 .082-.07.307.307 0 0 1 .102-.031c.039-.004.074 0 .11.008a.273.273 0 0 1 .093.05c.027.024.05.047.07.079a.316.316 0 0 1 .032.097l.203 1.863c.02.079.062.141.129.184Zm0 0" style="stroke:none;fill-rule:nonzero;fill:url(#t)"/><path d="m39.883 88.121 1.41 1.152c.027.02.05.051.07.079a.338.338 0 0 1 .032.101c.003.04 0 .074-.008.106a.273.273 0 0 1-.051.093.233.233 0 0 1-.082.07.237.237 0 0 1-.102.032l-1.828.21a.221.221 0 0 0-.097.032.215.215 0 0 0-.079.067l-1.18 1.414a.275.275 0 0 1-.195.078.272.272 0 0 1-.191-.078.32.32 0 0 1-.102-.18l-.203-1.828a.27.27 0 0 0-.07-.168l-1.453-1.164a.193.193 0 0 1-.07-.078.227.227 0 0 1-.036-.098.242.242 0 0 1 .008-.106.213.213 0 0 1 .047-.093.285.285 0 0 1 .184-.098l1.847-.21a.288.288 0 0 0 .184-.102l1.145-1.41a.355.355 0 0 1 .082-.07.302.302 0 0 1 .21-.024.333.333 0 0 1 .098.05c.027.024.05.047.067.079a.286.286 0 0 1 .03.097l.204 1.828c.008.043.02.086.043.125.02.035.05.07.086.094Zm0 0" style="stroke:none;fill-rule:nonzero;fill:url(#u)"/><path d="M21.883 60a1.406 1.406 0 0 1-1.305-.871 1.425 1.425 0 0 1-.082-.816 1.409 1.409 0 0 1 2.559-.508A1.41 1.41 0 0 1 21.883 60Zm0-2.195a.825.825 0 0 0-.457.136.838.838 0 0 0-.301.368.83.83 0 0 0-.047.476c.031.156.11.305.227.418a.814.814 0 0 0 1.258-.125.817.817 0 0 0 .14-.453.898.898 0 0 0-.055-.324.842.842 0 0 0-.445-.461.821.821 0 0 0-.32-.063Zm0 0" style="stroke:none;fill-rule:nonzero;fill:url(#v)"/><path d="M97.41 67.54c-.27 0-.535-.08-.758-.231a1.38 1.38 0 0 1-.594-1.402 1.378 1.378 0 0 1 2.731.222c0 .367-.144.723-.402.984a1.396 1.396 0 0 1-.977.426Zm0-2.196a.813.813 0 0 0-.754.508.814.814 0 0 0 .598 1.113.82.82 0 0 0 .84-.348.816.816 0 0 0-.102-1.031.819.819 0 0 0-.582-.242Zm0 0" style="stroke:none;fill-rule:nonzero;fill:url(#w)"/><path d="M82.117 93.77a1.408 1.408 0 0 1-.754-.247 1.401 1.401 0 0 1-.492-.62 1.383 1.383 0 0 1-.066-.786c.05-.265.183-.508.375-.695.187-.192.43-.32.695-.375a1.387 1.387 0 0 1 1.406.559c.153.222.239.484.246.753a1.372 1.372 0 0 1-1.41 1.41Zm0-2.196a.816.816 0 0 0-.457.137.848.848 0 0 0-.3.371.814.814 0 0 0 .597 1.113.82.82 0 0 0 .84-.347.816.816 0 0 0-.102-1.031.817.817 0 0 0-.578-.243Zm0 0" style="stroke:none;fill-rule:nonzero;fill:url(#x)"/><path d="M94.375 49.594a.515.515 0 0 1-.188-.035.578.578 0 0 1-.347-.297.573.573 0 0 1-.059-.227.578.578 0 0 1 .031-.23c.336-1.012.786-1.98 1.333-2.895a.601.601 0 1 1 1.04.61c-.505.84-.92 1.734-1.236 2.667a.592.592 0 0 1-.222.293.59.59 0 0 1-.352.114Zm3.05-5.293a.572.572 0 0 1-.374-.133.664.664 0 0 1-.149-.18.571.571 0 0 1-.047-.457.578.578 0 0 1 .114-.203 24.673 24.673 0 0 1 2.117-2.308.583.583 0 0 1 .652-.133.61.61 0 0 1 .195.98 25.883 25.883 0 0 0-2.042 2.2.573.573 0 0 1-.48.234Zm11.59-1.305h-.167a.6.6 0 1 1 0-1.2h.16c.926.005 1.851-.097 2.754-.304.078-.027.164-.035.246-.027a.61.61 0 0 1 .422.238c.05.067.086.145.101.223a.6.6 0 0 1 .008.25.588.588 0 0 1-.098.226.604.604 0 0 1-.41.254c-.988.23-2 .344-3.015.34Zm-3.203-.367a.402.402 0 0 1-.136 0 15.442 15.442 0 0 1-3.012-1.016.592.592 0 0 1-.352-.566c0-.078.02-.156.051-.23a.54.54 0 0 1 .137-.188.592.592 0 0 1 .656-.11c.906.41 1.856.723 2.824.938a.598.598 0 0 1 .36.238.596.596 0 0 1-.492.946Zm8.922-1.102a.624.624 0 0 1-.289-.074.595.595 0 0 1-.297-.656.582.582 0 0 1 .262-.379 3.483 3.483 0 0 0 1.617-1.977.563.563 0 0 1 .273-.367.551.551 0 0 1 .22-.082.594.594 0 0 1 .601.285.574.574 0 0 1 .07.453 4.642 4.642 0 0 1-2.117 2.7.649.649 0 0 1-.34.097Zm-14.476-1.41a.646.646 0 0 1-.348-.113 17.946 17.946 0 0 1-2.406-2.078.6.6 0 0 1 .445-1.016c.16.004.313.07.422.184a15.85 15.85 0 0 0 2.23 1.926.597.597 0 0 1 .231.675.557.557 0 0 1-.219.305.58.58 0 0 1-.355.117Zm1.578-.086a.602.602 0 0 1-.367-1.074 31.496 31.496 0 0 1 2.57-1.793c.137-.082.3-.11.457-.074a.599.599 0 0 1 .45.722.603.603 0 0 1-.27.376 28.514 28.514 0 0 0-2.473 1.722.584.584 0 0 1-.367.13Zm5.219-3.218a.642.642 0 0 1-.325-.098.585.585 0 0 1-.246-.707.612.612 0 0 1 .309-.34c.957-.453 1.95-.828 2.965-1.121a.603.603 0 0 1 .742.414.6.6 0 0 1-.418.742c-.957.27-1.89.621-2.789 1.05a.574.574 0 0 1-.238.067Zm8.71-.438a.579.579 0 0 1-.23-.047.55.55 0 0 1-.195-.129 3.46 3.46 0 0 0-2.399-.906.564.564 0 0 1-.226-.05.682.682 0 0 1-.192-.138.633.633 0 0 1-.125-.199.597.597 0 0 1 .164-.645.619.619 0 0 1 .43-.16 4.571 4.571 0 0 1 3.195 1.235.596.596 0 0 1 .13.652.59.59 0 0 1-.551.371ZM96 35.746a.596.596 0 0 1-.492-.262c-.13-.175-.25-.367-.375-.558a.565.565 0 0 1-.086-.215.527.527 0 0 1 .004-.234.531.531 0 0 1 .094-.215.56.56 0 0 1 .168-.164.625.625 0 0 1 .218-.086.573.573 0 0 1 .23.004.573.573 0 0 1 .38.261c.113.176.234.352.351.524a.593.593 0 0 1 .102.449.618.618 0 0 1-.246.39.649.649 0 0 1-.348.106Zm0 0" style="stroke:none;fill-rule:nonzero;fill:url(#y)"/><path d="M97.629 25.016a6.416 6.416 0 0 1-1.945 4.39 6.416 6.416 0 0 1-4.454 1.801 6.406 6.406 0 0 1-5.972-8.707 6.387 6.387 0 0 1 3.472-3.59 6.4 6.4 0 0 1 5 0 6.427 6.427 0 0 1 3.477 3.59c.309.8.453 1.656.422 2.516Zm0 0" style="stroke:none;fill-rule:nonzero;fill:url(#z)"/><use xlink:href="#A" mask="url(#B)"/><path d="M90.043 29.168a.801.801 0 0 1-.305-.043.707.707 0 0 1-.261-.164.815.815 0 0 1-.204-.59v-.933h-.53a.613.613 0 0 1-.415-.133.533.533 0 0 1-.117-.176.534.534 0 0 1-.031-.207.487.487 0 0 1 .148-.387.637.637 0 0 1 .414-.137h.531v-.796h-.53a.594.594 0 0 1-.415-.133.533.533 0 0 1-.117-.176.534.534 0 0 1-.031-.207.496.496 0 0 1 .148-.387.613.613 0 0 1 .414-.133h.531v-3.035a.695.695 0 0 1 .457-.707.704.704 0 0 1 .297-.043h2.063a3.444 3.444 0 0 1 1.531.305c.402.18.742.48.965.86.227.394.34.84.328 1.292.012.438-.102.875-.332 1.25-.227.36-.55.645-.941.817-.465.21-.973.312-1.48.297h-1.345v.796h1.414a.61.61 0 0 1 .415.137c.054.05.093.11.117.176.027.066.039.14.031.21a.48.48 0 0 1-.148.383.607.607 0 0 1-.415.133h-1.414v.934a.825.825 0 0 1-.187.59.778.778 0 0 1-.586.207Zm.738-4.602h1.117c.403.024.801-.074 1.145-.285.137-.11.246-.254.316-.418.07-.164.098-.343.079-.52a1.127 1.127 0 0 0-.083-.53 1.131 1.131 0 0 0-.308-.442 1.793 1.793 0 0 0-1.149-.32h-1.117Zm0 0" style="stroke:none;fill-rule:nonzero;fill:#fff;fill-opacity:1"/><path d="M92.434 53.781a.658.658 0 0 0-.34-.355.65.65 0 0 0-.492-.008 3.823 3.823 0 0 1-.86.203 5.419 5.419 0 0 0-.16-3.3 2.572 2.572 0 0 0-2.348-1.895 2.908 2.908 0 0 0-1.625.367c-.492.281-.89.703-1.144 1.21-.227.509-.582 1.86 1 3.462a5.094 5.094 0 0 0 1.754 1.16 5.494 5.494 0 0 1-1.883.469C81.96 47.59 72.117 42.352 60.684 42.352a35.297 35.297 0 0 0-11.907 2.027c-.187.07-.386.098-.586.086a1.5 1.5 0 0 1-.566-.16 10.943 10.943 0 0 0-4.633-1.38 10.954 10.954 0 0 0-4.773.763 1.35 1.35 0 0 0-.63.503c-.175.254-.269.559-.26.868.007.308.116.609.308.855l.758.934c.355.445.683.855.976 1.242a1.464 1.464 0 0 1-.156 1.938 17.3 17.3 0 0 0-.942.91 19.004 19.004 0 0 0-5.308 9.539 1.45 1.45 0 0 1-.496.824 1.45 1.45 0 0 1-.907.32c-.457 0-3.488-.187-3.984.988-.492 1.176 2.762 8.348 3.559 8.922a24.85 24.85 0 0 0 4.074 1.715c.242.11.45.285.598.512a22.842 22.842 0 0 0 3.996 4.437 24.918 24.918 0 0 0 2.898 2.133c.938.598 1.91 1.145 2.91 1.633a1.418 1.418 0 0 1 .758.805l1.996 5.586 1.13 3.171c.1.278.284.516.523.688.242.168.53.258.828.258h4.054a1.428 1.428 0 0 0 1.434-1.363l.215-4.555a1.48 1.48 0 0 1 .133-.547c.082-.172.199-.324.34-.45.14-.128.304-.226.484-.284.18-.063.367-.09.558-.079.848.063 1.707.094 2.579.094a37.217 37.217 0 0 0 4.98-.344c.2-.027.398-.011.59.043a1.404 1.404 0 0 1 .887.738c.09.176.14.372.148.571l.227 4.812c.02.368.175.715.445.97.266.253.621.398.988.394h4.059c.293.004.582-.086.824-.258.242-.168.426-.41.523-.688l3.793-10.52c.106-.308.313-.573.582-.757a24.469 24.469 0 0 0 5.696-4.973 18.185 18.185 0 0 0 2.156-3.133 17.15 17.15 0 0 0 2.094-6.421c.074-.64.113-1.281.113-1.926a17.12 17.12 0 0 0-1.77-7.516 5.19 5.19 0 0 0 2.957-1.347 5.438 5.438 0 0 0 2.133-.344.629.629 0 0 0 .344-.328.648.648 0 0 0 .02-.477Zm-3.079-.18a3.683 3.683 0 0 1-1.972-1.05c-.758-.758-.992-1.457-.758-2.016a1.59 1.59 0 0 1 .594-.61 1.57 1.57 0 0 1 .824-.218h.09c.281.012.555.113.773.293.215.18.371.426.434.7.387.929.394 1.968.015 2.902Zm0 0" style="stroke:none;fill-rule:nonzero;fill:url(#C)"/><path d="M41.297 55.766h-.008c-.973 0-1.758.789-1.758 1.757v.012c0 .969.785 1.758 1.758 1.758h.008c.973 0 1.762-.79 1.762-1.758v-.012c0-.968-.79-1.757-1.762-1.757Zm0 0" style="stroke:none;fill-rule:nonzero;fill:url(#D)"/><use xlink:href="#E" mask="url(#F)"/><path d="M75.531 34.566a13.433 13.433 0 0 1-2.25 7.457 13.42 13.42 0 0 1-13.77 5.723 13.409 13.409 0 0 1-10.546-10.539 13.423 13.423 0 0 1 5.703-13.773 13.44 13.44 0 0 1 7.457-2.258 13.34 13.34 0 0 1 9.5 3.894 13.334 13.334 0 0 1 3.906 9.496Zm0 0" style="stroke:none;fill-rule:nonzero;fill:url(#G)"/><path d="M74.824 34.582a12.69 12.69 0 0 1-2.14 7.059 12.698 12.698 0 0 1-13.04 5.41 12.718 12.718 0 0 1-9.988-9.98 12.707 12.707 0 0 1 12.461-15.188 12.59 12.59 0 0 1 11.766 7.82c.633 1.547.953 3.207.941 4.879Zm0 0" style="stroke:none;fill-rule:nonzero;fill:url(#H)"/><path d="M59.656 43.05a1.538 1.538 0 0 1-.636-.09c-.204-.07-.391-.179-.547-.323a1.583 1.583 0 0 1-.336-.559 1.622 1.622 0 0 1-.086-.64v-1.88h-1.106c-.32.02-.636-.078-.883-.273a1.129 1.129 0 0 1-.296-.758c0-.277.105-.547.297-.757.242-.204.558-.31.882-.297h1.106v-1.614h-1.106c-.32.02-.636-.078-.883-.273a1.129 1.129 0 0 1-.296-.758c0-.277.105-.547.297-.758.242-.207.558-.312.882-.3h1.106v-6.125a1.292 1.292 0 0 1 .066-.61 1.35 1.35 0 0 1 .34-.52c.152-.148.336-.257.54-.324.206-.066.421-.09.636-.062h4.328a7.696 7.696 0 0 1 3.234.613c.832.375 1.528.98 1.996 1.735.477.8.715 1.71.688 2.632a4.512 4.512 0 0 1-.695 2.516 4.643 4.643 0 0 1-1.965 1.645 7.392 7.392 0 0 1-3.114.59H61.27v1.613h2.96c.32-.02.637.078.887.273a1.114 1.114 0 0 1 0 1.516c-.25.195-.566.293-.887.273h-2.96v1.88c.042.437-.09.874-.372 1.222-.164.148-.359.265-.574.336a1.551 1.551 0 0 1-.668.078Zm1.582-9.28h2.367a4.283 4.283 0 0 0 2.372-.57c.293-.223.523-.516.668-.845a2.07 2.07 0 0 0 .171-1.05c.036-.364-.02-.73-.156-1.075a2.367 2.367 0 0 0-.637-.894 3.82 3.82 0 0 0-2.41-.645h-2.367Zm0 0" style="stroke:none;fill-rule:nonzero;fill:url(#I)"/><path d="M40.617 48.934a1.349 1.349 0 0 0-.047-.559 1.336 1.336 0 0 0-.27-.496c-.32-.41-.675-.8-1.062-1.313l-.785-.984a1.486 1.486 0 0 1-.05-1.816c1.742.414 4.007 1.261 4.527 2.855v.082c.636 1.942-1.215 3.543-2.313 2.23Zm0 0" style="stroke:none;fill-rule:nonzero;fill:url(#J)"/><use xlink:href="#K" mask="url(#L)"/></svg>