<?xml version="1.0" encoding="UTF-8"?>
<svg xmlns="http://www.w3.org/2000/svg" xmlns:xlink="http://www.w3.org/1999/xlink" width="120px" height="120px" viewBox="0 0 120 120" version="1.1">
<defs>
<filter id="alpha" filterUnits="objectBoundingBox" x="0%" y="0%" width="100%" height="100%">
  <feColorMatrix type="matrix" in="SourceGraphic" values="0 0 0 0 1 0 0 0 0 1 0 0 0 0 1 0 0 0 1 0"/>
</filter>
<mask id="mask0">
  <g filter="url(#alpha)">
<rect x="0" y="0" width="120" height="120" style="fill:rgb(0%,0%,0%);fill-opacity:0.419608;stroke:none;"/>
  </g>
</mask>
<linearGradient id="linear0" gradientUnits="userSpaceOnUse" x1="47.4199" y1="124.8" x2="120.24" y2="47.6699" gradientTransform="matrix(0.705882,0,0,0.705882,0,0)">
<stop offset="0" style="stop-color:rgb(85.098039%,96.470588%,100%);stop-opacity:1;"/>
<stop offset="1" style="stop-color:rgb(74.901961%,96.078431%,100%);stop-opacity:1;"/>
</linearGradient>
<clipPath id="clip1">
  <rect x="0" y="0" width="121" height="121"/>
</clipPath>
<g id="surface5" clip-path="url(#clip1)">
<path style=" stroke:none;fill-rule:nonzero;fill:url(#linear0);" d="M 60 103.996094 C 84.300781 103.996094 103.996094 84.300781 103.996094 60 C 103.996094 35.699219 84.300781 16.003906 60 16.003906 C 35.699219 16.003906 16.003906 35.699219 16.003906 60 C 16.003906 84.300781 35.699219 103.996094 60 103.996094 Z M 60 103.996094 "/>
</g>
<linearGradient id="linear1" gradientUnits="userSpaceOnUse" x1="81.2097" y1="139.31" x2="83.1697" y2="141.25" gradientTransform="matrix(0.705882,0,0,0.705882,0,0)">
<stop offset="0" style="stop-color:rgb(54.117647%,91.372549%,94.901961%);stop-opacity:1;"/>
<stop offset="1" style="stop-color:rgb(31.764706%,81.960784%,87.843137%);stop-opacity:1;"/>
</linearGradient>
<linearGradient id="linear2" gradientUnits="userSpaceOnUse" x1="54.7767" y1="33.5431" x2="62.8503" y2="35.8979" gradientTransform="matrix(0.705882,0,0,0.705882,0,0)">
<stop offset="0" style="stop-color:rgb(54.117647%,91.372549%,94.901961%);stop-opacity:1;"/>
<stop offset="1" style="stop-color:rgb(31.764706%,81.960784%,87.843137%);stop-opacity:1;"/>
</linearGradient>
<linearGradient id="linear3" gradientUnits="userSpaceOnUse" x1="46.9462" y1="123.073" x2="55.0294" y2="125.43" gradientTransform="matrix(0.705882,0,0,0.705882,0,0)">
<stop offset="0" style="stop-color:rgb(54.117647%,91.372549%,94.901961%);stop-opacity:1;"/>
<stop offset="1" style="stop-color:rgb(31.764706%,81.960784%,87.843137%);stop-opacity:1;"/>
</linearGradient>
<linearGradient id="linear4" gradientUnits="userSpaceOnUse" x1="32.38" y1="84.42" x2="29.62" y2="81.68" gradientTransform="matrix(0.705882,0,0,0.705882,0,0)">
<stop offset="0" style="stop-color:rgb(0%,76.078431%,59.215686%);stop-opacity:1;"/>
<stop offset="1" style="stop-color:rgb(15.686275%,80%,87.058824%);stop-opacity:1;"/>
</linearGradient>
<linearGradient id="linear5" gradientUnits="userSpaceOnUse" x1="139.4" y1="95.1013" x2="136.64" y2="92.3612" gradientTransform="matrix(0.705882,0,0,0.705882,0,0)">
<stop offset="0" style="stop-color:rgb(0%,64.705882%,50.196078%);stop-opacity:1;"/>
<stop offset="1" style="stop-color:rgb(15.686275%,80%,87.058824%);stop-opacity:1;"/>
</linearGradient>
<linearGradient id="linear6" gradientUnits="userSpaceOnUse" x1="117.71" y1="132.261" x2="114.94" y2="129.521" gradientTransform="matrix(0.705882,0,0,0.705882,0,0)">
<stop offset="0" style="stop-color:rgb(0%,64.705882%,50.196078%);stop-opacity:1;"/>
<stop offset="1" style="stop-color:rgb(15.686275%,80%,87.058824%);stop-opacity:1;"/>
</linearGradient>
<linearGradient id="linear7" gradientUnits="userSpaceOnUse" x1="132.82" y1="69.7201" x2="158.61" y2="44.0801" gradientTransform="matrix(0.705882,0,0,0.705882,0,0)">
<stop offset="0" style="stop-color:rgb(0%,64.705882%,50.196078%);stop-opacity:1;"/>
<stop offset="1" style="stop-color:rgb(15.686275%,80%,87.058824%);stop-opacity:1;"/>
</linearGradient>
<linearGradient id="linear8" gradientUnits="userSpaceOnUse" x1="120.18" y1="35.4395" x2="138.31" y2="35.4395" gradientTransform="matrix(0.705882,0,0,0.705882,0,0)">
<stop offset="0" style="stop-color:rgb(54.117647%,91.372549%,94.901961%);stop-opacity:1;"/>
<stop offset="1" style="stop-color:rgb(31.764706%,81.960784%,87.843137%);stop-opacity:1;"/>
</linearGradient>
<mask id="mask1">
  <g filter="url(#alpha)">
<rect x="0" y="0" width="120" height="120" style="fill:rgb(0%,0%,0%);fill-opacity:0.278431;stroke:none;"/>
  </g>
</mask>
<linearGradient id="linear9" gradientUnits="userSpaceOnUse" x1="37.6699" y1="65.6399" x2="69.2299" y2="65.6399" gradientTransform="matrix(0.705882,0,0,0.705882,0,0)">
<stop offset="0" style="stop-color:rgb(54.117647%,91.372549%,94.901961%);stop-opacity:1;"/>
<stop offset="1" style="stop-color:rgb(31.764706%,81.960784%,87.843137%);stop-opacity:1;"/>
</linearGradient>
<mask id="mask2">
  <g filter="url(#alpha)">
<rect x="0" y="0" width="121" height="121" style="fill:rgb(0%,0%,0%);fill-opacity:0.870588;stroke:none;"/>
  </g>
</mask>
<linearGradient id="linear10" gradientUnits="userSpaceOnUse" x1="54.9396" y1="76.3588" x2="53.7796" y2="58.6788" gradientTransform="matrix(0.705882,0,0,0.705882,0,0)">
<stop offset="0" style="stop-color:rgb(100%,100%,100%);stop-opacity:1;"/>
<stop offset="1" style="stop-color:rgb(100%,100%,100%);stop-opacity:0.8;"/>
</linearGradient>
<clipPath id="clip3">
  <rect x="0" y="0" width="121" height="121"/>
</clipPath>
<g id="surface9" clip-path="url(#clip3)">
<path style=" stroke:none;fill-rule:nonzero;fill:url(#linear10);" d="M 35.578125 53.84375 C 35.394531 53.851562 35.214844 53.820312 35.042969 53.757812 C 34.875 53.691406 34.71875 53.59375 34.589844 53.46875 C 34.332031 53.171875 34.203125 52.789062 34.226562 52.398438 L 34.226562 50.710938 L 33.234375 50.710938 C 32.957031 50.730469 32.683594 50.644531 32.46875 50.46875 C 32.289062 50.28125 32.1875 50.027344 32.1875 49.765625 C 32.1875 49.5 32.289062 49.25 32.46875 49.058594 C 32.679688 48.882812 32.953125 48.792969 33.226562 48.8125 L 34.1875 48.8125 L 34.1875 47.398438 L 33.234375 47.398438 C 32.953125 47.417969 32.679688 47.328125 32.46875 47.144531 C 32.375 47.054688 32.304688 46.945312 32.257812 46.820312 C 32.210938 46.699219 32.191406 46.570312 32.203125 46.4375 C 32.195312 46.308594 32.214844 46.179688 32.261719 46.058594 C 32.304688 45.9375 32.378906 45.824219 32.46875 45.734375 C 32.683594 45.558594 32.953125 45.476562 33.226562 45.492188 L 34.1875 45.492188 L 34.1875 40.03125 C 34.164062 39.84375 34.183594 39.65625 34.242188 39.484375 C 34.304688 39.308594 34.402344 39.148438 34.535156 39.015625 C 34.664062 38.882812 34.824219 38.785156 35 38.722656 C 35.175781 38.664062 35.363281 38.644531 35.546875 38.667969 L 39.269531 38.667969 C 40.226562 38.640625 41.175781 38.828125 42.050781 39.21875 C 42.761719 39.554688 43.359375 40.09375 43.765625 40.769531 C 44.164062 41.484375 44.367188 42.292969 44.351562 43.113281 C 44.367188 43.90625 44.164062 44.691406 43.757812 45.375 C 43.34375 46.023438 42.75 46.539062 42.050781 46.863281 C 41.207031 47.238281 40.289062 47.417969 39.367188 47.390625 L 36.960938 47.390625 L 36.960938 48.804688 L 39.527344 48.804688 C 39.804688 48.785156 40.074219 48.875 40.285156 49.050781 C 40.464844 49.242188 40.566406 49.492188 40.566406 49.757812 C 40.566406 50.019531 40.464844 50.273438 40.285156 50.460938 C 40.074219 50.636719 39.800781 50.722656 39.527344 50.703125 L 36.960938 50.703125 L 36.960938 52.390625 C 36.984375 52.78125 36.859375 53.164062 36.605469 53.460938 C 36.472656 53.59375 36.308594 53.695312 36.132812 53.761719 C 35.953125 53.828125 35.765625 53.855469 35.578125 53.84375 Z M 36.917969 45.523438 L 38.9375 45.523438 C 39.660156 45.566406 40.378906 45.386719 40.996094 45.007812 C 41.25 44.804688 41.445312 44.542969 41.566406 44.246094 C 41.691406 43.949219 41.738281 43.625 41.703125 43.304688 C 41.730469 42.976562 41.683594 42.644531 41.558594 42.339844 C 41.4375 42.03125 41.246094 41.757812 40.996094 41.539062 C 40.398438 41.113281 39.671875 40.902344 38.9375 40.941406 L 36.917969 40.941406 Z M 36.917969 45.523438 "/>
</g>
<clipPath id="clip2">
  <rect x="0" y="0" width="121" height="121"/>
</clipPath>
<g id="surface11" clip-path="url(#clip2)">
<path style=" stroke:none;fill-rule:nonzero;fill:url(#linear9);" d="M 48.867188 46.328125 C 48.871094 48.53125 48.21875 50.683594 46.992188 52.519531 C 45.769531 54.351562 44.03125 55.78125 41.996094 56.625 C 39.960938 57.46875 37.71875 57.6875 35.558594 57.257812 C 33.398438 56.828125 31.410156 55.769531 29.851562 54.210938 C 28.292969 52.652344 27.234375 50.667969 26.804688 48.503906 C 26.375 46.34375 26.597656 44.105469 27.441406 42.066406 C 28.285156 40.03125 29.710938 38.292969 31.546875 37.070312 C 33.378906 35.847656 35.53125 35.195312 37.738281 35.195312 C 39.203125 35.183594 40.65625 35.460938 42.011719 36.019531 C 43.367188 36.574219 44.597656 37.390625 45.636719 38.429688 C 46.671875 39.464844 47.492188 40.695312 48.046875 42.050781 C 48.601562 43.410156 48.878906 44.863281 48.867188 46.328125 Z M 48.867188 46.328125 "/>
<use xlink:href="#surface9" mask="url(#mask2)"/>
</g>
<linearGradient id="linear11" gradientUnits="userSpaceOnUse" x1="84.9885" y1="54.3668" x2="84.9885" y2="103.37" gradientTransform="matrix(0.705882,0,0,0.705882,0,0)">
<stop offset="0" style="stop-color:rgb(54.117647%,91.372549%,94.901961%);stop-opacity:1;"/>
<stop offset="1" style="stop-color:rgb(31.764706%,81.960784%,87.843137%);stop-opacity:1;"/>
</linearGradient>
<linearGradient id="linear12" gradientUnits="userSpaceOnUse" x1="58.5058" y1="78.6752" x2="58.5058" y2="81.2158" gradientTransform="matrix(0.705882,0,0,0.705882,0,0)">
<stop offset="0" style="stop-color:rgb(100%,100%,100%);stop-opacity:1;"/>
<stop offset="1" style="stop-color:rgb(100%,100%,100%);stop-opacity:0.8;"/>
</linearGradient>
<mask id="mask3">
  <g filter="url(#alpha)">
<rect x="0" y="0" width="120" height="120" style="fill:rgb(0%,0%,0%);fill-opacity:0.741176;stroke:none;"/>
  </g>
</mask>
<mask id="mask4">
  <g filter="url(#alpha)">
<rect x="0" y="0" width="121" height="121" style="fill:rgb(0%,0%,0%);fill-opacity:0.741176;stroke:none;"/>
  </g>
</mask>
<linearGradient id="linear13" gradientUnits="userSpaceOnUse" x1="68.7693" y1="68.3307" x2="104.865" y2="68.3307" gradientTransform="matrix(0.705882,0,0,0.705882,0,0)">
<stop offset="0" style="stop-color:rgb(0%,76.078431%,59.215686%);stop-opacity:1;"/>
<stop offset="1" style="stop-color:rgb(15.294118%,70.980392%,76.862745%);stop-opacity:1;"/>
</linearGradient>
<clipPath id="clip5">
  <rect x="0" y="0" width="121" height="121"/>
</clipPath>
<g id="surface15" clip-path="url(#clip5)">
<path style=" stroke:none;fill-rule:nonzero;fill:url(#linear13);" d="M 72.882812 50.253906 C 72.761719 50.253906 72.640625 50.234375 72.523438 50.195312 C 68.726562 49.085938 64.792969 48.511719 60.839844 48.492188 C 57.1875 48.449219 53.554688 49.019531 50.09375 50.179688 C 49.8125 50.285156 49.496094 50.277344 49.222656 50.15625 C 48.945312 50.03125 48.730469 49.804688 48.617188 49.523438 C 48.566406 49.386719 48.539062 49.238281 48.542969 49.085938 C 48.546875 48.9375 48.578125 48.789062 48.640625 48.652344 C 48.699219 48.515625 48.789062 48.390625 48.898438 48.289062 C 49.003906 48.1875 49.132812 48.105469 49.273438 48.050781 C 52.996094 46.78125 56.90625 46.160156 60.839844 46.210938 C 65.035156 46.222656 69.207031 46.832031 73.230469 48.027344 C 73.492188 48.109375 73.714844 48.285156 73.855469 48.515625 C 74 48.746094 74.054688 49.023438 74.015625 49.292969 C 73.972656 49.5625 73.832031 49.804688 73.625 49.984375 C 73.417969 50.160156 73.15625 50.257812 72.882812 50.253906 Z M 72.882812 50.253906 "/>
</g>
<clipPath id="clip4">
  <rect x="0" y="0" width="121" height="121"/>
</clipPath>
<g id="surface17" clip-path="url(#clip4)">
<use xlink:href="#surface15" mask="url(#mask4)"/>
</g>
<linearGradient id="linear14" gradientUnits="userSpaceOnUse" x1="87.9998" y1="27.45" x2="87.9998" y2="46.8248" gradientTransform="matrix(0.705882,0,0,0.705882,0,0)">
<stop offset="0" style="stop-color:rgb(100%,100%,100%);stop-opacity:1;"/>
<stop offset="1" style="stop-color:rgb(100%,100%,100%);stop-opacity:0.8;"/>
</linearGradient>
<linearGradient id="linear15" gradientUnits="userSpaceOnUse" x1="69.989" y1="49.0003" x2="105.988" y2="49.0003" gradientTransform="matrix(0.705882,0,0,0.705882,0,0)">
<stop offset="0" style="stop-color:rgb(54.117647%,91.372549%,94.901961%);stop-opacity:1;"/>
<stop offset="1" style="stop-color:rgb(31.764706%,81.960784%,87.843137%);stop-opacity:1;"/>
</linearGradient>
<linearGradient id="linear16" gradientUnits="userSpaceOnUse" x1="89.7963" y1="61.0768" x2="88.56" y2="41.3569" gradientTransform="matrix(0.705882,0,0,0.705882,0,0)">
<stop offset="0" style="stop-color:rgb(100%,100%,100%);stop-opacity:1;"/>
<stop offset="1" style="stop-color:rgb(100%,100%,100%);stop-opacity:0.8;"/>
</linearGradient>
<linearGradient id="linear17" gradientUnits="userSpaceOnUse" x1="57.5161" y1="61.3652" x2="57.5161" y2="66.8854" gradientTransform="matrix(0.705882,0,0,0.705882,0,0)">
<stop offset="0" style="stop-color:rgb(54.117647%,91.372549%,94.901961%);stop-opacity:1;"/>
<stop offset="1" style="stop-color:rgb(31.764706%,81.960784%,87.843137%);stop-opacity:1;"/>
</linearGradient>
<mask id="mask5">
  <g filter="url(#alpha)">
<rect x="0" y="0" width="120" height="120" style="fill:rgb(0%,0%,0%);fill-opacity:0.2;stroke:none;"/>
  </g>
</mask>
<linearGradient id="linear18" gradientUnits="userSpaceOnUse" x1="93.3177" y1="123.444" x2="90.2675" y2="109.517" gradientTransform="matrix(0.705882,0,0,0.705882,0,0)">
<stop offset="0" style="stop-color:rgb(0%,76.078431%,59.215686%);stop-opacity:1;"/>
<stop offset="1" style="stop-color:rgb(15.294118%,70.980392%,76.862745%);stop-opacity:1;"/>
</linearGradient>
<clipPath id="clip6">
  <rect x="0" y="0" width="121" height="121"/>
</clipPath>
<g id="surface20" clip-path="url(#clip6)">
<path style=" stroke:none;fill-rule:nonzero;fill:url(#linear18);" d="M 86.824219 72 C 86.34375 72.875 85.796875 73.710938 85.179688 74.5 C 85.003906 74.71875 84.828125 74.941406 84.644531 75.15625 C 82.992188 77.109375 81.046875 78.800781 78.878906 80.160156 C 78.601562 80.34375 78.394531 80.613281 78.285156 80.925781 L 74.449219 91.515625 C 74.347656 91.796875 74.160156 92.039062 73.917969 92.210938 C 73.671875 92.382812 73.378906 92.472656 73.082031 92.46875 L 69.011719 92.46875 C 68.636719 92.472656 68.277344 92.328125 68.007812 92.074219 C 67.738281 91.816406 67.578125 91.464844 67.558594 91.09375 L 67.332031 86.25 C 67.320312 86.050781 67.269531 85.855469 67.179688 85.675781 C 67.09375 85.496094 66.964844 85.335938 66.8125 85.207031 C 66.65625 85.082031 66.476562 84.984375 66.28125 84.929688 C 66.089844 84.875 65.886719 84.863281 65.6875 84.890625 C 64.015625 85.117188 62.332031 85.234375 60.644531 85.234375 C 59.761719 85.234375 58.890625 85.234375 58.03125 85.144531 C 57.839844 85.128906 57.648438 85.15625 57.46875 85.21875 C 57.285156 85.28125 57.121094 85.378906 56.976562 85.503906 C 56.832031 85.632812 56.71875 85.789062 56.636719 85.960938 C 56.550781 86.132812 56.503906 86.320312 56.496094 86.511719 L 56.28125 91.09375 C 56.265625 91.464844 56.105469 91.816406 55.832031 92.074219 C 55.5625 92.328125 55.203125 92.472656 54.832031 92.46875 L 50.707031 92.46875 C 50.410156 92.46875 50.117188 92.378906 49.871094 92.207031 C 49.628906 92.039062 49.441406 91.796875 49.339844 91.515625 L 48.199219 88.320312 L 46.179688 82.699219 C 46.109375 82.519531 46.007812 82.355469 45.875 82.214844 C 45.746094 82.074219 45.585938 81.964844 45.410156 81.886719 C 44.398438 81.394531 43.414062 80.847656 42.460938 80.246094 C 41.433594 79.601562 40.453125 78.882812 39.53125 78.097656 C 40.003906 78.195312 47.789062 79.886719 61.289062 79.886719 C 75.039062 79.839844 86.46875 72.222656 86.824219 72 Z M 86.824219 72 "/>
</g>
</defs>
<g id="surface1">
<use xlink:href="#surface5" mask="url(#mask0)"/>
<path style=" stroke:none;fill-rule:nonzero;fill:url(#linear1);" d="M 58.058594 100.152344 C 58.65625 100.152344 59.136719 99.667969 59.136719 99.070312 C 59.136719 98.472656 58.65625 97.992188 58.058594 97.992188 C 57.460938 97.992188 56.980469 98.472656 56.980469 99.070312 C 56.980469 99.667969 57.460938 100.152344 58.058594 100.152344 Z M 58.058594 100.152344 "/>
<path style=" stroke:none;fill-rule:nonzero;fill:url(#linear2);" d="M 45.179688 24.871094 L 46.589844 26.023438 C 46.644531 26.070312 46.679688 26.132812 46.6875 26.207031 C 46.695312 26.277344 46.675781 26.347656 46.632812 26.40625 C 46.609375 26.433594 46.582031 26.457031 46.550781 26.472656 C 46.519531 26.492188 46.484375 26.5 46.449219 26.503906 L 44.621094 26.714844 C 44.585938 26.71875 44.550781 26.730469 44.519531 26.746094 C 44.492188 26.761719 44.464844 26.785156 44.445312 26.8125 L 43.265625 28.226562 C 43.214844 28.277344 43.144531 28.304688 43.070312 28.304688 C 42.996094 28.304688 42.929688 28.277344 42.875 28.226562 C 42.824219 28.179688 42.789062 28.117188 42.777344 28.050781 L 42.574219 26.222656 C 42.566406 26.160156 42.542969 26.101562 42.503906 26.050781 L 41.042969 24.894531 C 40.984375 24.847656 40.949219 24.785156 40.941406 24.710938 C 40.933594 24.640625 40.957031 24.570312 41 24.511719 C 41.019531 24.484375 41.050781 24.460938 41.082031 24.445312 C 41.113281 24.429688 41.148438 24.417969 41.183594 24.414062 L 43.03125 24.203125 C 43.101562 24.195312 43.167969 24.160156 43.214844 24.105469 L 44.359375 22.691406 C 44.382812 22.664062 44.410156 22.640625 44.441406 22.621094 C 44.472656 22.605469 44.507812 22.59375 44.542969 22.589844 C 44.582031 22.585938 44.617188 22.589844 44.652344 22.597656 C 44.6875 22.609375 44.71875 22.625 44.746094 22.648438 C 44.773438 22.671875 44.796875 22.695312 44.816406 22.726562 C 44.832031 22.757812 44.84375 22.792969 44.847656 22.824219 L 45.050781 24.6875 C 45.070312 24.765625 45.113281 24.828125 45.179688 24.871094 Z M 45.179688 24.871094 "/>
<path style=" stroke:none;fill-rule:nonzero;fill:url(#linear3);" d="M 39.882812 88.121094 L 41.292969 89.273438 C 41.320312 89.292969 41.34375 89.324219 41.363281 89.351562 C 41.378906 89.386719 41.390625 89.417969 41.394531 89.453125 C 41.398438 89.492188 41.394531 89.527344 41.386719 89.558594 C 41.375 89.59375 41.359375 89.625 41.335938 89.652344 C 41.3125 89.683594 41.285156 89.707031 41.253906 89.722656 C 41.222656 89.742188 41.1875 89.75 41.152344 89.753906 L 39.324219 89.964844 C 39.289062 89.96875 39.257812 89.976562 39.226562 89.996094 C 39.195312 90.011719 39.167969 90.035156 39.148438 90.0625 L 37.96875 91.476562 C 37.917969 91.527344 37.847656 91.554688 37.773438 91.554688 C 37.703125 91.554688 37.632812 91.527344 37.582031 91.476562 C 37.527344 91.429688 37.496094 91.367188 37.480469 91.296875 L 37.277344 89.46875 C 37.273438 89.40625 37.25 89.347656 37.207031 89.300781 L 35.753906 88.136719 C 35.722656 88.117188 35.699219 88.089844 35.683594 88.058594 C 35.664062 88.027344 35.652344 87.996094 35.648438 87.960938 C 35.644531 87.925781 35.644531 87.890625 35.65625 87.855469 C 35.664062 87.820312 35.679688 87.789062 35.703125 87.761719 C 35.75 87.707031 35.816406 87.671875 35.886719 87.664062 L 37.734375 87.453125 C 37.808594 87.441406 37.875 87.40625 37.917969 87.351562 L 39.0625 85.941406 C 39.085938 85.914062 39.113281 85.890625 39.144531 85.871094 C 39.175781 85.855469 39.210938 85.84375 39.25 85.839844 C 39.285156 85.835938 39.320312 85.839844 39.355469 85.847656 C 39.390625 85.859375 39.421875 85.875 39.453125 85.898438 C 39.480469 85.921875 39.503906 85.945312 39.519531 85.976562 C 39.535156 86.007812 39.546875 86.039062 39.550781 86.074219 L 39.753906 87.902344 C 39.761719 87.945312 39.773438 87.988281 39.796875 88.027344 C 39.816406 88.0625 39.847656 88.097656 39.882812 88.121094 Z M 39.882812 88.121094 "/>
<path style=" stroke:none;fill-rule:nonzero;fill:url(#linear4);" d="M 21.882812 60 C 21.601562 60 21.332031 59.917969 21.097656 59.761719 C 20.867188 59.605469 20.683594 59.386719 20.578125 59.128906 C 20.472656 58.871094 20.441406 58.585938 20.496094 58.3125 C 20.550781 58.039062 20.6875 57.789062 20.882812 57.589844 C 21.082031 57.390625 21.332031 57.257812 21.605469 57.203125 C 21.878906 57.148438 22.164062 57.175781 22.421875 57.285156 C 22.679688 57.390625 22.902344 57.570312 23.054688 57.804688 C 23.210938 58.035156 23.292969 58.308594 23.292969 58.589844 C 23.292969 58.960938 23.144531 59.320312 22.878906 59.585938 C 22.617188 59.851562 22.257812 60 21.882812 60 Z M 21.882812 57.804688 C 21.71875 57.804688 21.5625 57.851562 21.425781 57.941406 C 21.292969 58.03125 21.1875 58.160156 21.125 58.308594 C 21.0625 58.460938 21.046875 58.625 21.078125 58.785156 C 21.109375 58.941406 21.1875 59.089844 21.304688 59.203125 C 21.417969 59.316406 21.5625 59.394531 21.722656 59.425781 C 21.882812 59.457031 22.046875 59.441406 22.195312 59.378906 C 22.34375 59.316406 22.472656 59.214844 22.5625 59.078125 C 22.652344 58.945312 22.703125 58.785156 22.703125 58.625 C 22.703125 58.511719 22.6875 58.402344 22.648438 58.300781 C 22.609375 58.199219 22.546875 58.105469 22.472656 58.027344 C 22.394531 57.945312 22.304688 57.882812 22.203125 57.839844 C 22.101562 57.796875 21.992188 57.777344 21.882812 57.777344 Z M 21.882812 57.804688 "/>
<path style=" stroke:none;fill-rule:nonzero;fill:url(#linear5);" d="M 97.410156 67.539062 C 97.140625 67.539062 96.875 67.460938 96.652344 67.308594 C 96.425781 67.160156 96.25 66.949219 96.144531 66.699219 C 96.039062 66.449219 96.007812 66.171875 96.058594 65.90625 C 96.109375 65.640625 96.238281 65.394531 96.425781 65.203125 C 96.617188 65.007812 96.859375 64.875 97.121094 64.816406 C 97.386719 64.761719 97.664062 64.78125 97.914062 64.882812 C 98.167969 64.980469 98.382812 65.152344 98.539062 65.371094 C 98.695312 65.59375 98.78125 65.855469 98.789062 66.128906 C 98.789062 66.496094 98.644531 66.851562 98.386719 67.113281 C 98.128906 67.378906 97.78125 67.53125 97.410156 67.539062 Z M 97.410156 65.34375 C 97.25 65.34375 97.089844 65.390625 96.957031 65.480469 C 96.824219 65.574219 96.71875 65.699219 96.65625 65.851562 C 96.59375 66 96.578125 66.164062 96.609375 66.324219 C 96.640625 66.480469 96.71875 66.628906 96.832031 66.742188 C 96.949219 66.855469 97.09375 66.933594 97.253906 66.964844 C 97.410156 66.996094 97.574219 66.980469 97.726562 66.917969 C 97.875 66.859375 98.003906 66.753906 98.09375 66.617188 C 98.183594 66.484375 98.230469 66.324219 98.230469 66.164062 C 98.230469 65.945312 98.144531 65.738281 97.992188 65.585938 C 97.835938 65.429688 97.628906 65.34375 97.410156 65.34375 Z M 97.410156 65.34375 "/>
<path style=" stroke:none;fill-rule:nonzero;fill:url(#linear6);" d="M 82.117188 93.769531 C 81.847656 93.761719 81.585938 93.675781 81.363281 93.523438 C 81.144531 93.371094 80.972656 93.152344 80.871094 92.902344 C 80.773438 92.652344 80.75 92.378906 80.804688 92.117188 C 80.855469 91.851562 80.988281 91.609375 81.179688 91.421875 C 81.367188 91.230469 81.609375 91.101562 81.875 91.046875 C 82.136719 90.992188 82.410156 91.015625 82.660156 91.117188 C 82.910156 91.214844 83.125 91.386719 83.28125 91.605469 C 83.433594 91.828125 83.519531 92.089844 83.527344 92.359375 C 83.53125 92.542969 83.5 92.730469 83.429688 92.902344 C 83.359375 93.078125 83.257812 93.234375 83.125 93.367188 C 82.992188 93.5 82.835938 93.601562 82.660156 93.671875 C 82.488281 93.742188 82.300781 93.773438 82.117188 93.769531 Z M 82.117188 91.574219 C 81.953125 91.574219 81.792969 91.621094 81.660156 91.710938 C 81.527344 91.804688 81.421875 91.929688 81.359375 92.082031 C 81.296875 92.230469 81.28125 92.394531 81.3125 92.554688 C 81.34375 92.710938 81.421875 92.859375 81.535156 92.972656 C 81.652344 93.085938 81.796875 93.164062 81.957031 93.195312 C 82.113281 93.226562 82.277344 93.210938 82.429688 93.148438 C 82.578125 93.089844 82.707031 92.984375 82.796875 92.847656 C 82.886719 92.714844 82.933594 92.554688 82.933594 92.394531 C 82.933594 92.175781 82.847656 91.96875 82.695312 91.816406 C 82.539062 91.660156 82.332031 91.574219 82.117188 91.574219 Z M 82.117188 91.574219 "/>
<path style=" stroke:none;fill-rule:nonzero;fill:url(#linear7);" d="M 94.375 49.59375 C 94.3125 49.59375 94.246094 49.582031 94.1875 49.558594 C 94.113281 49.535156 94.042969 49.496094 93.984375 49.445312 C 93.925781 49.394531 93.875 49.332031 93.839844 49.261719 C 93.804688 49.191406 93.785156 49.113281 93.78125 49.035156 C 93.777344 48.957031 93.785156 48.878906 93.8125 48.804688 C 94.148438 47.792969 94.597656 46.824219 95.144531 45.910156 C 95.226562 45.773438 95.359375 45.671875 95.511719 45.632812 C 95.667969 45.59375 95.832031 45.613281 95.96875 45.695312 C 96.105469 45.777344 96.207031 45.90625 96.246094 46.0625 C 96.285156 46.214844 96.265625 46.378906 96.183594 46.519531 C 95.679688 47.359375 95.265625 48.253906 94.949219 49.1875 C 94.90625 49.304688 94.832031 49.410156 94.726562 49.480469 C 94.625 49.554688 94.503906 49.59375 94.375 49.59375 Z M 97.425781 44.300781 C 97.289062 44.304688 97.15625 44.253906 97.050781 44.167969 C 96.992188 44.117188 96.941406 44.058594 96.902344 43.988281 C 96.863281 43.917969 96.839844 43.84375 96.832031 43.765625 C 96.824219 43.6875 96.832031 43.609375 96.855469 43.53125 C 96.878906 43.457031 96.917969 43.386719 96.96875 43.328125 C 97.625 42.515625 98.332031 41.742188 99.085938 41.019531 C 99.140625 40.960938 99.207031 40.917969 99.277344 40.886719 C 99.351562 40.855469 99.429688 40.839844 99.507812 40.839844 C 99.585938 40.839844 99.664062 40.855469 99.738281 40.886719 C 99.808594 40.917969 99.875 40.960938 99.933594 41.019531 C 100.042969 41.132812 100.105469 41.285156 100.105469 41.441406 C 100.105469 41.601562 100.042969 41.753906 99.933594 41.867188 C 99.210938 42.558594 98.527344 43.296875 97.890625 44.066406 C 97.835938 44.140625 97.761719 44.203125 97.679688 44.242188 C 97.597656 44.28125 97.503906 44.304688 97.410156 44.300781 Z M 109.015625 42.996094 L 108.847656 42.996094 C 108.6875 42.996094 108.535156 42.933594 108.421875 42.820312 C 108.3125 42.707031 108.246094 42.554688 108.246094 42.394531 C 108.246094 42.234375 108.3125 42.082031 108.421875 41.972656 C 108.535156 41.859375 108.6875 41.796875 108.847656 41.796875 L 109.007812 41.796875 C 109.933594 41.800781 110.859375 41.699219 111.761719 41.492188 C 111.839844 41.464844 111.925781 41.457031 112.007812 41.464844 C 112.089844 41.472656 112.171875 41.5 112.242188 41.539062 C 112.316406 41.582031 112.378906 41.636719 112.429688 41.703125 C 112.480469 41.769531 112.515625 41.847656 112.53125 41.925781 C 112.550781 42.007812 112.554688 42.09375 112.539062 42.175781 C 112.523438 42.257812 112.488281 42.335938 112.441406 42.402344 C 112.394531 42.472656 112.335938 42.53125 112.261719 42.574219 C 112.191406 42.617188 112.113281 42.644531 112.03125 42.65625 C 111.042969 42.886719 110.03125 43 109.015625 42.996094 Z M 105.8125 42.628906 C 105.765625 42.636719 105.722656 42.636719 105.675781 42.628906 C 104.640625 42.394531 103.628906 42.054688 102.664062 41.613281 C 102.589844 41.578125 102.527344 41.53125 102.472656 41.476562 C 102.417969 41.417969 102.375 41.351562 102.347656 41.277344 C 102.320312 41.203125 102.308594 41.125 102.3125 41.046875 C 102.3125 40.96875 102.332031 40.890625 102.363281 40.816406 C 102.394531 40.746094 102.441406 40.679688 102.5 40.628906 C 102.558594 40.574219 102.625 40.53125 102.699219 40.503906 C 102.773438 40.476562 102.851562 40.460938 102.929688 40.464844 C 103.007812 40.46875 103.085938 40.484375 103.15625 40.519531 C 104.0625 40.929688 105.011719 41.242188 105.980469 41.457031 C 106.125 41.488281 106.253906 41.574219 106.339844 41.695312 C 106.425781 41.8125 106.464844 41.960938 106.449219 42.109375 C 106.429688 42.257812 106.359375 42.394531 106.25 42.492188 C 106.136719 42.589844 105.996094 42.644531 105.847656 42.640625 Z M 114.734375 41.527344 C 114.632812 41.527344 114.535156 41.5 114.445312 41.453125 C 114.355469 41.40625 114.28125 41.335938 114.226562 41.25 C 114.140625 41.117188 114.113281 40.953125 114.148438 40.796875 C 114.179688 40.640625 114.273438 40.503906 114.410156 40.417969 C 115.179688 39.988281 115.757812 39.28125 116.027344 38.441406 C 116.046875 38.367188 116.078125 38.292969 116.125 38.230469 C 116.171875 38.167969 116.230469 38.113281 116.300781 38.074219 C 116.367188 38.03125 116.441406 38.003906 116.519531 37.992188 C 116.597656 37.980469 116.675781 37.984375 116.753906 38.003906 C 116.828125 38.023438 116.902344 38.058594 116.964844 38.105469 C 117.027344 38.152344 117.082031 38.210938 117.121094 38.277344 C 117.164062 38.34375 117.191406 38.421875 117.203125 38.496094 C 117.214844 38.574219 117.210938 38.65625 117.191406 38.730469 C 116.855469 39.867188 116.097656 40.835938 115.074219 41.429688 C 114.972656 41.492188 114.855469 41.527344 114.734375 41.527344 Z M 100.257812 40.117188 C 100.132812 40.113281 100.011719 40.074219 99.910156 40.003906 C 99.046875 39.382812 98.242188 38.6875 97.503906 37.925781 C 97.394531 37.8125 97.332031 37.65625 97.335938 37.5 C 97.339844 37.339844 97.40625 37.1875 97.519531 37.078125 C 97.636719 36.964844 97.789062 36.90625 97.949219 36.910156 C 98.109375 36.914062 98.261719 36.980469 98.371094 37.09375 C 99.054688 37.804688 99.800781 38.449219 100.601562 39.019531 C 100.707031 39.09375 100.789062 39.199219 100.828125 39.320312 C 100.871094 39.441406 100.871094 39.574219 100.832031 39.695312 C 100.796875 39.820312 100.71875 39.925781 100.613281 40 C 100.511719 40.078125 100.386719 40.117188 100.257812 40.117188 Z M 101.835938 40.03125 C 101.710938 40.03125 101.589844 39.992188 101.492188 39.917969 C 101.390625 39.84375 101.3125 39.742188 101.273438 39.625 C 101.230469 39.507812 101.230469 39.378906 101.265625 39.257812 C 101.300781 39.140625 101.371094 39.035156 101.46875 38.957031 C 102.296875 38.316406 103.152344 37.71875 104.039062 37.164062 C 104.175781 37.082031 104.339844 37.054688 104.496094 37.089844 C 104.652344 37.125 104.785156 37.222656 104.871094 37.359375 C 104.953125 37.496094 104.980469 37.660156 104.945312 37.8125 C 104.90625 37.96875 104.8125 38.105469 104.675781 38.1875 C 103.820312 38.71875 102.996094 39.292969 102.203125 39.910156 C 102.101562 39.992188 101.972656 40.039062 101.835938 40.039062 Z M 107.054688 36.8125 C 106.941406 36.808594 106.828125 36.777344 106.730469 36.714844 C 106.632812 36.65625 106.554688 36.570312 106.503906 36.464844 C 106.4375 36.320312 106.429688 36.15625 106.484375 36.007812 C 106.539062 35.859375 106.648438 35.738281 106.792969 35.667969 C 107.75 35.214844 108.742188 34.839844 109.757812 34.546875 C 109.910156 34.503906 110.074219 34.523438 110.214844 34.601562 C 110.351562 34.679688 110.457031 34.808594 110.5 34.960938 C 110.542969 35.117188 110.523438 35.28125 110.445312 35.417969 C 110.367188 35.558594 110.234375 35.660156 110.082031 35.703125 C 109.125 35.972656 108.191406 36.324219 107.292969 36.753906 C 107.21875 36.792969 107.136719 36.816406 107.054688 36.820312 Z M 115.765625 36.375 C 115.6875 36.375 115.605469 36.359375 115.535156 36.328125 C 115.460938 36.300781 115.394531 36.253906 115.339844 36.199219 C 114.6875 35.601562 113.828125 35.277344 112.941406 35.292969 C 112.863281 35.292969 112.785156 35.273438 112.714844 35.242188 C 112.640625 35.207031 112.578125 35.160156 112.523438 35.105469 C 112.46875 35.046875 112.425781 34.976562 112.398438 34.90625 C 112.371094 34.832031 112.359375 34.75 112.363281 34.671875 C 112.371094 34.515625 112.445312 34.367188 112.5625 34.261719 C 112.679688 34.15625 112.832031 34.097656 112.992188 34.101562 C 114.175781 34.082031 115.324219 34.527344 116.1875 35.335938 C 116.273438 35.421875 116.328125 35.527344 116.351562 35.644531 C 116.375 35.757812 116.363281 35.878906 116.316406 35.988281 C 116.273438 36.097656 116.195312 36.191406 116.097656 36.257812 C 116 36.324219 115.882812 36.359375 115.765625 36.359375 Z M 96 35.746094 C 95.902344 35.746094 95.808594 35.722656 95.722656 35.675781 C 95.636719 35.628906 95.5625 35.566406 95.507812 35.484375 C 95.378906 35.308594 95.257812 35.117188 95.132812 34.925781 C 95.089844 34.859375 95.058594 34.785156 95.046875 34.710938 C 95.03125 34.632812 95.03125 34.550781 95.050781 34.476562 C 95.066406 34.398438 95.097656 34.324219 95.144531 34.261719 C 95.1875 34.195312 95.246094 34.140625 95.3125 34.097656 C 95.378906 34.054688 95.453125 34.027344 95.53125 34.011719 C 95.605469 33.996094 95.6875 34 95.761719 34.015625 C 95.839844 34.03125 95.914062 34.0625 95.980469 34.109375 C 96.042969 34.152344 96.097656 34.210938 96.140625 34.277344 C 96.253906 34.453125 96.375 34.628906 96.492188 34.800781 C 96.585938 34.929688 96.621094 35.09375 96.59375 35.25 C 96.566406 35.40625 96.476562 35.546875 96.347656 35.640625 C 96.242188 35.707031 96.125 35.746094 96 35.746094 Z M 96 35.746094 "/>
<path style=" stroke:none;fill-rule:nonzero;fill:url(#linear8);" d="M 97.628906 25.015625 C 97.574219 26.675781 96.875 28.25 95.683594 29.40625 C 94.488281 30.558594 92.894531 31.207031 91.230469 31.207031 C 89.570312 31.207031 87.972656 30.558594 86.78125 29.40625 C 85.585938 28.25 84.886719 26.675781 84.832031 25.015625 C 84.804688 24.15625 84.949219 23.300781 85.257812 22.5 C 85.566406 21.699219 86.03125 20.96875 86.628906 20.351562 C 87.226562 19.734375 87.941406 19.246094 88.730469 18.910156 C 89.523438 18.574219 90.371094 18.402344 91.230469 18.402344 C 92.089844 18.402344 92.941406 18.574219 93.730469 18.910156 C 94.519531 19.246094 95.234375 19.734375 95.832031 20.351562 C 96.429688 20.96875 96.898438 21.699219 97.207031 22.5 C 97.515625 23.300781 97.660156 24.15625 97.628906 25.015625 Z M 97.628906 25.015625 "/>
<use xlink:href="#surface11" mask="url(#mask1)"/>
<path style=" stroke:none;fill-rule:nonzero;fill:rgb(100%,100%,100%);fill-opacity:1;" d="M 90.042969 29.167969 C 89.9375 29.171875 89.835938 29.160156 89.738281 29.125 C 89.640625 29.089844 89.550781 29.035156 89.476562 28.960938 C 89.332031 28.800781 89.261719 28.585938 89.273438 28.371094 L 89.273438 27.4375 L 88.742188 27.4375 C 88.59375 27.445312 88.445312 27.398438 88.328125 27.304688 C 88.277344 27.253906 88.238281 27.195312 88.210938 27.128906 C 88.1875 27.0625 88.175781 26.992188 88.179688 26.921875 C 88.175781 26.851562 88.183594 26.777344 88.210938 26.710938 C 88.234375 26.644531 88.277344 26.585938 88.328125 26.535156 C 88.445312 26.441406 88.59375 26.394531 88.742188 26.398438 L 89.273438 26.398438 L 89.273438 25.601562 L 88.742188 25.601562 C 88.59375 25.613281 88.445312 25.5625 88.328125 25.46875 C 88.277344 25.417969 88.238281 25.359375 88.210938 25.292969 C 88.1875 25.226562 88.175781 25.15625 88.179688 25.085938 C 88.175781 25.015625 88.183594 24.945312 88.210938 24.875 C 88.234375 24.808594 88.277344 24.75 88.328125 24.699219 C 88.445312 24.605469 88.59375 24.558594 88.742188 24.566406 L 89.273438 24.566406 L 89.273438 21.53125 C 89.265625 21.429688 89.28125 21.328125 89.316406 21.234375 C 89.351562 21.140625 89.410156 21.054688 89.480469 20.984375 C 89.550781 20.914062 89.636719 20.859375 89.730469 20.824219 C 89.828125 20.789062 89.925781 20.773438 90.027344 20.78125 L 92.089844 20.78125 C 92.617188 20.765625 93.140625 20.867188 93.621094 21.085938 C 94.023438 21.265625 94.363281 21.566406 94.585938 21.945312 C 94.8125 22.339844 94.925781 22.785156 94.914062 23.238281 C 94.925781 23.675781 94.8125 24.113281 94.582031 24.488281 C 94.355469 24.847656 94.03125 25.132812 93.640625 25.304688 C 93.175781 25.515625 92.667969 25.617188 92.160156 25.601562 L 90.816406 25.601562 L 90.816406 26.398438 L 92.230469 26.398438 C 92.382812 26.390625 92.527344 26.441406 92.644531 26.535156 C 92.699219 26.585938 92.738281 26.644531 92.761719 26.710938 C 92.789062 26.777344 92.800781 26.851562 92.792969 26.921875 C 92.796875 26.992188 92.789062 27.0625 92.761719 27.128906 C 92.738281 27.195312 92.695312 27.253906 92.644531 27.304688 C 92.527344 27.398438 92.382812 27.445312 92.230469 27.4375 L 90.816406 27.4375 L 90.816406 28.371094 C 90.832031 28.585938 90.765625 28.796875 90.628906 28.960938 C 90.550781 29.035156 90.457031 29.089844 90.355469 29.125 C 90.253906 29.160156 90.148438 29.175781 90.042969 29.167969 Z M 90.78125 24.566406 L 91.898438 24.566406 C 92.300781 24.589844 92.699219 24.492188 93.042969 24.28125 C 93.179688 24.171875 93.289062 24.027344 93.359375 23.863281 C 93.429688 23.699219 93.457031 23.519531 93.4375 23.34375 C 93.453125 23.164062 93.425781 22.980469 93.355469 22.8125 C 93.289062 22.640625 93.183594 22.492188 93.046875 22.371094 C 92.710938 22.136719 92.308594 22.023438 91.898438 22.050781 L 90.78125 22.050781 Z M 90.78125 24.566406 "/>
<path style=" stroke:none;fill-rule:nonzero;fill:url(#linear11);" d="M 92.433594 53.78125 C 92.371094 53.625 92.25 53.496094 92.09375 53.425781 C 91.9375 53.359375 91.757812 53.355469 91.601562 53.417969 C 91.324219 53.519531 91.035156 53.585938 90.742188 53.621094 C 91.035156 52.53125 90.976562 51.378906 90.582031 50.320312 C 90.441406 49.796875 90.136719 49.332031 89.714844 48.992188 C 89.292969 48.652344 88.773438 48.453125 88.234375 48.425781 C 87.667969 48.386719 87.101562 48.515625 86.609375 48.792969 C 86.117188 49.074219 85.71875 49.496094 85.464844 50.003906 C 85.238281 50.511719 84.882812 51.863281 86.464844 53.464844 C 86.960938 53.96875 87.558594 54.363281 88.21875 54.625 C 87.625 54.890625 86.988281 55.050781 86.335938 55.09375 C 81.960938 47.589844 72.117188 42.351562 60.683594 42.351562 C 56.625 42.339844 52.597656 43.023438 48.777344 44.378906 C 48.589844 44.449219 48.390625 44.476562 48.191406 44.464844 C 47.992188 44.449219 47.800781 44.394531 47.625 44.304688 C 46.203125 43.503906 44.617188 43.035156 42.992188 42.925781 C 41.363281 42.820312 39.734375 43.082031 38.21875 43.6875 C 37.964844 43.789062 37.742188 43.960938 37.589844 44.191406 C 37.414062 44.445312 37.320312 44.75 37.328125 45.058594 C 37.335938 45.367188 37.445312 45.667969 37.636719 45.914062 L 38.394531 46.847656 C 38.75 47.292969 39.078125 47.703125 39.371094 48.089844 C 39.589844 48.375 39.691406 48.730469 39.660156 49.089844 C 39.632812 49.445312 39.472656 49.777344 39.214844 50.027344 C 38.886719 50.320312 38.574219 50.625 38.273438 50.9375 C 35.609375 53.527344 33.765625 56.84375 32.964844 60.476562 C 32.898438 60.800781 32.722656 61.089844 32.46875 61.300781 C 32.210938 61.507812 31.890625 61.621094 31.5625 61.621094 C 31.105469 61.621094 28.074219 61.433594 27.578125 62.609375 C 27.085938 63.785156 30.339844 70.957031 31.136719 71.53125 C 32.441406 72.222656 33.804688 72.796875 35.210938 73.246094 C 35.453125 73.355469 35.660156 73.53125 35.808594 73.757812 C 36.941406 75.40625 38.285156 76.898438 39.804688 78.195312 C 40.71875 78.976562 41.6875 79.6875 42.703125 80.328125 C 43.640625 80.925781 44.613281 81.472656 45.613281 81.960938 C 45.789062 82.035156 45.945312 82.148438 46.074219 82.285156 C 46.203125 82.421875 46.304688 82.585938 46.371094 82.765625 L 48.367188 88.351562 L 49.496094 91.523438 C 49.597656 91.800781 49.78125 92.039062 50.019531 92.210938 C 50.261719 92.378906 50.550781 92.46875 50.847656 92.46875 L 54.902344 92.46875 C 55.273438 92.472656 55.625 92.328125 55.894531 92.074219 C 56.160156 91.820312 56.320312 91.472656 56.335938 91.105469 L 56.550781 86.550781 C 56.558594 86.363281 56.605469 86.175781 56.683594 86.003906 C 56.765625 85.832031 56.882812 85.679688 57.023438 85.554688 C 57.164062 85.425781 57.328125 85.328125 57.507812 85.269531 C 57.6875 85.207031 57.875 85.179688 58.066406 85.191406 C 58.914062 85.253906 59.773438 85.285156 60.644531 85.285156 C 62.3125 85.28125 63.976562 85.167969 65.625 84.941406 C 65.824219 84.914062 66.023438 84.929688 66.214844 84.984375 C 66.40625 85.035156 66.582031 85.128906 66.738281 85.257812 C 66.890625 85.386719 67.015625 85.542969 67.101562 85.722656 C 67.191406 85.898438 67.242188 86.09375 67.25 86.292969 L 67.476562 91.105469 C 67.496094 91.472656 67.652344 91.820312 67.921875 92.074219 C 68.1875 92.328125 68.542969 92.472656 68.910156 92.46875 L 72.96875 92.46875 C 73.261719 92.472656 73.550781 92.382812 73.792969 92.210938 C 74.035156 92.042969 74.21875 91.800781 74.316406 91.523438 L 78.109375 81.003906 C 78.214844 80.695312 78.421875 80.429688 78.691406 80.246094 C 80.835938 78.894531 82.757812 77.214844 84.386719 75.273438 C 84.570312 75.0625 84.746094 74.839844 84.917969 74.621094 C 85.527344 73.839844 86.070312 73.007812 86.542969 72.140625 C 87.660156 70.160156 88.371094 67.976562 88.636719 65.71875 C 88.710938 65.078125 88.75 64.4375 88.75 63.792969 C 88.738281 61.183594 88.136719 58.617188 86.980469 56.277344 C 88.085938 56.15625 89.121094 55.683594 89.9375 54.929688 C 90.664062 54.957031 91.390625 54.84375 92.070312 54.585938 C 92.222656 54.527344 92.347656 54.40625 92.414062 54.257812 C 92.480469 54.109375 92.488281 53.9375 92.433594 53.78125 Z M 89.355469 53.601562 C 88.605469 53.464844 87.917969 53.097656 87.382812 52.550781 C 86.625 51.792969 86.390625 51.09375 86.625 50.535156 C 86.765625 50.28125 86.96875 50.070312 87.21875 49.925781 C 87.46875 49.777344 87.753906 49.703125 88.042969 49.707031 L 88.132812 49.707031 C 88.414062 49.71875 88.6875 49.820312 88.90625 50 C 89.121094 50.179688 89.277344 50.425781 89.339844 50.699219 C 89.726562 51.628906 89.734375 52.667969 89.355469 53.601562 Z M 89.355469 53.601562 "/>
<path style=" stroke:none;fill-rule:nonzero;fill:url(#linear12);" d="M 41.296875 55.765625 L 41.289062 55.765625 C 40.316406 55.765625 39.53125 56.554688 39.53125 57.523438 L 39.53125 57.535156 C 39.53125 58.503906 40.316406 59.292969 41.289062 59.292969 L 41.296875 59.292969 C 42.269531 59.292969 43.058594 58.503906 43.058594 57.535156 L 43.058594 57.523438 C 43.058594 56.554688 42.269531 55.765625 41.296875 55.765625 Z M 41.296875 55.765625 "/>
<use xlink:href="#surface17" mask="url(#mask3)"/>
<path style=" stroke:none;fill-rule:nonzero;fill:url(#linear14);" d="M 75.53125 34.566406 C 75.535156 37.21875 74.75 39.816406 73.28125 42.023438 C 71.808594 44.234375 69.714844 45.953125 67.265625 46.972656 C 64.8125 47.992188 62.117188 48.261719 59.511719 47.746094 C 56.910156 47.230469 54.515625 45.953125 52.640625 44.078125 C 50.761719 42.203125 49.484375 39.8125 48.964844 37.207031 C 48.445312 34.605469 48.710938 31.90625 49.726562 29.457031 C 50.742188 27.003906 52.460938 24.910156 54.667969 23.433594 C 56.875 21.960938 59.472656 21.175781 62.125 21.175781 C 63.886719 21.164062 65.632812 21.503906 67.265625 22.171875 C 68.894531 22.839844 70.378906 23.824219 71.625 25.070312 C 72.871094 26.316406 73.859375 27.796875 74.527344 29.425781 C 75.199219 31.054688 75.539062 32.804688 75.53125 34.566406 Z M 75.53125 34.566406 "/>
<path style=" stroke:none;fill-rule:nonzero;fill:url(#linear15);" d="M 74.824219 34.582031 C 74.824219 37.09375 74.082031 39.550781 72.683594 41.640625 C 71.289062 43.730469 69.304688 45.363281 66.984375 46.324219 C 64.664062 47.289062 62.109375 47.539062 59.644531 47.050781 C 57.179688 46.5625 54.914062 45.351562 53.136719 43.574219 C 51.359375 41.796875 50.148438 39.535156 49.65625 37.070312 C 49.164062 34.605469 49.417969 32.050781 50.378906 29.726562 C 51.339844 27.40625 52.96875 25.421875 55.058594 24.023438 C 57.148438 22.628906 59.605469 21.882812 62.117188 21.882812 C 63.789062 21.867188 65.449219 22.1875 66.996094 22.820312 C 68.542969 23.453125 69.949219 24.386719 71.132812 25.570312 C 72.3125 26.75 73.25 28.15625 73.882812 29.703125 C 74.515625 31.25 74.835938 32.910156 74.824219 34.582031 Z M 74.824219 34.582031 "/>
<path style=" stroke:none;fill-rule:nonzero;fill:url(#linear16);" d="M 59.65625 43.050781 C 59.441406 43.066406 59.222656 43.035156 59.019531 42.960938 C 58.816406 42.890625 58.628906 42.78125 58.472656 42.636719 C 58.320312 42.472656 58.207031 42.28125 58.136719 42.078125 C 58.066406 41.871094 58.035156 41.65625 58.050781 41.4375 L 58.050781 39.558594 L 56.945312 39.558594 C 56.625 39.578125 56.308594 39.480469 56.0625 39.285156 C 55.871094 39.074219 55.765625 38.804688 55.765625 38.527344 C 55.765625 38.25 55.871094 37.980469 56.0625 37.769531 C 56.304688 37.566406 56.621094 37.460938 56.945312 37.472656 L 58.050781 37.472656 L 58.050781 35.859375 L 56.945312 35.859375 C 56.625 35.878906 56.308594 35.78125 56.0625 35.585938 C 55.871094 35.375 55.765625 35.105469 55.765625 34.828125 C 55.765625 34.550781 55.871094 34.28125 56.0625 34.070312 C 56.304688 33.863281 56.621094 33.757812 56.945312 33.769531 L 58.050781 33.769531 L 58.050781 27.644531 C 58.023438 27.4375 58.046875 27.230469 58.117188 27.035156 C 58.1875 26.839844 58.304688 26.660156 58.457031 26.515625 C 58.609375 26.367188 58.792969 26.257812 58.996094 26.191406 C 59.203125 26.125 59.417969 26.101562 59.632812 26.128906 L 63.960938 26.128906 C 65.074219 26.097656 66.179688 26.308594 67.195312 26.742188 C 68.027344 27.117188 68.722656 27.722656 69.191406 28.476562 C 69.667969 29.277344 69.90625 30.1875 69.878906 31.109375 C 69.902344 31.992188 69.660156 32.863281 69.183594 33.625 C 68.703125 34.339844 68.023438 34.910156 67.21875 35.269531 C 66.238281 35.6875 65.175781 35.890625 64.105469 35.859375 L 61.269531 35.859375 L 61.269531 37.472656 L 64.230469 37.472656 C 64.550781 37.453125 64.867188 37.550781 65.117188 37.746094 C 65.308594 37.957031 65.414062 38.226562 65.414062 38.503906 C 65.414062 38.785156 65.308594 39.054688 65.117188 39.261719 C 64.867188 39.457031 64.550781 39.554688 64.230469 39.535156 L 61.269531 39.535156 L 61.269531 41.414062 C 61.3125 41.851562 61.179688 42.289062 60.898438 42.636719 C 60.734375 42.785156 60.539062 42.902344 60.324219 42.972656 C 60.109375 43.046875 59.882812 43.074219 59.65625 43.050781 Z M 61.238281 33.769531 L 63.605469 33.769531 C 64.4375 33.8125 65.265625 33.613281 65.976562 33.199219 C 66.269531 32.976562 66.5 32.683594 66.644531 32.355469 C 66.792969 32.023438 66.851562 31.664062 66.816406 31.304688 C 66.851562 30.941406 66.796875 30.574219 66.660156 30.230469 C 66.523438 29.890625 66.304688 29.582031 66.023438 29.335938 C 65.324219 28.859375 64.472656 28.632812 63.613281 28.691406 L 61.246094 28.691406 Z M 61.238281 33.769531 "/>
<path style=" stroke:none;fill-rule:nonzero;fill:url(#linear17);" d="M 40.617188 48.933594 C 40.640625 48.746094 40.625 48.554688 40.570312 48.375 C 40.515625 48.191406 40.425781 48.023438 40.300781 47.878906 C 39.980469 47.46875 39.625 47.078125 39.238281 46.566406 L 38.453125 45.582031 C 38.242188 45.324219 38.128906 45.007812 38.117188 44.679688 C 38.109375 44.355469 38.207031 44.03125 38.402344 43.765625 C 40.144531 44.179688 42.410156 45.027344 42.929688 46.621094 L 42.929688 46.703125 C 43.566406 48.644531 41.714844 50.246094 40.617188 48.933594 Z M 40.617188 48.933594 "/>
<use xlink:href="#surface20" mask="url(#mask5)"/>
</g>
</svg>
