<svg width="120" height="120" viewBox="0 0 120 120" fill="none" xmlns="http://www.w3.org/2000/svg">
<g clip-path="url(#clip0_3_7)">
<mask id="mask0_3_7" style="mask-type:luminance" maskUnits="userSpaceOnUse" x="0" y="0" width="120" height="120">
<path d="M0 0H120V120H0V0Z" fill="black" fill-opacity="0.419608"/>
</mask>
<g mask="url(#mask0_3_7)">
<mask id="mask1_3_7" style="mask-type:luminance" maskUnits="userSpaceOnUse" x="0" y="0" width="121" height="121">
<path d="M0 0H121V121H0V0Z" fill="white"/>
</mask>
<g mask="url(#mask1_3_7)">
<path d="M60 103.996C84.3 103.996 103.996 84.301 103.996 60C103.996 35.7 84.301 16.004 60 16.004C35.7 16.004 16.004 35.699 16.004 60C16.004 84.3 35.699 103.996 60 103.996Z" fill="url(#paint0_linear_3_7)"/>
</g>
</g>
<path d="M58.059 100.152C58.656 100.152 59.137 99.668 59.137 99.07C59.137 98.473 58.657 97.992 58.059 97.992C57.461 97.992 56.98 98.472 56.98 99.07C56.98 99.668 57.46 100.152 58.059 100.152Z" fill="url(#paint1_linear_3_7)"/>
<path d="M45.18 24.871L46.59 26.023C46.6442 26.0696 46.6788 26.135 46.6868 26.206C46.6948 26.2771 46.6755 26.3485 46.633 26.406C46.6104 26.4336 46.5825 26.4564 46.551 26.473C46.5197 26.4906 46.4848 26.5008 46.449 26.503L44.621 26.715C44.5858 26.7194 44.5516 26.7299 44.52 26.746C44.4906 26.7628 44.465 26.7856 44.445 26.813L43.265 28.227C43.2129 28.2778 43.1428 28.3058 43.07 28.305C42.9974 28.3052 42.9275 28.2772 42.875 28.227C42.8241 28.1805 42.7897 28.1188 42.777 28.051L42.574 26.223C42.5666 26.1604 42.5424 26.101 42.504 26.051L41.043 24.895C41.0143 24.8729 40.9905 24.8452 40.973 24.8135C40.9554 24.7819 40.9445 24.747 40.941 24.711C40.9348 24.6393 40.9559 24.5679 41 24.511C41.02 24.484 41.05 24.461 41.082 24.445C41.114 24.4291 41.1485 24.419 41.184 24.415L43.031 24.203C43.1025 24.1947 43.1682 24.1597 43.215 24.105L44.359 22.691C44.3826 22.6636 44.4103 22.64 44.441 22.621C44.4729 22.6048 44.5075 22.5943 44.543 22.59C44.582 22.586 44.617 22.59 44.653 22.598C44.687 22.6084 44.7186 22.6254 44.746 22.648C44.773 22.672 44.796 22.695 44.816 22.727C44.8319 22.7574 44.8427 22.7901 44.848 22.824L45.051 24.687C45.071 24.766 45.113 24.828 45.18 24.871Z" fill="url(#paint2_linear_3_7)"/>
<path d="M39.883 88.121L41.293 89.273C41.32 89.293 41.343 89.324 41.363 89.352C41.3789 89.3838 41.3897 89.4179 41.395 89.453C41.398 89.493 41.395 89.527 41.387 89.559C41.3762 89.593 41.3589 89.6246 41.336 89.652C41.3145 89.6814 41.2864 89.7054 41.254 89.722C41.2229 89.7403 41.188 89.7512 41.152 89.754L39.324 89.964C39.2896 89.9669 39.2564 89.9779 39.227 89.996C39.1956 90.0116 39.1685 90.0346 39.148 90.063L37.968 91.477C37.9159 91.5278 37.8458 91.5558 37.773 91.555C37.7016 91.5551 37.6329 91.5271 37.582 91.477C37.529 91.4299 37.4931 91.3666 37.48 91.297L37.277 89.469C37.2738 89.4066 37.2491 89.3472 37.207 89.301L35.754 88.137C35.7239 88.118 35.6997 88.091 35.684 88.059C35.6645 88.0296 35.6522 87.996 35.648 87.961C35.6428 87.9255 35.6455 87.8893 35.656 87.855C35.6637 87.8206 35.6799 87.7886 35.703 87.762C35.7498 87.7073 35.8155 87.6723 35.887 87.664L37.734 87.454C37.806 87.4444 37.8717 87.408 37.918 87.352L39.063 85.942C39.0866 85.9146 39.1143 85.891 39.145 85.872C39.2098 85.839 39.2844 85.8304 39.355 85.848C39.3902 85.8591 39.4233 85.876 39.453 85.898C39.48 85.922 39.503 85.945 39.52 85.977C39.5357 86.0073 39.5459 86.0401 39.55 86.074L39.754 87.902C39.762 87.945 39.774 87.988 39.797 88.027C39.817 88.062 39.847 88.097 39.883 88.121Z" fill="url(#paint3_linear_3_7)"/>
<path d="M21.883 60C21.6035 60.001 21.3301 59.9186 21.0977 59.7635C20.8653 59.6083 20.6843 59.3874 20.578 59.129C20.4713 58.8709 20.4428 58.5872 20.496 58.313C20.5493 58.0382 20.6833 57.7856 20.8807 57.5872C21.0782 57.3889 21.3303 57.2539 21.6048 57.1994C21.8794 57.1449 22.1639 57.1734 22.4222 57.2812C22.6805 57.3891 22.9008 57.5714 23.055 57.805C23.1973 58.0173 23.2792 58.2643 23.292 58.5195C23.3047 58.7748 23.2479 59.0287 23.1275 59.2541C23.0072 59.4796 22.8278 59.6681 22.6086 59.7994C22.3894 59.9308 22.1386 60.0001 21.883 60ZM21.883 57.805C21.7206 57.8044 21.5616 57.8517 21.426 57.941C21.2922 58.032 21.1877 58.1599 21.125 58.309C21.063 58.4596 21.0466 58.6252 21.078 58.785C21.109 58.941 21.188 59.09 21.305 59.203C21.3902 59.2891 21.4936 59.355 21.6076 59.396C21.7216 59.4371 21.8432 59.4521 21.9638 59.4401C22.0843 59.4282 22.2006 59.3894 22.3043 59.3268C22.408 59.2641 22.4964 59.1791 22.563 59.078C22.6534 58.9442 22.7021 58.7865 22.703 58.625C22.7048 58.5145 22.6861 58.4047 22.648 58.301C22.5662 58.0947 22.4063 57.929 22.203 57.84C22.1016 57.7978 21.9928 57.7764 21.883 57.777V57.805Z" fill="url(#paint4_linear_3_7)"/>
<path d="M97.41 67.54C97.14 67.54 96.875 67.46 96.652 67.309C96.4264 67.1594 96.2498 66.9466 96.1441 66.6973C96.0385 66.4481 96.0086 66.1732 96.058 65.907C96.1218 65.5732 96.3067 65.2748 96.5771 65.0691C96.8475 64.8633 97.1845 64.7648 97.5231 64.7923C97.8618 64.8198 98.1784 64.9715 98.412 65.2182C98.6457 65.465 98.7799 65.7893 98.789 66.129C98.789 66.496 98.645 66.852 98.387 67.113C98.1305 67.3786 97.7792 67.5328 97.41 67.54ZM97.41 65.344C97.248 65.3439 97.0897 65.3922 96.9554 65.4828C96.821 65.5733 96.7168 65.7018 96.656 65.852C96.6094 65.9637 96.5883 66.0844 96.5942 66.2053C96.6001 66.3262 96.6328 66.4442 96.6901 66.5508C96.7474 66.6574 96.8278 66.7499 96.9253 66.8216C97.0228 66.8932 97.1351 66.9422 97.254 66.965C97.4127 66.9963 97.5772 66.98 97.7266 66.9181C97.8761 66.8562 98.0039 66.7514 98.094 66.617C98.199 66.4599 98.2462 66.2713 98.2276 66.0832C98.209 65.8952 98.1257 65.7195 97.992 65.586C97.9158 65.5092 97.8251 65.4483 97.7252 65.4068C97.6253 65.3652 97.5182 65.3439 97.41 65.344Z" fill="url(#paint5_linear_3_7)"/>
<path d="M82.117 93.77C81.8472 93.7616 81.5855 93.6759 81.363 93.523C81.1428 93.3679 80.972 93.1527 80.871 92.903C80.7732 92.653 80.7502 92.3798 80.805 92.117C80.855 91.852 80.988 91.609 81.18 91.422C81.367 91.23 81.61 91.102 81.875 91.047C82.1383 90.994 82.4113 91.0187 82.6609 91.1179C82.9105 91.2171 83.1259 91.3867 83.281 91.606C83.434 91.828 83.52 92.09 83.527 92.359C83.5322 92.5456 83.4994 92.7313 83.4303 92.9047C83.3613 93.0782 83.2577 93.2357 83.1257 93.3677C82.9937 93.4997 82.8362 93.6033 82.6627 93.6724C82.4893 93.7414 82.3036 93.7752 82.117 93.77ZM82.117 91.574C81.9544 91.5731 81.7953 91.6208 81.66 91.711C81.5266 91.8034 81.4224 91.9322 81.36 92.082C81.3134 92.1936 81.2922 92.3142 81.2981 92.4351C81.3039 92.5559 81.3366 92.6739 81.3938 92.7805C81.451 92.8871 81.5312 92.9796 81.6286 93.0513C81.726 93.123 81.8382 93.1721 81.957 93.195C82.1156 93.2264 82.28 93.2103 82.4295 93.1485C82.5789 93.0868 82.7068 92.9822 82.797 92.848C82.902 92.6909 82.9492 92.5023 82.9306 92.3142C82.912 92.1262 82.8287 91.9505 82.695 91.817C82.6194 91.7404 82.5294 91.6795 82.4302 91.6378C82.331 91.5961 82.2246 91.5744 82.117 91.574Z" fill="url(#paint6_linear_3_7)"/>
<path d="M94.375 49.594C94.3107 49.5942 94.2469 49.5823 94.187 49.559C94.112 49.5357 94.0426 49.4973 93.9829 49.4462C93.9233 49.3952 93.8746 49.3325 93.84 49.262C93.8049 49.1912 93.7848 49.1139 93.781 49.035C93.7757 48.957 93.7862 48.8788 93.812 48.805C94.148 47.793 94.598 46.825 95.145 45.91C95.185 45.8417 95.2382 45.782 95.3013 45.7342C95.3644 45.6865 95.4364 45.6516 95.513 45.6316C95.5896 45.6117 95.6694 45.607 95.7478 45.6179C95.8262 45.6287 95.9017 45.655 95.97 45.695C96.0383 45.7351 96.098 45.7882 96.1458 45.8513C96.1935 45.9144 96.2284 45.9864 96.2484 46.063C96.2683 46.1396 96.273 46.2194 96.2621 46.2978C96.2513 46.3762 96.2251 46.4517 96.185 46.52C95.68 47.36 95.265 48.254 94.949 49.187C94.908 49.3058 94.8302 49.4084 94.727 49.48C94.6249 49.5548 94.5015 49.5947 94.375 49.594ZM97.425 44.301C97.2885 44.3027 97.1558 44.2556 97.051 44.168C96.9911 44.1173 96.9406 44.0563 96.902 43.988C96.8629 43.9192 96.8386 43.8431 96.8305 43.7644C96.8224 43.6858 96.8308 43.6063 96.855 43.531C96.8788 43.4563 96.9176 43.3872 96.969 43.328C97.6251 42.5146 98.3322 41.7437 99.086 41.02C99.1681 40.934 99.2746 40.8751 99.3912 40.8513C99.5077 40.8276 99.6287 40.84 99.738 40.887C99.8277 40.9265 99.9066 40.9871 99.968 41.0635C100.029 41.14 100.071 41.2301 100.091 41.3263C100.11 41.4224 100.105 41.5218 100.078 41.6159C100.05 41.71 100.001 41.7962 99.933 41.867C99.2103 42.5602 98.5285 43.2948 97.891 44.067C97.836 44.142 97.7636 44.2026 97.6799 44.2433C97.5963 44.2841 97.504 44.3039 97.411 44.301H97.425ZM109.015 42.996H108.848C108.689 42.996 108.536 42.9328 108.424 42.8203C108.311 42.7077 108.248 42.5551 108.248 42.396C108.248 42.2369 108.311 42.0843 108.424 41.9717C108.536 41.8592 108.689 41.796 108.848 41.796H109.008C109.934 41.801 110.859 41.699 111.762 41.492C111.84 41.465 111.926 41.457 112.008 41.465C112.091 41.4737 112.171 41.4994 112.244 41.5403C112.316 41.5812 112.38 41.6366 112.43 41.703C112.48 41.77 112.516 41.848 112.531 41.926C112.551 42.0078 112.554 42.093 112.539 42.176C112.523 42.2574 112.489 42.3344 112.441 42.402C112.394 42.4702 112.333 42.528 112.262 42.5717C112.192 42.6154 112.113 42.6441 112.031 42.656C111.043 42.886 110.03 43 109.015 42.996ZM105.812 42.629C105.767 42.6367 105.721 42.6367 105.676 42.629C104.64 42.3949 103.63 42.0544 102.664 41.613C102.555 41.5649 102.464 41.4852 102.401 41.3843C102.338 41.2833 102.307 41.1658 102.312 41.047C102.312 40.969 102.332 40.891 102.363 40.817C102.394 40.7451 102.441 40.681 102.5 40.629C102.586 40.5471 102.694 40.4928 102.811 40.4732C102.928 40.4535 103.048 40.4695 103.156 40.519C104.062 40.929 105.012 41.242 105.98 41.457C106.125 41.4888 106.254 41.5736 106.34 41.695C106.405 41.7846 106.444 41.8905 106.452 42.001C106.46 42.1114 106.437 42.2219 106.386 42.3201C106.335 42.4183 106.258 42.5004 106.163 42.557C106.068 42.6137 105.959 42.6428 105.848 42.641L105.812 42.629ZM114.734 41.527C114.633 41.5261 114.534 41.5007 114.445 41.453C114.331 41.3911 114.24 41.2935 114.186 41.175C114.132 41.0566 114.119 40.9238 114.148 40.797C114.164 40.7193 114.195 40.6456 114.24 40.5805C114.285 40.5153 114.343 40.46 114.41 40.418C115.18 39.9875 115.758 39.281 116.027 38.441C116.044 38.3641 116.078 38.2918 116.125 38.2285C116.172 38.1653 116.231 38.1127 116.3 38.074C116.367 38.0312 116.442 38.0032 116.52 37.992C116.637 37.9741 116.757 37.9917 116.864 38.0425C116.971 38.0933 117.061 38.175 117.121 38.277C117.163 38.3437 117.191 38.4183 117.203 38.4962C117.215 38.5742 117.211 38.6537 117.191 38.73C116.856 39.8673 116.099 40.8334 115.074 41.43C114.972 41.4932 114.854 41.5268 114.734 41.527ZM100.258 40.117C100.134 40.1137 100.013 40.0744 99.91 40.004C99.0481 39.3839 98.2429 38.6885 97.504 37.926C97.4216 37.8404 97.3665 37.7323 97.3456 37.6154C97.3247 37.4985 97.339 37.378 97.3866 37.2692C97.4343 37.1603 97.5132 37.0681 97.6133 37.0042C97.7134 36.9403 97.8302 36.9075 97.949 36.91C98.109 36.914 98.262 36.98 98.371 37.094C99.0529 37.8039 99.7995 38.4486 100.601 39.02C100.707 39.0927 100.787 39.1976 100.828 39.3192C100.87 39.4408 100.871 39.5726 100.832 39.695C100.797 39.819 100.719 39.9267 100.613 40C100.511 40.0771 100.386 40.1182 100.258 40.117ZM101.836 40.031C101.712 40.0296 101.591 39.9897 101.49 39.9168C101.389 39.8439 101.313 39.7415 101.273 39.6237C101.233 39.5059 101.23 39.3786 101.265 39.2592C101.3 39.1398 101.371 39.0342 101.469 38.957C102.295 38.3171 103.153 37.7187 104.039 37.164C104.176 37.082 104.339 37.054 104.496 37.09C104.573 37.1076 104.646 37.1402 104.71 37.1861C104.775 37.2319 104.83 37.2901 104.871 37.3572C104.913 37.4244 104.941 37.4991 104.954 37.5772C104.967 37.6552 104.964 37.735 104.946 37.812C104.928 37.8894 104.895 37.9624 104.849 38.0269C104.802 38.0915 104.744 38.1462 104.676 38.188C103.822 38.718 102.996 39.2928 102.203 39.91C102.099 39.994 101.97 40.0399 101.836 40.04V40.031ZM107.055 36.813C106.94 36.8101 106.828 36.7762 106.73 36.715C106.613 36.6445 106.524 36.5352 106.479 36.406C106.434 36.2768 106.436 36.136 106.484 36.008C106.539 35.8588 106.65 35.7369 106.793 35.668C107.75 35.215 108.743 34.84 109.758 34.547C109.911 34.5041 110.075 34.5236 110.214 34.6011C110.353 34.6787 110.456 34.808 110.5 34.961C110.522 35.0372 110.528 35.1169 110.519 35.1955C110.509 35.2741 110.484 35.3501 110.445 35.419C110.407 35.488 110.354 35.5486 110.292 35.5973C110.23 35.6461 110.158 35.682 110.082 35.703C109.125 35.973 108.192 36.324 107.293 36.753C107.219 36.7924 107.138 36.8152 107.055 36.82V36.813ZM115.765 36.375C115.686 36.3752 115.608 36.3592 115.535 36.328C115.462 36.2995 115.395 36.2555 115.34 36.199C114.686 35.6009 113.827 35.2766 112.941 35.293C112.863 35.2921 112.786 35.2751 112.715 35.243C112.643 35.2085 112.578 35.1618 112.523 35.105C112.469 35.0471 112.427 34.9796 112.398 34.906C112.358 34.7944 112.353 34.6734 112.382 34.5585C112.411 34.4437 112.474 34.3401 112.562 34.261C112.68 34.1546 112.833 34.0973 112.992 34.101C114.177 34.083 115.322 34.5258 116.187 35.336C116.271 35.4195 116.328 35.5261 116.351 35.6422C116.375 35.7583 116.363 35.8787 116.317 35.988C116.273 36.098 116.197 36.1922 116.099 36.2584C116 36.3246 115.884 36.3596 115.766 36.359L115.765 36.375ZM96 35.746C95.9028 35.7457 95.8072 35.7217 95.7215 35.6761C95.6357 35.6304 95.5624 35.5645 95.508 35.484C95.378 35.309 95.258 35.117 95.133 34.926C95.0898 34.861 95.0605 34.7878 95.047 34.711C95.0308 34.6337 95.0321 34.5537 95.051 34.477C95.0659 34.3992 95.098 34.3258 95.145 34.262C95.1888 34.1961 95.246 34.1402 95.313 34.098C95.3796 34.0558 95.4536 34.0267 95.531 34.012C95.6071 33.9978 95.6854 33.9991 95.761 34.016C95.839 34.0308 95.913 34.0617 95.9784 34.1066C96.0438 34.1515 96.0992 34.2096 96.141 34.277C96.254 34.453 96.375 34.629 96.492 34.801C96.5381 34.8653 96.5708 34.9381 96.5884 35.0152C96.6059 35.0923 96.6078 35.1721 96.594 35.25C96.5654 35.4069 96.4772 35.5466 96.348 35.64C96.2445 35.7078 96.1237 35.7446 96 35.746Z" fill="url(#paint7_linear_3_7)"/>
<path d="M97.629 25.016C97.5733 26.6759 96.8761 28.2496 95.684 29.406C94.4886 30.5605 92.8919 31.2062 91.23 31.207C90.1908 31.2059 89.1674 30.9521 88.2482 30.4673C87.329 29.9825 86.5415 29.2814 85.9537 28.4244C85.3659 27.5674 84.9954 26.5802 84.8742 25.5481C84.753 24.516 84.8847 23.4699 85.258 22.5C85.5659 21.6991 86.032 20.9684 86.6286 20.3516C87.2251 19.7348 87.9398 19.2445 88.73 18.91C89.5208 18.5744 90.371 18.4015 91.23 18.4015C92.089 18.4015 92.9392 18.5744 93.73 18.91C94.5199 19.2459 95.2346 19.7366 95.8317 20.3532C96.4289 20.9698 96.8965 21.6997 97.207 22.5C97.516 23.3 97.66 24.156 97.629 25.016Z" fill="url(#paint8_linear_3_7)"/>
<mask id="mask2_3_7" style="mask-type:luminance" maskUnits="userSpaceOnUse" x="0" y="0" width="120" height="120">
<path d="M0 0H120V120H0V0Z" fill="black" fill-opacity="0.278431"/>
</mask>
<g mask="url(#mask2_3_7)">
<mask id="mask3_3_7" style="mask-type:luminance" maskUnits="userSpaceOnUse" x="0" y="0" width="121" height="121">
<path d="M0 0H121V121H0V0Z" fill="white"/>
</mask>
<g mask="url(#mask3_3_7)">
<path d="M48.867 46.328C48.8705 48.5324 48.2178 50.6879 46.992 52.52C45.7694 54.3524 44.0307 55.781 41.996 56.625C39.9602 57.468 37.7201 57.6883 35.559 57.258C33.3971 56.8296 31.411 55.7689 29.8526 54.2104C28.2941 52.652 27.2335 50.6659 26.805 48.504C26.375 46.344 26.598 44.105 27.441 42.066C28.2863 40.0314 29.7155 38.2929 31.5482 37.0699C33.3808 35.847 35.5348 35.1946 37.738 35.195C39.2034 35.1821 40.6567 35.4626 42.012 36.02C44.055 36.8548 45.8005 38.2835 47.0226 40.1212C48.2448 41.9589 48.8873 44.1211 48.867 46.328Z" fill="url(#paint9_linear_3_7)"/>
<mask id="mask4_3_7" style="mask-type:luminance" maskUnits="userSpaceOnUse" x="0" y="0" width="121" height="121">
<path d="M0 0H121V121H0V0Z" fill="black" fill-opacity="0.870588"/>
</mask>
<g mask="url(#mask4_3_7)">
<mask id="mask5_3_7" style="mask-type:luminance" maskUnits="userSpaceOnUse" x="0" y="0" width="121" height="121">
<path d="M0 0H121V121H0V0Z" fill="white"/>
</mask>
<g mask="url(#mask5_3_7)">
<path d="M35.578 53.844C35.3957 53.8508 35.2139 53.8216 35.043 53.758C34.8744 53.692 34.7205 53.5934 34.59 53.468C34.3334 53.1727 34.203 52.7885 34.227 52.398V50.711H33.234C32.957 50.731 32.684 50.645 32.469 50.469C32.2882 50.2796 32.1873 50.0278 32.187 49.766C32.187 49.5 32.289 49.25 32.469 49.059C32.6806 48.8825 32.9521 48.7943 33.227 48.813H34.187V47.398H33.234C33.0961 47.4083 32.9575 47.3912 32.8263 47.3478C32.695 47.3044 32.5736 47.2355 32.469 47.145C32.375 47.054 32.3028 46.9429 32.258 46.82C32.2104 46.6983 32.1915 46.5672 32.203 46.437C32.1953 46.3082 32.2154 46.1793 32.262 46.059C32.3063 45.9368 32.377 45.8258 32.469 45.734C32.684 45.559 32.953 45.477 33.227 45.492H34.187V40.032C34.1635 39.8475 34.1823 39.6601 34.242 39.484C34.305 39.309 34.402 39.148 34.535 39.016C34.6656 38.8841 34.8248 38.7841 35.0003 38.7237C35.1758 38.6634 35.3629 38.6443 35.547 38.668H39.27C40.2262 38.6403 41.1764 38.8282 42.05 39.218C42.7627 39.5545 43.3598 40.0945 43.766 40.77C44.164 41.484 44.367 42.293 44.352 43.113C44.3687 43.9076 44.1629 44.6911 43.758 45.375C43.3425 46.0236 42.7502 46.5399 42.051 46.863C41.2072 47.2379 40.2899 47.4184 39.367 47.391H36.961V48.805H39.527C39.805 48.785 40.074 48.875 40.285 49.051C40.465 49.242 40.566 49.492 40.566 49.758C40.566 50.02 40.465 50.273 40.286 50.461C40.074 50.637 39.801 50.723 39.527 50.703H36.961V52.391C36.984 52.781 36.859 53.164 36.605 53.461C36.4706 53.5937 36.3095 53.6965 36.1325 53.7625C35.9555 53.8285 35.7665 53.8563 35.578 53.844ZM36.918 45.524H38.938C39.6607 45.5668 40.379 45.3867 40.996 45.008C41.25 44.805 41.446 44.543 41.566 44.246C41.691 43.949 41.738 43.625 41.703 43.305C41.73 42.977 41.683 42.645 41.559 42.34C41.4383 42.032 41.2451 41.7576 40.996 41.54C40.3971 41.1133 39.6713 40.9021 38.937 40.941H36.918V45.524Z" fill="url(#paint10_linear_3_7)"/>
</g>
</g>
</g>
</g>
<path d="M90.043 29.168C89.9395 29.1735 89.8359 29.1589 89.738 29.125C89.64 29.0902 89.5509 29.0342 89.477 28.961C89.4059 28.8809 89.3513 28.7875 89.3163 28.6863C89.2813 28.5851 89.2666 28.4779 89.273 28.371V27.438H88.743C88.593 27.446 88.4454 27.3987 88.328 27.305C88.2776 27.2547 88.2379 27.1949 88.211 27.129C88.1871 27.0627 88.1766 26.9924 88.18 26.922C88.1747 26.8506 88.1852 26.7789 88.2108 26.712C88.2364 26.6451 88.2764 26.5847 88.328 26.535C88.4456 26.442 88.5922 26.3935 88.742 26.398H89.273V25.602H88.743C88.5928 25.6118 88.4445 25.5643 88.328 25.469C88.2776 25.4187 88.2379 25.3589 88.211 25.293C88.1871 25.2267 88.1766 25.1564 88.18 25.086C88.1753 25.0146 88.1861 24.9431 88.2117 24.8763C88.2372 24.8095 88.2769 24.749 88.328 24.699C88.4451 24.6056 88.5924 24.5582 88.742 24.566H89.273V21.531C89.2613 21.3794 89.2997 21.2281 89.3823 21.1004C89.4648 20.9727 89.587 20.8756 89.73 20.824C89.8248 20.7885 89.9261 20.7738 90.027 20.781H92.09C92.617 20.7641 93.1407 20.8685 93.621 21.086C94.023 21.266 94.363 21.566 94.586 21.946C94.813 22.34 94.926 22.786 94.914 23.238C94.926 23.676 94.812 24.113 94.582 24.488C94.355 24.848 94.032 25.133 93.641 25.305C93.176 25.515 92.668 25.617 92.161 25.602H90.816V26.398H92.23C92.3805 26.3908 92.5283 26.4396 92.645 26.535C92.699 26.585 92.738 26.645 92.762 26.711C92.789 26.777 92.801 26.851 92.793 26.921C92.7982 26.9918 92.7876 27.0629 92.762 27.1291C92.7364 27.1953 92.6965 27.2551 92.645 27.304C92.5279 27.3982 92.38 27.4456 92.23 27.437H90.816V28.371C90.8326 28.5845 90.7655 28.796 90.629 28.961C90.5508 29.0339 90.4584 29.0899 90.3576 29.1255C90.2567 29.1612 90.1497 29.1756 90.043 29.168ZM90.781 24.566H91.898C92.301 24.59 92.699 24.492 93.043 24.281C93.18 24.171 93.289 24.027 93.359 23.863C93.429 23.699 93.457 23.52 93.438 23.343C93.4534 23.1622 93.4249 22.9804 93.355 22.813C93.2894 22.643 93.1838 22.4914 93.047 22.371C92.7117 22.1363 92.3063 22.0234 91.898 22.051H90.781V24.566Z" fill="white"/>
<path d="M92.434 53.781C92.3708 53.6232 92.2489 53.496 92.094 53.426C91.9374 53.359 91.7607 53.3561 91.602 53.418C91.3241 53.5187 91.0355 53.5868 90.742 53.621C91.0335 52.5312 90.9775 51.3775 90.582 50.321C90.4401 49.7981 90.1367 49.3333 89.7151 48.993C89.2934 48.6527 88.7751 48.4543 88.234 48.426C87.6681 48.3872 87.1033 48.5148 86.609 48.793C86.117 49.074 85.719 49.496 85.465 50.003C85.238 50.512 84.883 51.863 86.465 53.465C86.9626 53.9695 87.56 54.3645 88.219 54.625C87.6241 54.8918 86.9865 55.0506 86.336 55.094C81.96 47.59 72.117 42.352 60.684 42.352C56.628 42.3385 52.6001 43.0242 48.777 44.379C48.59 44.449 48.391 44.477 48.191 44.465C47.9936 44.4495 47.8013 44.3952 47.625 44.305C46.2029 43.5054 44.6199 43.0339 42.992 42.925C41.364 42.8208 39.7333 43.0814 38.219 43.688C37.9627 43.7876 37.7429 43.9631 37.589 44.191C37.414 44.445 37.32 44.75 37.329 45.059C37.336 45.367 37.445 45.668 37.637 45.914L38.395 46.848C38.75 47.293 39.078 47.703 39.371 48.09C39.5867 48.3762 39.6899 48.7315 39.6612 49.0886C39.6324 49.4458 39.4737 49.78 39.215 50.028C38.8896 50.3193 38.5754 50.6229 38.273 50.938C35.6088 53.5301 33.7634 56.8466 32.965 60.477C32.8982 60.8001 32.7233 61.0908 32.469 61.301C32.2119 61.5077 31.8919 61.6206 31.562 61.621C31.105 61.621 28.074 61.434 27.578 62.609C27.086 63.785 30.34 70.957 31.137 71.531C32.4414 72.2225 33.8048 72.7965 35.211 73.246C35.453 73.356 35.661 73.531 35.809 73.758C36.9411 75.4055 38.2846 76.8972 39.805 78.195C40.7183 78.9749 41.6869 79.6878 42.703 80.328C43.641 80.926 44.613 81.473 45.613 81.961C45.7868 82.0376 45.9435 82.1483 46.0737 82.2866C46.2039 82.4249 46.305 82.5879 46.371 82.766L48.367 88.352L49.497 91.523C49.597 91.801 49.781 92.039 50.02 92.211C50.262 92.379 50.55 92.469 50.848 92.469H54.902C55.2708 92.4709 55.626 92.3301 55.8933 92.0761C56.1606 91.822 56.3192 91.4744 56.336 91.106L56.551 86.551C56.5599 86.3618 56.6051 86.1761 56.684 86.004C56.766 85.832 56.883 85.68 57.024 85.554C57.164 85.426 57.328 85.328 57.508 85.27C57.688 85.207 57.875 85.18 58.066 85.191C58.914 85.254 59.773 85.285 60.645 85.285C62.3108 85.2819 63.9746 85.167 65.625 84.941C65.825 84.914 66.023 84.93 66.215 84.984C66.4067 85.0372 66.5849 85.1304 66.7378 85.2577C66.8907 85.3849 67.0149 85.5432 67.102 85.722C67.192 85.898 67.242 86.094 67.25 86.293L67.477 91.105C67.497 91.473 67.652 91.82 67.922 92.075C68.188 92.328 68.543 92.473 68.91 92.469H72.969C73.262 92.473 73.551 92.383 73.793 92.211C74.035 92.043 74.219 91.801 74.316 91.523L78.109 81.003C78.215 80.695 78.422 80.43 78.691 80.246C80.8359 78.8935 82.7575 77.2158 84.387 75.273C85.2132 74.3069 85.9358 73.2568 86.543 72.14C87.6597 70.1596 88.3715 67.977 88.637 65.719C88.711 65.079 88.75 64.438 88.75 63.793C88.7401 61.1856 88.1347 58.6149 86.98 56.277C88.0844 56.1561 89.1209 55.6839 89.937 54.93C90.6638 54.9592 91.3892 54.8422 92.07 54.586C92.2232 54.5259 92.3466 54.4081 92.414 54.258C92.4811 54.1073 92.4883 53.9367 92.434 53.781ZM89.355 53.601C88.6048 53.4636 87.9158 53.0967 87.383 52.551C86.625 51.793 86.391 51.094 86.625 50.535C86.7639 50.2814 86.9692 50.0706 87.219 49.925C87.4683 49.7777 87.7535 49.7023 88.043 49.707H88.133C88.414 49.719 88.688 49.82 88.906 50C89.121 50.18 89.277 50.426 89.34 50.7C89.727 51.629 89.734 52.667 89.355 53.601Z" fill="url(#paint11_linear_3_7)"/>
<path d="M41.297 55.766H41.289C40.316 55.766 39.531 56.555 39.531 57.523V57.535C39.531 58.504 40.316 59.293 41.289 59.293H41.297C42.27 59.293 43.059 58.503 43.059 57.535V57.523C43.059 56.555 42.269 55.766 41.297 55.766Z" fill="url(#paint12_linear_3_7)"/>
<mask id="mask6_3_7" style="mask-type:luminance" maskUnits="userSpaceOnUse" x="0" y="0" width="120" height="120">
<path d="M0 0H120V120H0V0Z" fill="black" fill-opacity="0.741176"/>
</mask>
<g mask="url(#mask6_3_7)">
<mask id="mask7_3_7" style="mask-type:luminance" maskUnits="userSpaceOnUse" x="0" y="0" width="121" height="121">
<path d="M0 0H121V121H0V0Z" fill="white"/>
</mask>
<g mask="url(#mask7_3_7)">
<mask id="mask8_3_7" style="mask-type:luminance" maskUnits="userSpaceOnUse" x="0" y="0" width="121" height="121">
<path d="M0 0H121V121H0V0Z" fill="black" fill-opacity="0.741176"/>
</mask>
<g mask="url(#mask8_3_7)">
<mask id="mask9_3_7" style="mask-type:luminance" maskUnits="userSpaceOnUse" x="0" y="0" width="121" height="121">
<path d="M0 0H121V121H0V0Z" fill="white"/>
</mask>
<g mask="url(#mask9_3_7)">
<path d="M72.883 50.254C72.762 50.254 72.641 50.234 72.523 50.195C68.7271 49.0854 64.7947 48.5122 60.84 48.492C57.1887 48.4489 53.5562 49.0196 50.094 50.18C49.8116 50.2855 49.4992 50.2769 49.223 50.156C48.9467 50.0314 48.7295 49.8045 48.617 49.523C48.5648 49.3834 48.5396 49.2351 48.543 49.086C48.547 48.938 48.578 48.789 48.641 48.652C48.699 48.516 48.789 48.391 48.898 48.289C49.004 48.187 49.133 48.105 49.273 48.051C52.9954 46.7819 56.9076 46.1595 60.84 46.211C65.035 46.223 69.207 46.832 73.23 48.027C73.4893 48.1113 73.7104 48.2846 73.8541 48.5164C73.9978 48.7481 74.0548 49.0233 74.015 49.293C73.973 49.563 73.832 49.805 73.625 49.984C73.4186 50.1611 73.1549 50.2571 72.883 50.254Z" fill="url(#paint13_linear_3_7)"/>
</g>
</g>
</g>
</g>
<path d="M75.531 34.566C75.5339 37.2193 74.751 39.8141 73.281 42.023C71.809 44.2318 69.7151 45.9544 67.2641 46.9731C64.813 47.9918 62.1149 48.2608 59.511 47.746C56.9075 47.2303 54.5156 45.9535 52.6382 44.0774C50.7609 42.2012 49.4825 39.8102 48.965 37.207C48.448 34.6046 48.7138 31.9074 49.7288 29.4561C50.7439 27.0047 52.4626 24.9091 54.668 23.434C56.8762 21.9616 59.4709 21.1759 62.125 21.176C63.8872 21.1654 65.6341 21.5041 67.2646 22.1724C68.8952 22.8408 70.3772 23.8256 71.625 25.07C72.8713 26.3161 73.8583 27.797 74.5287 29.427C75.1992 31.0569 75.5398 32.8036 75.531 34.566Z" fill="url(#paint14_linear_3_7)"/>
<path d="M74.824 34.582C74.8253 37.095 74.0805 39.5518 72.684 41.641C71.2898 43.732 69.3065 45.3622 66.9851 46.3252C64.6638 47.2883 62.1089 47.5409 59.644 47.051C57.1794 46.5603 54.9155 45.3506 53.1378 43.5744C51.3602 41.7982 50.1486 39.5352 49.656 37.071C49.2891 35.2282 49.3355 33.327 49.7918 31.5043C50.2481 29.6816 51.1029 27.9827 52.2947 26.5301C53.4865 25.0775 54.9856 23.9073 56.6841 23.1037C58.3825 22.3001 60.238 21.8832 62.117 21.883C64.6354 21.8601 67.1028 22.5931 69.2002 23.9871C71.2977 25.3811 72.9289 27.3722 73.883 29.703C74.516 31.25 74.836 32.91 74.824 34.582Z" fill="url(#paint15_linear_3_7)"/>
<path d="M59.656 43.05C59.44 43.0651 59.2233 43.0344 59.02 42.96C58.816 42.89 58.629 42.781 58.473 42.637C58.3234 42.476 58.209 42.2856 58.137 42.078C58.0657 41.8726 58.0365 41.6549 58.051 41.438V39.558H56.945C56.625 39.578 56.309 39.48 56.062 39.285C55.8725 39.0779 55.767 38.8077 55.766 38.527C55.766 38.25 55.871 37.98 56.063 37.77C56.305 37.566 56.621 37.46 56.945 37.473H58.051V35.859H56.945C56.625 35.879 56.309 35.781 56.062 35.586C55.8725 35.3789 55.767 35.1087 55.766 34.828C55.766 34.551 55.871 34.281 56.063 34.07C56.305 33.863 56.621 33.758 56.945 33.77H58.051V27.645C58.0237 27.4393 58.0463 27.2301 58.117 27.035C58.1884 26.8376 58.3048 26.6595 58.457 26.515C58.609 26.367 58.793 26.258 58.997 26.191C59.203 26.125 59.418 26.101 59.633 26.129H63.961C65.0706 26.0977 66.1738 26.3068 67.195 26.742C68.027 27.117 68.723 27.722 69.191 28.477C69.668 29.277 69.906 30.187 69.879 31.109C69.9003 31.9978 69.6585 32.8731 69.184 33.625C68.6963 34.3468 68.0154 34.9169 67.219 35.27C66.2359 35.6895 65.1735 35.8908 64.105 35.86H61.27V37.473H64.23C64.55 37.453 64.867 37.551 65.117 37.746C65.3083 37.9521 65.4146 38.2228 65.4146 38.504C65.4146 38.7852 65.3083 39.056 65.117 39.262C64.867 39.457 64.551 39.555 64.23 39.535H61.27V41.415C61.312 41.852 61.18 42.289 60.898 42.637C60.734 42.785 60.539 42.902 60.324 42.973C60.1097 43.0475 59.8817 43.0732 59.656 43.05ZM61.238 33.77H63.605C64.4342 33.814 65.2583 33.6159 65.977 33.2C66.27 32.977 66.5 32.684 66.645 32.355C66.7925 32.0259 66.8514 31.6639 66.816 31.305C66.852 30.941 66.796 30.575 66.66 30.23C66.5207 29.8862 66.3025 29.58 66.023 29.336C65.3145 28.8573 64.4659 28.6302 63.613 28.691H61.246L61.238 33.77Z" fill="url(#paint16_linear_3_7)"/>
<path d="M40.617 48.934C40.6407 48.7464 40.6247 48.556 40.57 48.375C40.5164 48.1923 40.4243 48.0232 40.3 47.879C39.98 47.469 39.625 47.079 39.238 46.566L38.453 45.582C38.245 45.3275 38.1272 45.0111 38.1182 44.6825C38.1091 44.3539 38.2093 44.0316 38.403 43.766C40.145 44.18 42.41 45.027 42.93 46.621V46.703C43.566 48.645 41.715 50.247 40.617 48.934Z" fill="url(#paint17_linear_3_7)"/>
<mask id="mask10_3_7" style="mask-type:luminance" maskUnits="userSpaceOnUse" x="0" y="0" width="120" height="120">
<path d="M0 0H120V120H0V0Z" fill="black" fill-opacity="0.2"/>
</mask>
<g mask="url(#mask10_3_7)">
<mask id="mask11_3_7" style="mask-type:luminance" maskUnits="userSpaceOnUse" x="0" y="0" width="121" height="121">
<path d="M0 0H121V121H0V0Z" fill="white"/>
</mask>
<g mask="url(#mask11_3_7)">
<path d="M86.824 72C86.344 72.875 85.797 73.71 85.18 74.5C85.004 74.719 84.828 74.941 84.645 75.156C82.9922 77.111 81.0473 78.7989 78.879 80.16C78.6026 80.3436 78.394 80.6126 78.285 80.926L74.449 91.516C74.348 91.796 74.16 92.039 73.918 92.211C73.672 92.383 73.378 92.473 73.082 92.469H69.012C68.6392 92.4715 68.2799 92.3298 68.0091 92.0736C67.7383 91.8173 67.577 91.4664 67.559 91.094L67.332 86.25C67.3207 86.05 67.2687 85.8543 67.1793 85.675C67.0899 85.4957 66.9649 85.3365 66.812 85.207C66.6567 85.0791 66.4765 84.9849 66.2828 84.9305C66.0891 84.8761 65.8862 84.8626 65.687 84.891C64.0159 85.1184 62.3315 85.233 60.645 85.234C59.762 85.234 58.891 85.234 58.031 85.144C57.8405 85.1296 57.6491 85.1552 57.469 85.219C57.285 85.281 57.121 85.379 56.977 85.504C56.8344 85.6322 56.7188 85.7875 56.637 85.961C56.551 86.133 56.504 86.321 56.497 86.511L56.281 91.094C56.2637 91.4661 56.1031 91.8171 55.8328 92.0734C55.5625 92.3297 55.2035 92.4715 54.831 92.469H50.707C50.41 92.469 50.117 92.379 49.871 92.207C49.6268 92.0371 49.4413 91.7957 49.34 91.516L48.2 88.32L46.18 82.7C46.1106 82.5202 46.007 82.3555 45.875 82.215C45.746 82.075 45.585 81.965 45.41 81.887C44.3973 81.395 43.4124 80.8475 42.46 80.247C41.4329 79.6021 40.454 78.8836 39.531 78.097C40.004 78.195 47.789 79.887 61.289 79.887C75.04 79.84 86.47 72.223 86.824 72Z" fill="url(#paint18_linear_3_7)"/>
</g>
</g>
</g>
<defs>
<linearGradient id="paint0_linear_3_7" x1="33.4728" y1="88.0938" x2="84.875" y2="33.6493" gradientUnits="userSpaceOnUse">
<stop stop-color="#D9F6FF"/>
<stop offset="1" stop-color="#BFF5FF"/>
</linearGradient>
<linearGradient id="paint1_linear_3_7" x1="57.3245" y1="98.3361" x2="58.708" y2="99.7055" gradientUnits="userSpaceOnUse">
<stop stop-color="#8AE9F2"/>
<stop offset="1" stop-color="#51D1E0"/>
</linearGradient>
<linearGradient id="paint2_linear_3_7" x1="38.666" y1="23.6773" x2="44.3646" y2="25.3397" gradientUnits="userSpaceOnUse">
<stop stop-color="#8AE9F2"/>
<stop offset="1" stop-color="#51D1E0"/>
</linearGradient>
<linearGradient id="paint3_linear_3_7" x1="33.1382" y1="86.8748" x2="38.8439" y2="88.5385" gradientUnits="userSpaceOnUse">
<stop stop-color="#8AE9F2"/>
<stop offset="1" stop-color="#51D1E0"/>
</linearGradient>
<linearGradient id="paint4_linear_3_7" x1="22.8564" y1="59.5904" x2="20.9082" y2="57.6563" gradientUnits="userSpaceOnUse">
<stop stop-color="#00C297"/>
<stop offset="1" stop-color="#28CCDE"/>
</linearGradient>
<linearGradient id="paint5_linear_3_7" x1="98.3997" y1="67.1299" x2="96.4514" y2="65.1958" gradientUnits="userSpaceOnUse">
<stop stop-color="#00A580"/>
<stop offset="1" stop-color="#28CCDE"/>
</linearGradient>
<linearGradient id="paint6_linear_3_7" x1="83.0891" y1="93.3604" x2="81.1338" y2="91.4263" gradientUnits="userSpaceOnUse">
<stop stop-color="#00A580"/>
<stop offset="1" stop-color="#28CCDE"/>
</linearGradient>
<linearGradient id="paint7_linear_3_7" x1="93.755" y1="49.214" x2="111.96" y2="31.1152" gradientUnits="userSpaceOnUse">
<stop stop-color="#00A580"/>
<stop offset="1" stop-color="#28CCDE"/>
</linearGradient>
<linearGradient id="paint8_linear_3_7" x1="84.8327" y1="25.0164" x2="97.6303" y2="25.0164" gradientUnits="userSpaceOnUse">
<stop stop-color="#8AE9F2"/>
<stop offset="1" stop-color="#51D1E0"/>
</linearGradient>
<linearGradient id="paint9_linear_3_7" x1="26.5905" y1="46.334" x2="48.8681" y2="46.334" gradientUnits="userSpaceOnUse">
<stop stop-color="#8AE9F2"/>
<stop offset="1" stop-color="#51D1E0"/>
</linearGradient>
<linearGradient id="paint10_linear_3_7" x1="38.781" y1="53.9003" x2="37.9622" y2="41.4203" gradientUnits="userSpaceOnUse">
<stop stop-color="white"/>
<stop offset="1" stop-color="white" stop-opacity="0.8"/>
</linearGradient>
<linearGradient id="paint11_linear_3_7" x1="59.992" y1="38.3766" x2="59.992" y2="72.9668" gradientUnits="userSpaceOnUse">
<stop stop-color="#8AE9F2"/>
<stop offset="1" stop-color="#51D1E0"/>
</linearGradient>
<linearGradient id="paint12_linear_3_7" x1="41.2982" y1="55.5351" x2="41.2982" y2="57.3287" gradientUnits="userSpaceOnUse">
<stop stop-color="white"/>
<stop offset="1" stop-color="white" stop-opacity="0.8"/>
</linearGradient>
<linearGradient id="paint13_linear_3_7" x1="48.5427" y1="48.2335" x2="74.0221" y2="48.2335" gradientUnits="userSpaceOnUse">
<stop stop-color="#00C297"/>
<stop offset="1" stop-color="#27B5C4"/>
</linearGradient>
<linearGradient id="paint14_linear_3_7" x1="62.1174" y1="19.3764" x2="62.1174" y2="33.0528" gradientUnits="userSpaceOnUse">
<stop stop-color="white"/>
<stop offset="1" stop-color="white" stop-opacity="0.8"/>
</linearGradient>
<linearGradient id="paint15_linear_3_7" x1="49.4038" y1="34.5881" x2="74.8148" y2="34.5881" gradientUnits="userSpaceOnUse">
<stop stop-color="#8AE9F2"/>
<stop offset="1" stop-color="#51D1E0"/>
</linearGradient>
<linearGradient id="paint16_linear_3_7" x1="63.3852" y1="43.113" x2="62.5127" y2="29.1931" gradientUnits="userSpaceOnUse">
<stop stop-color="white"/>
<stop offset="1" stop-color="white" stop-opacity="0.8"/>
</linearGradient>
<linearGradient id="paint17_linear_3_7" x1="40.5994" y1="43.3163" x2="40.5994" y2="47.2128" gradientUnits="userSpaceOnUse">
<stop stop-color="#8AE9F2"/>
<stop offset="1" stop-color="#51D1E0"/>
</linearGradient>
<linearGradient id="paint18_linear_3_7" x1="65.8713" y1="87.1367" x2="63.7177" y2="77.3059" gradientUnits="userSpaceOnUse">
<stop stop-color="#00C297"/>
<stop offset="1" stop-color="#27B5C4"/>
</linearGradient>
<clipPath id="clip0_3_7">
<rect width="120" height="120" fill="white"/>
</clipPath>
</defs>
</svg>
