<svg width="24" height="24" viewBox="0 0 24 24" fill="none" xmlns="http://www.w3.org/2000/svg">
<path d="M18 4.2L12.96 12.94L12.8 13.22V13.54V19.06L11.2 18.26V13.54V13.22L11.04 12.94L5.99997 4.2H18ZM18.56 3H5.43997C4.75997 3 4.33997 3.73 4.67997 4.32L9.99997 13.54V18.52C9.99997 18.82 10.17 19.09 10.43 19.22L12.86 20.44C12.97 20.5 13.09 20.52 13.21 20.52C13.62 20.52 13.99 20.19 13.99 19.74V13.54L19.31 4.32C19.66 3.73 19.24 3 18.56 3Z" fill="#666666"/>
<path d="M11.8001 11.2C11.5901 11.2 11.3901 11.09 11.2801 10.9L8.38009 5.90004C8.21009 5.61004 8.31009 5.25004 8.60009 5.08004C8.89009 4.91004 9.25008 5.01004 9.42008 5.30004L12.3201 10.3C12.4901 10.59 12.3901 10.95 12.1001 11.12C12.0101 11.17 11.9001 11.2 11.8001 11.2Z" fill="#666666"/>
</svg>
