<svg width="17" height="16" viewBox="0 0 17 16" fill="none" xmlns="http://www.w3.org/2000/svg">
<path fill-rule="evenodd" clip-rule="evenodd" d="M3.54873 6.96697V6.97297C3.5951 8.26348 4.04173 9.50761 4.82673 10.533C5.75467 11.7721 6.89335 12.8384 8.19073 13.683C8.21462 13.6983 8.23735 13.7153 8.25873 13.734C8.26258 13.7374 8.26756 13.7393 8.27273 13.7393C8.27789 13.7393 8.28288 13.7374 8.28673 13.734C8.30896 13.7152 8.33234 13.6978 8.35673 13.682C9.22705 13.1197 10.0297 12.459 10.7487 11.713C12.0107 10.38 12.9667 8.74897 13.0007 7.05197V6.99997C13.0051 5.74602 12.5112 4.5417 11.6276 3.65193C11.1901 3.21136 10.6701 2.86128 10.0973 2.62168C9.5245 2.38207 8.91012 2.25763 8.28923 2.25546C7.66834 2.2533 7.0531 2.37344 6.47864 2.60905C5.90419 2.84465 5.38176 3.19109 4.94119 3.6286C4.05143 4.51217 3.5491 5.71302 3.54473 6.96697H3.54873ZM2.29272 6.96697C2.29803 5.37991 2.93357 3.85996 4.05954 2.74149C5.18551 1.62303 6.70967 0.997659 8.29673 1.00296C9.88378 1.00827 11.4037 1.64381 12.5222 2.76978C13.6407 3.89575 14.266 5.41991 14.2607 7.00697V7.07897C14.2197 9.22397 13.0297 11.144 11.6607 12.588C10.8837 13.3954 10.0168 14.1111 9.07673 14.721C8.85065 14.9018 8.56975 15.0004 8.28023 15.0004C7.99071 15.0004 7.7098 14.9018 7.48373 14.721C6.07579 13.8004 4.83981 12.6406 3.83173 11.294C2.8852 10.0592 2.34755 8.55985 2.29372 7.00497C2.29323 6.99798 2.29323 6.99096 2.29372 6.98397V6.96297L2.29272 6.96697Z" fill="#51d1e0"/>
<path fill-rule="evenodd" clip-rule="evenodd" d="M8.2764 5.98063C8.06101 5.98063 7.85047 6.0445 7.67138 6.16416C7.4923 6.28383 7.35272 6.4539 7.27029 6.65289C7.18787 6.85188 7.1663 7.07084 7.20832 7.28209C7.25034 7.49333 7.35406 7.68738 7.50636 7.83967C7.65866 7.99197 7.8527 8.09569 8.06394 8.13771C8.27519 8.17973 8.49415 8.15816 8.69314 8.07574C8.89213 7.99332 9.06221 7.85374 9.18187 7.67465C9.30153 7.49557 9.3654 7.28502 9.3654 7.06964C9.3654 6.78081 9.25066 6.50382 9.04644 6.2996C8.84221 6.09537 8.56522 5.98063 8.2764 5.98063ZM5.9314 7.06964C5.9312 6.6058 6.06856 6.15231 6.32611 5.76655C6.58367 5.38078 6.94984 5.08006 7.37831 4.90242C7.80679 4.72478 8.27832 4.6782 8.73327 4.76857C9.18822 4.85894 9.60616 5.0822 9.93421 5.41012C10.2623 5.73803 10.4857 6.15587 10.5763 6.61078C10.6668 7.06569 10.6205 7.53725 10.443 7.9658C10.2655 8.39435 9.96497 8.76065 9.57931 9.01836C9.19366 9.27608 8.74024 9.41364 8.2764 9.41364C7.65464 9.41364 7.05833 9.16671 6.61858 8.72715C6.17884 8.2876 5.93166 7.69139 5.9314 7.06964Z" fill="#51d1e0"/>
</svg>
