<svg width="164" height="133" viewBox="0 0 164 133" fill="none" xmlns="http://www.w3.org/2000/svg">
<path opacity="0.42" d="M81 130C116.899 130 146 100.899 146 65C146 29.1015 116.899 0 81 0C45.1015 0 16 29.1015 16 65C16 100.899 45.1015 130 81 130Z" fill="url(#paint0_linear_1_27025)"/>
<path d="M72.2416 17.1653L68.6479 14.0182C68.5764 13.9605 68.5174 13.8887 68.4746 13.8072C68.4319 13.7258 68.4061 13.6363 68.3991 13.5444C68.3921 13.4525 68.4039 13.3601 68.4338 13.2728C68.4636 13.1855 68.511 13.1053 68.5728 13.0369C68.6307 12.9653 68.7039 12.9075 68.7869 12.868C68.87 12.8284 68.9608 12.8081 69.0526 12.8086L73.7731 12.4433C73.9552 12.4283 74.1258 12.3471 74.2529 12.2149L77.4468 8.64879C77.5711 8.51073 77.7443 8.42717 77.9292 8.41622C78.114 8.40528 78.2955 8.46782 78.4344 8.5903C78.5039 8.64687 78.5605 8.71775 78.6004 8.79818C78.6403 8.87861 78.6625 8.96672 78.6656 9.05659L78.9976 13.8025C78.9974 13.964 79.0535 14.1205 79.1563 14.2445L82.779 17.4013C82.8488 17.46 82.9059 17.5324 82.9469 17.614C82.9879 17.6955 83.012 17.7847 83.0177 17.876C83.0233 17.9673 83.0105 18.0588 82.9798 18.145C82.9492 18.2313 82.9015 18.3104 82.8396 18.3777C82.783 18.4476 82.7122 18.5046 82.632 18.5449C82.5517 18.5851 82.4639 18.6077 82.3743 18.611L77.5812 18.9519C77.4043 18.9741 77.2401 19.0565 77.116 19.1852L73.9946 22.7756C73.8704 22.9137 73.697 22.9972 73.5122 23.0081C73.3273 23.0191 73.1459 22.9566 73.007 22.8341C72.937 22.7758 72.8793 22.7042 72.8371 22.6233C72.7949 22.5424 72.7692 22.4539 72.7613 22.3629L72.497 17.6073C72.466 17.4344 72.3756 17.278 72.2416 17.1653Z" fill="url(#paint1_linear_1_27025)"/>
<path d="M38.6086 122.217C39.4971 122.217 40.2173 121.497 40.2173 120.609C40.2173 119.72 39.4971 119 38.6086 119C37.7202 119 37 119.72 37 120.609C37 121.497 37.7202 122.217 38.6086 122.217Z" fill="url(#paint2_linear_1_27025)"/>
<path d="M95.4952 127.704L97.7714 128.665C97.8388 128.691 97.8967 128.738 97.9375 128.798C97.9782 128.858 98 128.929 98 129.002C98 129.075 97.9782 129.146 97.9375 129.206C97.8967 129.266 97.8388 129.312 97.7714 129.339L95.4952 130.291C95.408 130.328 95.3386 130.398 95.302 130.485L94.3109 132.778C94.2704 132.867 94.1971 132.937 94.1062 132.973C94.0154 133.009 93.9142 133.009 93.8238 132.972C93.7384 132.932 93.6699 132.864 93.6305 132.778L92.6898 130.485C92.6562 130.407 92.6008 130.339 92.5302 130.291L90.2205 129.339C90.1327 129.302 90.0633 129.231 90.0271 129.143C89.9909 129.055 89.991 128.955 90.0273 128.867C90.0426 128.821 90.0679 128.779 90.1013 128.744C90.1347 128.709 90.1754 128.682 90.2205 128.665L92.5302 127.704C92.5742 127.687 92.6141 127.661 92.6474 127.628C92.6807 127.594 92.7066 127.554 92.7235 127.51L93.6726 125.226C93.7009 125.159 93.7483 125.102 93.8088 125.062C93.8693 125.021 93.9402 125 94.0127 125C94.0853 125 94.1562 125.021 94.2167 125.062C94.2772 125.102 94.3246 125.159 94.3529 125.226L95.302 127.51C95.3174 127.555 95.3427 127.596 95.3762 127.629C95.4097 127.663 95.4504 127.688 95.4952 127.704Z" fill="url(#paint3_linear_1_27025)"/>
<path d="M135.5 71C136.328 71 137 70.3284 137 69.5C137 68.6716 136.328 68 135.5 68C134.672 68 134 68.6716 134 69.5C134 70.3284 134.672 71 135.5 71Z" fill="url(#paint4_linear_1_27025)"/>
<path d="M124.5 83C125.328 83 126 82.3284 126 81.5C126 80.6716 125.328 80 124.5 80C123.672 80 123 80.6716 123 81.5C123 82.3284 123.672 83 124.5 83Z" stroke="url(#paint5_linear_1_27025)" stroke-width="0.89" stroke-miterlimit="10"/>
<path d="M82.5 37C83.3284 37 84 36.3284 84 35.5C84 34.6716 83.3284 34 82.5 34C81.6716 34 81 34.6716 81 35.5C81 36.3284 81.6716 37 82.5 37Z" stroke="url(#paint6_linear_1_27025)" stroke-width="0.89" stroke-miterlimit="10"/>
<path d="M9.57587 63.7871L13.261 65.6191L11.0745 69.0989L7.09332 75.433L12.8115 82.6925L19.9215 80.2976L23.759 78.9991L24.6414 82.9355L26.3081 90.2747C29.2947 91.0862 32.3847 91.4528 35.4782 91.363L38.8685 84.5011L40.6205 80.9794L43.9176 83.0627L50.3855 87.0996C53.0739 85.5617 55.5201 83.6348 57.645 81.3814L55.1413 74.0684L53.9197 70.4308L57.6996 69.6188L65.2241 67.9166L66.3229 58.7475L59.3985 55.3405L55.9691 53.6295L58.0145 50.3929L62.1317 43.8686C60.5964 41.1813 58.6688 38.7381 56.4125 36.6197L49.1597 39.0543L45.4671 40.2919L44.5754 36.4509L42.8861 29.0132C39.8995 28.2019 36.8096 27.8352 33.716 27.925L30.4113 34.6774L28.6309 38.2713L25.2021 36.111L18.8488 32.1066C16.1624 33.6476 13.7166 35.5742 11.5893 37.8248L13.967 44.8903L15.2721 48.7713L11.2594 49.6678L4.01766 51.3225C3.19795 54.3036 2.82793 57.3905 2.91984 60.481L9.57587 63.7871ZM22.9241 58.496C23.1448 56.2094 24.0384 54.0395 25.4921 52.2606C26.9458 50.4818 28.8942 49.1739 31.0911 48.5022C33.288 47.8305 35.6347 47.8252 37.8346 48.487C40.0345 49.1488 41.9888 50.4479 43.4505 52.2202C44.9121 53.9925 45.8156 56.1583 46.0465 58.444C46.2775 60.7296 45.8257 63.0324 44.7481 65.0613C43.6706 67.0902 42.0157 68.754 39.9927 69.8426C37.9697 70.9311 35.6694 71.3954 33.3825 71.1769C31.8634 71.0317 30.3878 70.5883 29.0402 69.8722C27.6927 69.1561 26.4995 68.1813 25.5291 67.0036C24.5587 65.8259 23.83 64.4683 23.3849 63.0087C22.9397 61.549 22.7867 60.0159 22.9347 58.4971L22.9241 58.496Z" fill="url(#paint7_linear_1_27025)"/>
<path d="M9.34609 57.1861C9.13668 59.3873 9.21381 61.6063 9.57555 63.7875C9.87321 65.6057 10.3763 67.3841 11.0752 69.0887C13.2442 74.4507 17.187 78.9062 22.2453 81.7113C27.3036 84.5165 33.1712 85.5013 38.8681 84.5015C40.5979 84.2044 42.2907 83.7221 43.9173 83.0632C48.4559 81.2351 52.3673 78.1308 55.1783 74.1259C56.1751 72.7167 57.0201 71.2061 57.6993 69.6193C58.7376 67.2017 59.3964 64.6383 59.6523 62.0196C59.8711 59.7817 59.7867 57.5245 59.4013 55.3091C59.1141 53.6261 58.6491 51.9782 58.0142 50.3933C56.2268 45.837 53.1542 41.8982 49.1699 39.0557C47.7459 38.0332 46.2153 37.1681 44.6048 36.4756C42.1692 35.397 39.5773 34.7135 36.9265 34.4508C33.6218 34.1276 30.2859 34.4598 27.1098 35.4283C23.9337 36.3967 20.98 37.9824 18.4178 40.0944C15.8557 42.2065 13.7355 44.8034 12.1788 47.7363C10.6221 50.6692 9.65947 53.8805 9.34609 57.1861ZM22.9344 58.4975C23.1551 56.2104 24.049 54.0401 25.5032 52.2611C26.9574 50.482 28.9064 49.1742 31.1039 48.5028C33.3014 47.8315 35.6486 47.8269 37.8487 48.4896C40.0488 49.1522 42.003 50.4524 43.4641 52.2258C44.9253 53.9991 45.8278 56.1658 46.0575 58.452C46.2872 60.7382 45.8338 63.0412 44.7547 65.0698C43.6755 67.0983 42.0191 68.7613 39.9948 69.8484C37.9705 70.9356 35.6693 71.398 33.3822 71.1773C31.8631 71.0321 30.3875 70.5888 29.0399 69.8727C27.6924 69.1566 26.4992 68.1817 25.5288 67.004C24.5584 65.8263 23.8297 64.4687 23.3845 63.0091C22.9393 61.5494 22.7864 60.0163 22.9344 58.4975Z" fill="url(#paint8_linear_1_27025)"/>
<path d="M53.1398 61.2192C53.4857 57.6458 52.8126 54.0475 51.1983 50.8409C49.584 47.6342 47.0946 44.9503 44.0182 43.0998C40.9418 41.2493 37.4042 40.3079 33.815 40.3845C30.2257 40.4611 26.7315 41.5527 23.7369 43.5328" stroke="#E1FCFF" stroke-width="0.915772" stroke-miterlimit="10" stroke-linecap="round"/>
<path d="M46.6792 73.7552C47.7795 72.8039 48.7663 71.7289 49.6201 70.5514" stroke="#E1FCFF" stroke-width="0.915772" stroke-miterlimit="10" stroke-linecap="round"/>
<path d="M15.7295 63.8672C16.4292 66.7677 17.8015 69.4629 19.7355 71.735C21.6695 74.007 24.111 75.7921 26.8625 76.946C29.6141 78.0999 32.5986 78.5902 35.5747 78.3773C38.5508 78.1644 41.4351 77.2542 43.9944 75.7203" stroke="#E1FCFF" stroke-width="0.915772" stroke-miterlimit="10" stroke-linecap="round"/>
<path d="M15.2236 60.2451C15.2745 61.466 15.444 62.6791 15.7299 63.8671" stroke="#E1FCFF" stroke-width="0.915772" stroke-miterlimit="10" stroke-linecap="round"/>
<path d="M15.291 57.5664C15.2039 58.4566 15.1818 59.3519 15.2251 60.2452" stroke="#E1FCFF" stroke-width="0.915772" stroke-miterlimit="10" stroke-linecap="round"/>
<path d="M20.8238 45.8939C18.7127 47.9916 17.127 50.5584 16.1961 53.3852" stroke="#E1FCFF" stroke-width="0.915772" stroke-miterlimit="10" stroke-linecap="round"/>
<rect x="15.0068" y="47.0469" width="100" height="66.3043" rx="3.26087" fill="url(#paint9_linear_1_27025)"/>
<path d="M34.499 113.351C34.499 113.351 70.2601 111.34 87.499 98.5C102.446 87.3671 115.007 59.5 115.007 59.5V110.09C115.007 111.891 113.547 113.351 111.746 113.351H34.499Z" fill="url(#paint10_linear_1_27025)"/>
<path d="M26 85H66" stroke="url(#paint11_linear_1_27025)" stroke-width="4" stroke-linecap="round" stroke-linejoin="round"/>
<path d="M89 85L104 85" stroke="url(#paint12_linear_1_27025)" stroke-width="4" stroke-linecap="round" stroke-linejoin="round"/>
<path d="M26 94H68" stroke="url(#paint13_linear_1_27025)" stroke-width="4" stroke-linecap="round" stroke-linejoin="round"/>
<path d="M82 94L104 94" stroke="url(#paint14_linear_1_27025)" stroke-width="4" stroke-linecap="round" stroke-linejoin="round"/>
<path d="M26 102H104" stroke="url(#paint15_linear_1_27025)" stroke-width="4" stroke-linecap="round" stroke-linejoin="round"/>
<rect x="23.999" y="64" width="20" height="14" rx="2" fill="white"/>
<rect x="23.999" y="64" width="20" height="14" rx="2" stroke="url(#paint16_linear_1_27025)"/>
<rect x="23.999" y="64" width="20" height="14" rx="2" stroke="url(#paint17_linear_1_27025)"/>
<path d="M15.0068 50.3077C15.0068 48.5068 16.4668 47.0469 18.2677 47.0469H111.746C113.547 47.0469 115.007 48.5068 115.007 50.3077V53.5686H15.0068V50.3077Z" fill="url(#paint18_linear_1_27025)"/>
<path d="M98.7429 27.1815C99.558 25.4287 101.64 24.6686 103.392 25.4836C105.145 26.2987 105.905 28.3803 105.09 30.1331L79.7366 84.6547C78.5145 87.2827 76.2976 89.3171 73.5744 90.3094C73.3567 90.3887 73.1159 90.2767 73.0363 90.0591C72.0402 87.3373 72.1672 84.3311 73.3893 81.703L98.7429 27.1815Z" fill="url(#paint19_linear_1_27025)"/>
<path d="M98.7429 27.1815C99.558 25.4287 101.64 24.6686 103.392 25.4836C105.145 26.2987 105.905 28.3803 105.09 30.1331L79.7366 84.6547C78.5145 87.2827 76.2976 89.3171 73.5744 90.3094C73.3567 90.3887 73.1159 90.2767 73.0363 90.0591C72.0402 87.3373 72.1672 84.3311 73.3893 81.703L98.7429 27.1815Z" fill="url(#paint20_linear_1_27025)"/>
<path d="M100.083 28.3503C100.27 26.3754 102.372 25.0092 104.171 25.8457C105.494 26.4608 106.067 28.0317 105.452 29.3544L83.7608 76.001C83.7608 76.001 98.3809 46.3171 100.083 28.3503Z" fill="#4FCCDB"/>
<path d="M72.399 86.0009L77.3989 88.0006C76.3973 89.2385 74.4266 90.0264 73.5814 90.3209C73.3511 90.4012 73.1049 90.2912 73.0135 90.065C72.7046 89.3005 72.1029 87.5363 72.399 86.0009Z" fill="#30A2BE"/>
<path d="M73.5 81.5C73.5 81.5 75.6771 81.9798 77 82.5C78.2188 82.9793 80 83.999 80 83.999M75 78C75 78 77.1771 78.4796 78.5 79C79.7189 79.4795 81.5 80.5 81.5 80.5M76.5 75C76.5 75 78.6771 75.4796 80 76C81.2189 76.4795 83 77.5 83 77.5" stroke="#66D8E3"/>
<circle r="1.08696" transform="matrix(-1 0 0 1 19.3544 50.3086)" fill="#0097A7"/>
<circle opacity="0.7" r="1.08696" transform="matrix(-1 0 0 1 22.6152 50.3086)" fill="#0097A7"/>
<circle opacity="0.4" r="1.08696" transform="matrix(-1 0 0 1 25.8759 50.3086)" fill="#0097A7"/>
<path d="M121 43.5003C125.5 38.0003 157.324 30.0827 162 38.5C166.676 46.9173 144 54 128.5 31" stroke="url(#paint21_linear_1_27025)" stroke-width="2" stroke-linecap="round" stroke-linejoin="round" stroke-dasharray="4.91 4.91"/>
<path d="M125.395 23.7898C130.584 23.7898 134.79 19.5836 134.79 14.3949C134.79 9.20624 130.584 5 125.395 5C120.206 5 116 9.20624 116 14.3949C116 19.5836 120.206 23.7898 125.395 23.7898Z" fill="url(#paint22_linear_1_27025)"/>
<mask id="mask0_1_27025" style="mask-type:alpha" maskUnits="userSpaceOnUse" x="116" y="5" width="19" height="19">
<path d="M125.395 23.7898C130.584 23.7898 134.79 19.5836 134.79 14.3949C134.79 9.20624 130.584 5 125.395 5C120.206 5 116 9.20624 116 14.3949C116 19.5836 120.206 23.7898 125.395 23.7898Z" fill="url(#paint23_linear_1_27025)"/>
</mask>
<g mask="url(#mask0_1_27025)">
<path d="M122.134 16.5C122.519 15.8333 123.481 15.8333 123.866 16.5L133.392 33C133.777 33.6667 133.296 34.5 132.526 34.5H113.474C112.704 34.5 112.223 33.6667 112.608 33L122.134 16.5Z" fill="url(#paint24_linear_1_27025)"/>
<path d="M129.634 12.5C130.019 11.8333 130.981 11.8333 131.366 12.5L143.057 32.75C143.442 33.4167 142.961 34.25 142.191 34.25H118.809C118.039 34.25 117.558 33.4167 117.943 32.75L129.634 12.5Z" fill="url(#paint25_linear_1_27025)"/>
</g>
<circle cx="123" cy="10" r="2" fill="#46B4BF"/>
<defs>
<linearGradient id="paint0_linear_1_27025" x1="41.813" y1="106.506" x2="117.746" y2="26.0748" gradientUnits="userSpaceOnUse">
<stop stop-color="#D9F6FF"/>
<stop offset="1" stop-color="#BFF5FF"/>
</linearGradient>
<linearGradient id="paint1_linear_1_27025" x1="83.0144" y1="18.1445" x2="68.5335" y2="13.2993" gradientUnits="userSpaceOnUse">
<stop stop-color="#51D1E0"/>
<stop offset="1" stop-color="#8AE9F2"/>
</linearGradient>
<linearGradient id="paint2_linear_1_27025" x1="1828.82" y1="-7593.2" x2="1835.9" y2="-7586.16" gradientUnits="userSpaceOnUse">
<stop stop-color="#8AE9F2"/>
<stop offset="1" stop-color="#51D1E0"/>
</linearGradient>
<linearGradient id="paint3_linear_1_27025" x1="90" y1="124.04" x2="98" y2="134.72" gradientUnits="userSpaceOnUse">
<stop stop-color="#8AE9F2"/>
<stop offset="1" stop-color="#51D1E0"/>
</linearGradient>
<linearGradient id="paint4_linear_1_27025" x1="1642.81" y1="-7044.27" x2="1649.41" y2="-7037.7" gradientUnits="userSpaceOnUse">
<stop stop-color="#8AE9F2"/>
<stop offset="1" stop-color="#51D1E0"/>
</linearGradient>
<linearGradient id="paint5_linear_1_27025" x1="3186.9" y1="2442.35" x2="3196.26" y2="2451.65" gradientUnits="userSpaceOnUse">
<stop stop-color="#80EFFA"/>
<stop offset="1" stop-color="#28CCDE"/>
</linearGradient>
<linearGradient id="paint6_linear_1_27025" x1="3144.9" y1="2396.35" x2="3154.26" y2="2405.65" gradientUnits="userSpaceOnUse">
<stop stop-color="#80EFFA"/>
<stop offset="1" stop-color="#28CCDE"/>
</linearGradient>
<linearGradient id="paint7_linear_1_27025" x1="6.82732" y1="17.4307" x2="61.9668" y2="107.606" gradientUnits="userSpaceOnUse">
<stop stop-color="#D0F7FF"/>
<stop offset="1" stop-color="#6AE3FD"/>
</linearGradient>
<linearGradient id="paint8_linear_1_27025" x1="12.3571" y1="25.9857" x2="56.1926" y2="98.0015" gradientUnits="userSpaceOnUse">
<stop stop-color="#BDF4FF"/>
<stop offset="1" stop-color="#45DEFE"/>
</linearGradient>
<linearGradient id="paint9_linear_1_27025" x1="15.0068" y1="39.0904" x2="70.0573" y2="149.931" gradientUnits="userSpaceOnUse">
<stop stop-color="#8AE9F2"/>
<stop offset="1" stop-color="#51D1E0"/>
</linearGradient>
<linearGradient id="paint10_linear_1_27025" x1="117.999" y1="54.5" x2="49.497" y2="92.3465" gradientUnits="userSpaceOnUse">
<stop stop-color="#61D2DE"/>
<stop offset="1" stop-color="#55D0DE"/>
</linearGradient>
<linearGradient id="paint11_linear_1_27025" x1="-nan" y1="-nan" x2="-nan" y2="-nan" gradientUnits="userSpaceOnUse">
<stop stop-color="white"/>
<stop offset="1" stop-color="white" stop-opacity="0.8"/>
</linearGradient>
<linearGradient id="paint12_linear_1_27025" x1="-nan" y1="-nan" x2="-nan" y2="-nan" gradientUnits="userSpaceOnUse">
<stop stop-color="white"/>
<stop offset="1" stop-color="white" stop-opacity="0.8"/>
</linearGradient>
<linearGradient id="paint13_linear_1_27025" x1="-nan" y1="-nan" x2="-nan" y2="-nan" gradientUnits="userSpaceOnUse">
<stop stop-color="white"/>
<stop offset="1" stop-color="white" stop-opacity="0.8"/>
</linearGradient>
<linearGradient id="paint14_linear_1_27025" x1="-nan" y1="-nan" x2="-nan" y2="-nan" gradientUnits="userSpaceOnUse">
<stop stop-color="white"/>
<stop offset="1" stop-color="white" stop-opacity="0.8"/>
</linearGradient>
<linearGradient id="paint15_linear_1_27025" x1="-nan" y1="-nan" x2="-nan" y2="-nan" gradientUnits="userSpaceOnUse">
<stop stop-color="white"/>
<stop offset="1" stop-color="white" stop-opacity="0.8"/>
</linearGradient>
<linearGradient id="paint16_linear_1_27025" x1="23.999" y1="62.32" x2="35.9986" y2="85.205" gradientUnits="userSpaceOnUse">
<stop stop-color="#3EB8D6"/>
<stop offset="1" stop-color="#27B5C4"/>
</linearGradient>
<linearGradient id="paint17_linear_1_27025" x1="23.999" y1="62.32" x2="35.9986" y2="85.205" gradientUnits="userSpaceOnUse">
<stop stop-color="#8AE9F2"/>
<stop offset="1" stop-color="#51D1E0"/>
</linearGradient>
<linearGradient id="paint18_linear_1_27025" x1="15.0068" y1="46.2643" x2="15.6692" y2="59.8236" gradientUnits="userSpaceOnUse">
<stop stop-color="#3EB8D6"/>
<stop offset="1" stop-color="#27B5C4"/>
</linearGradient>
<linearGradient id="paint19_linear_1_27025" x1="103.844" y1="16.2115" x2="120.155" y2="26.5509" gradientUnits="userSpaceOnUse">
<stop stop-color="#3EB8D6"/>
<stop offset="1" stop-color="#27B5C4"/>
</linearGradient>
<linearGradient id="paint20_linear_1_27025" x1="91.9993" y1="35.501" x2="114.145" y2="63.2665" gradientUnits="userSpaceOnUse">
<stop stop-color="#51D1E0"/>
<stop offset="1" stop-color="#8AE9F2"/>
</linearGradient>
<linearGradient id="paint21_linear_1_27025" x1="121" y1="29.4793" x2="126.75" y2="54.5718" gradientUnits="userSpaceOnUse">
<stop stop-color="#8AE9F2"/>
<stop offset="1" stop-color="#51D1E0"/>
</linearGradient>
<linearGradient id="paint22_linear_1_27025" x1="13567.6" y1="1948.41" x2="13955.6" y2="1948.41" gradientUnits="userSpaceOnUse">
<stop stop-color="#8AE9F2"/>
<stop offset="1" stop-color="#51D1E0"/>
</linearGradient>
<linearGradient id="paint23_linear_1_27025" x1="13567.6" y1="1948.41" x2="13955.6" y2="1948.41" gradientUnits="userSpaceOnUse">
<stop stop-color="#8AE9F2"/>
<stop offset="1" stop-color="#51D1E0"/>
</linearGradient>
<linearGradient id="paint24_linear_1_27025" x1="110" y1="11.88" x2="136" y2="46.59" gradientUnits="userSpaceOnUse">
<stop stop-color="#48AAB4"/>
<stop offset="1" stop-color="#42C9D9"/>
</linearGradient>
<linearGradient id="paint25_linear_1_27025" x1="115" y1="7.28" x2="146" y2="48.665" gradientUnits="userSpaceOnUse">
<stop stop-color="#67C5CE"/>
<stop offset="1" stop-color="#42C9D9"/>
</linearGradient>
</defs>
</svg>
