<svg width="170" height="170" viewBox="0 0 170 170" fill="none" xmlns="http://www.w3.org/2000/svg">
<g clip-path="url(#clip0_1_31315)">
<path opacity="0.42" d="M84.9999 147.33C119.424 147.33 147.33 119.424 147.33 84.9999C147.33 50.576 119.424 22.6699 84.9999 22.6699C50.576 22.6699 22.6699 50.576 22.6699 84.9999C22.6699 119.424 50.576 147.33 84.9999 147.33Z" fill="url(#paint0_linear_1_31315)"/>
<path d="M82.2497 141.88C83.0947 141.88 83.7797 141.195 83.7797 140.35C83.7797 139.505 83.0947 138.82 82.2497 138.82C81.4047 138.82 80.7197 139.505 80.7197 140.35C80.7197 141.195 81.4047 141.88 82.2497 141.88Z" fill="url(#paint1_linear_1_31315)"/>
<path d="M64.0019 35.2367L66.0019 36.8667C66.0802 36.9312 66.1302 37.0237 66.1414 37.1245C66.1526 37.2254 66.1241 37.3266 66.0619 37.4067C66.0309 37.4471 65.9917 37.4805 65.9469 37.5046C65.9021 37.5287 65.8527 37.5431 65.8019 37.5467L63.2119 37.8467C63.1627 37.8511 63.115 37.8658 63.0719 37.89C63.0288 37.9141 62.9913 37.9471 62.9619 37.9867L61.2919 39.9867C61.2188 40.0594 61.1199 40.1002 61.0169 40.1002C60.9138 40.1002 60.815 40.0594 60.7419 39.9867C60.6686 39.9213 60.6194 39.8333 60.6019 39.7367L60.3119 37.1467C60.3041 37.0583 60.2692 36.9745 60.2119 36.9067L58.1419 35.2667C58.0636 35.2022 58.0136 35.1097 58.0024 35.0089C57.9912 34.9081 58.0197 34.8068 58.0819 34.7267C58.1137 34.6872 58.1531 34.6545 58.1977 34.6304C58.2424 34.6064 58.2914 34.5915 58.3419 34.5867L60.9619 34.2867C61.0632 34.2749 61.1563 34.2248 61.2219 34.1467L62.8419 32.1467C62.874 32.1065 62.9137 32.0731 62.9587 32.0483C63.0038 32.0235 63.0533 32.0079 63.1044 32.0023C63.1555 31.9967 63.2072 32.0013 63.2566 32.0158C63.3059 32.0303 63.3519 32.0544 63.3919 32.0867C63.4315 32.1161 63.4645 32.1536 63.4886 32.1967C63.5128 32.2398 63.5275 32.2875 63.5319 32.3367L63.8219 34.9767C63.8493 35.0819 63.9131 35.174 64.0019 35.2367Z" fill="url(#paint2_linear_1_31315)"/>
<path d="M56.4999 124.84L58.4999 126.47C58.5398 126.501 58.573 126.54 58.5977 126.584C58.6223 126.629 58.6379 126.677 58.6435 126.728C58.6491 126.778 58.6446 126.829 58.6302 126.877C58.6159 126.926 58.592 126.971 58.5599 127.01C58.5289 127.051 58.4897 127.084 58.4449 127.108C58.4001 127.132 58.3507 127.147 58.2999 127.15L55.7099 127.45C55.6607 127.455 55.613 127.469 55.5699 127.493C55.5268 127.518 55.4893 127.551 55.4599 127.59L53.7899 129.59C53.7168 129.663 53.618 129.704 53.5149 129.704C53.4118 129.704 53.313 129.663 53.2399 129.59C53.1667 129.525 53.1174 129.437 53.0999 129.34L52.8099 126.75C52.8042 126.661 52.769 126.577 52.7099 126.51L50.6499 124.86C50.6096 124.831 50.5757 124.793 50.5502 124.75C50.5248 124.707 50.5083 124.66 50.5017 124.61C50.4952 124.561 50.4987 124.51 50.5122 124.462C50.5256 124.414 50.5487 124.369 50.5799 124.33C50.6455 124.252 50.7386 124.202 50.8399 124.19L53.4599 123.89C53.5613 123.878 53.6543 123.828 53.7199 123.75L55.3399 121.75C55.372 121.71 55.4117 121.677 55.4567 121.652C55.5018 121.627 55.5513 121.611 55.6024 121.606C55.6535 121.6 55.7053 121.605 55.7546 121.619C55.8039 121.634 55.8499 121.658 55.8899 121.69C55.9296 121.72 55.9625 121.757 55.9867 121.8C56.0108 121.843 56.0255 121.891 56.0299 121.94L56.3199 124.53C56.3276 124.591 56.3475 124.65 56.3785 124.703C56.4094 124.757 56.4507 124.803 56.4999 124.84Z" fill="url(#paint3_linear_1_31315)"/>
<path d="M31 85C30.6044 85 30.2178 84.8827 29.8889 84.6629C29.56 84.4432 29.3036 84.1308 29.1522 83.7654C29.0009 83.3999 28.9613 82.9978 29.0384 82.6098C29.1156 82.2219 29.3061 81.8655 29.5858 81.5858C29.8655 81.3061 30.2219 81.1156 30.6098 81.0384C30.9978 80.9613 31.3999 81.0009 31.7654 81.1522C32.1308 81.3036 32.4432 81.56 32.6629 81.8889C32.8827 82.2178 33 82.6044 33 83C33 83.5304 32.7893 84.0391 32.4142 84.4142C32.0391 84.7893 31.5304 85 31 85ZM31 81.89C30.7706 81.89 30.5463 81.958 30.3555 82.0855C30.1648 82.213 30.0161 82.3941 29.9283 82.6061C29.8405 82.8181 29.8175 83.0513 29.8623 83.2763C29.907 83.5013 30.0175 83.708 30.1798 83.8702C30.342 84.0325 30.5487 84.1429 30.7737 84.1877C30.9987 84.2325 31.232 84.2095 31.4439 84.1217C31.6559 84.0339 31.837 83.8852 31.9645 83.6945C32.092 83.5037 32.16 83.2794 32.16 83.05C32.1654 82.8943 32.1393 82.7392 32.0835 82.5938C32.0276 82.4484 31.943 82.3158 31.8347 82.2038C31.7265 82.0918 31.5968 82.0027 31.4534 81.942C31.3099 81.8812 31.1558 81.8499 31 81.85V81.89Z" fill="url(#paint4_linear_1_31315)"/>
<path d="M138 95.6813C137.617 95.6811 137.242 95.5679 136.922 95.3558C136.603 95.1436 136.353 94.842 136.204 94.4886C136.055 94.1352 136.013 93.7457 136.085 93.3688C136.156 92.992 136.337 92.6446 136.605 92.37C136.872 92.0954 137.215 91.9058 137.59 91.825C137.965 91.7442 138.355 91.7758 138.712 91.9157C139.069 92.0557 139.377 92.2978 139.597 92.6118C139.818 92.9259 139.94 93.2979 139.95 93.6813C139.95 94.2031 139.746 94.7044 139.382 95.0781C139.018 95.4517 138.522 95.6682 138 95.6813ZM138 92.5713C137.771 92.5713 137.546 92.6393 137.356 92.7667C137.165 92.8942 137.016 93.0754 136.928 93.2873C136.841 93.4993 136.818 93.7325 136.862 93.9576C136.907 94.1826 137.018 94.3893 137.18 94.5515C137.342 94.7137 137.549 94.8242 137.774 94.869C137.999 94.9137 138.232 94.8907 138.444 94.8029C138.656 94.7151 138.837 94.5665 138.965 94.3757C139.092 94.1849 139.16 93.9607 139.16 93.7313C139.16 93.4236 139.038 93.1286 138.82 92.911C138.603 92.6935 138.308 92.5713 138 92.5713Z" fill="url(#paint5_linear_1_31315)"/>
<path d="M116.33 132.841C115.949 132.831 115.579 132.709 115.266 132.491C114.953 132.273 114.711 131.968 114.57 131.614C114.428 131.26 114.394 130.872 114.471 130.499C114.547 130.125 114.732 129.782 115.002 129.513C115.271 129.243 115.614 129.058 115.988 128.981C116.361 128.905 116.749 128.939 117.103 129.08C117.458 129.222 117.763 129.464 117.981 129.777C118.199 130.09 118.32 130.46 118.33 130.841C118.337 131.105 118.29 131.368 118.192 131.614C118.094 131.86 117.947 132.083 117.76 132.27C117.572 132.457 117.349 132.604 117.103 132.703C116.858 132.801 116.595 132.848 116.33 132.841ZM116.33 129.731C116.101 129.731 115.876 129.799 115.686 129.926C115.495 130.054 115.346 130.235 115.258 130.447C115.171 130.659 115.148 130.892 115.192 131.117C115.237 131.342 115.348 131.549 115.51 131.711C115.672 131.873 115.879 131.984 116.104 132.028C116.329 132.073 116.562 132.05 116.774 131.962C116.986 131.875 117.167 131.726 117.295 131.535C117.422 131.344 117.49 131.12 117.49 130.891C117.49 130.583 117.368 130.288 117.15 130.071C116.933 129.853 116.638 129.731 116.33 129.731Z" fill="url(#paint6_linear_1_31315)"/>
<path d="M133.7 70.2601C133.608 70.258 133.517 70.2411 133.43 70.2101C133.325 70.1751 133.227 70.1196 133.143 70.0468C133.06 69.9739 132.991 69.8852 132.942 69.7857C132.892 69.6862 132.863 69.5779 132.856 69.4671C132.849 69.3563 132.864 69.2451 132.9 69.1401C133.379 67.7089 134.013 66.3341 134.79 65.0401C134.904 64.8452 135.091 64.7035 135.309 64.6463C135.528 64.5891 135.76 64.6211 135.955 64.7351C136.15 64.8492 136.292 65.036 136.349 65.2544C136.406 65.4729 136.374 65.7052 136.26 65.9001C135.544 67.0943 134.957 68.3615 134.51 69.6801C134.452 69.8489 134.343 69.9954 134.198 70.0993C134.052 70.2033 133.879 70.2595 133.7 70.2601ZM138.02 62.7601C137.826 62.7631 137.638 62.6956 137.49 62.5701C137.403 62.5003 137.331 62.414 137.278 62.3161C137.225 62.2183 137.192 62.1109 137.181 62.0002C137.17 61.8895 137.181 61.7777 137.213 61.6712C137.246 61.5648 137.299 61.4658 137.37 61.3801C138.3 60.2282 139.302 59.136 140.37 58.1101C140.448 58.0303 140.542 57.9669 140.645 57.9236C140.748 57.8803 140.858 57.858 140.97 57.858C141.082 57.858 141.192 57.8803 141.295 57.9236C141.398 57.9669 141.492 58.0303 141.57 58.1101C141.726 58.2707 141.814 58.486 141.814 58.7101C141.814 58.9343 141.726 59.1495 141.57 59.3101C140.547 60.2928 139.582 61.3346 138.68 62.4301C138.601 62.535 138.498 62.6196 138.38 62.677C138.262 62.7344 138.131 62.7629 138 62.7601H138.02ZM154.44 60.9101H154.2C153.975 60.9101 153.758 60.8206 153.599 60.6612C153.44 60.5017 153.35 60.2855 153.35 60.0601C153.35 59.8347 153.44 59.6185 153.599 59.4591C153.758 59.2997 153.975 59.2101 154.2 59.2101H154.43C155.742 59.2178 157.051 59.0735 158.33 58.7801C158.442 58.7434 158.561 58.7305 158.678 58.7422C158.796 58.7539 158.909 58.79 159.012 58.848C159.115 58.9061 159.204 58.9849 159.275 59.0795C159.346 59.174 159.396 59.2823 159.422 59.3973C159.449 59.5123 159.451 59.6316 159.429 59.7475C159.407 59.8635 159.361 59.9735 159.294 60.0707C159.227 60.1678 159.14 60.25 159.04 60.3119C158.939 60.3737 158.827 60.414 158.71 60.4301C157.31 60.7546 155.877 60.9157 154.44 60.9101ZM149.9 60.3901C149.837 60.3994 149.773 60.3994 149.71 60.3901C148.241 60.0582 146.81 59.5757 145.44 58.9501C145.338 58.9042 145.246 58.8386 145.17 58.7572C145.094 58.6758 145.034 58.5801 144.995 58.4756C144.955 58.3712 144.937 58.2599 144.94 58.1483C144.944 58.0367 144.969 57.9269 145.015 57.8251C145.061 57.7233 145.127 57.6316 145.208 57.5552C145.289 57.4787 145.385 57.4191 145.489 57.3796C145.594 57.3402 145.705 57.3217 145.817 57.3252C145.928 57.3287 146.038 57.3542 146.14 57.4001C147.423 57.9831 148.764 58.4289 150.14 58.7301C150.345 58.7754 150.526 58.895 150.648 59.0659C150.771 59.2368 150.825 59.4469 150.801 59.6557C150.778 59.8644 150.678 60.057 150.521 60.1963C150.363 60.3356 150.16 60.4118 149.95 60.4101L149.9 60.3901ZM162.54 58.8301C162.397 58.8292 162.257 58.7931 162.131 58.7251C162.006 58.6571 161.899 58.5592 161.82 58.4401C161.699 58.2487 161.659 58.0176 161.708 57.7968C161.757 57.5759 161.89 57.3831 162.08 57.2601C163.172 56.6522 163.991 55.6509 164.37 54.4601C164.397 54.3518 164.445 54.2498 164.511 54.16C164.578 54.0702 164.661 53.9944 164.757 53.9368C164.852 53.8792 164.958 53.8411 165.069 53.8245C165.179 53.8079 165.292 53.8132 165.4 53.8401C165.508 53.867 165.61 53.915 165.7 53.9814C165.79 54.0477 165.866 54.1311 165.923 54.2267C165.981 54.3224 166.019 54.4284 166.036 54.5388C166.052 54.6492 166.047 54.7618 166.02 54.8701C165.547 56.4809 164.473 57.8483 163.02 58.6901C162.877 58.7833 162.71 58.832 162.54 58.8301ZM142.03 56.8301C141.854 56.8263 141.684 56.7706 141.54 56.6701C140.319 55.7926 139.178 54.8088 138.13 53.7301C137.974 53.567 137.888 53.3484 137.893 53.1224C137.898 52.8965 137.992 52.6816 138.155 52.5251C138.318 52.3686 138.537 52.2834 138.763 52.2881C138.989 52.2927 139.204 52.387 139.36 52.5501C140.326 53.5561 141.384 54.4701 142.52 55.2801C142.67 55.3833 142.783 55.532 142.842 55.7041C142.901 55.8763 142.903 56.0628 142.848 56.2364C142.793 56.4099 142.684 56.5613 142.537 56.6681C142.39 56.775 142.212 56.8318 142.03 56.8301ZM144.27 56.7101C144.093 56.7095 143.921 56.6538 143.778 56.5507C143.634 56.4477 143.526 56.3025 143.469 56.1353C143.412 55.968 143.408 55.7871 143.458 55.6177C143.509 55.4483 143.611 55.2989 143.75 55.1901C144.918 54.2805 146.133 53.4327 147.39 52.6501C147.582 52.5308 147.814 52.4927 148.034 52.5443C148.255 52.5958 148.446 52.7328 148.565 52.9251C148.684 53.1174 148.722 53.3492 148.671 53.5696C148.619 53.7899 148.482 53.9808 148.29 54.1001C147.081 54.8517 145.913 55.6662 144.79 56.5401C144.642 56.6575 144.459 56.721 144.27 56.7201V56.7101ZM151.66 52.1501C151.498 52.1474 151.339 52.1002 151.202 52.0139C151.064 51.9275 150.953 51.8052 150.88 51.6601C150.787 51.4555 150.778 51.2228 150.855 51.0116C150.931 50.8004 151.088 50.6276 151.29 50.5301C152.644 49.8868 154.049 49.355 155.49 48.9401C155.707 48.8791 155.94 48.907 156.137 49.0177C156.334 49.1283 156.479 49.3126 156.54 49.5301C156.601 49.7476 156.573 49.9804 156.462 50.1773C156.352 50.3742 156.167 50.5191 155.95 50.5801C154.593 50.963 153.272 51.4614 152 52.0701C151.895 52.125 151.779 52.1557 151.66 52.1601V52.1501ZM164 51.5301C163.888 51.5315 163.777 51.5101 163.674 51.4671C163.571 51.4241 163.478 51.3605 163.4 51.2801C162.472 50.4344 161.255 49.9764 160 50.0001C159.888 49.9962 159.779 49.9704 159.677 49.9241C159.575 49.8777 159.484 49.8118 159.408 49.7301C159.331 49.6484 159.272 49.5524 159.233 49.4478C159.194 49.3431 159.176 49.2318 159.18 49.1201C159.195 48.8964 159.297 48.6873 159.462 48.5364C159.628 48.3855 159.846 48.3044 160.07 48.3101C161.75 48.2842 163.374 48.9116 164.6 50.0601C164.718 50.179 164.799 50.3303 164.832 50.4949C164.864 50.6595 164.848 50.8301 164.783 50.9851C164.719 51.1402 164.611 51.2728 164.471 51.3662C164.332 51.4596 164.168 51.5097 164 51.5101V51.5301ZM136 50.6401C135.862 50.639 135.727 50.6049 135.605 50.5405C135.483 50.4761 135.379 50.3834 135.3 50.2701C135.12 50.0201 134.95 49.7501 134.77 49.4801C134.71 49.3862 134.668 49.2813 134.648 49.1715C134.629 49.0616 134.63 48.9489 134.654 48.8398C134.678 48.7307 134.723 48.6273 134.786 48.5356C134.85 48.4438 134.931 48.3655 135.025 48.3051C135.119 48.2447 135.224 48.2034 135.334 48.1835C135.443 48.1636 135.556 48.1656 135.665 48.1893C135.774 48.2129 135.878 48.2579 135.97 48.3215C136.061 48.3851 136.14 48.4662 136.2 48.5601C136.36 48.8101 136.53 49.0601 136.7 49.3001C136.829 49.4862 136.879 49.7155 136.839 49.9382C136.8 50.1609 136.674 50.3592 136.49 50.4901C136.345 50.5876 136.175 50.6398 136 50.6401Z" fill="url(#paint7_linear_1_31315)"/>
<path d="M138.31 35.4395C138.232 37.7916 137.242 40.0212 135.551 41.6574C133.859 43.2936 131.598 44.2084 129.245 44.2084C126.891 44.2084 124.63 43.2936 122.939 41.6574C121.247 40.0212 120.258 37.7916 120.18 35.4395C120.139 34.2237 120.344 33.0122 120.781 31.8772C121.219 30.7421 121.88 29.7066 122.726 28.8323C123.572 27.958 124.584 27.2627 125.704 26.7879C126.824 26.3131 128.028 26.0684 129.245 26.0684C130.461 26.0684 131.665 26.3131 132.785 26.7879C133.905 27.2627 134.918 27.958 135.764 28.8323C136.61 29.7066 137.271 30.7421 137.708 31.8772C138.146 33.0122 138.35 34.2237 138.31 35.4395Z" fill="url(#paint8_linear_1_31315)"/>
<g opacity="0.28">
<path d="M69.2299 65.6299C69.2319 68.7518 68.3079 71.804 66.5747 74.4006C64.8415 76.9971 62.3771 79.0212 59.4933 80.2168C56.6095 81.4124 53.4358 81.7258 50.3739 81.1172C47.3119 80.5086 44.4993 79.0055 42.2918 76.7981C40.0843 74.5906 38.5812 71.7779 37.9727 68.716C37.3641 65.654 37.6774 62.4804 38.873 59.5966C40.0686 56.7127 42.0927 54.2483 44.6893 52.5152C47.2858 50.782 50.3381 49.8579 53.4599 49.8599C55.5357 49.8426 57.5942 50.2387 59.5153 51.025C61.4364 51.8114 63.1818 52.9724 64.6496 54.4402C66.1175 55.9081 67.2784 57.6534 68.0648 59.5746C68.8512 61.4957 69.2473 63.5541 69.2299 65.6299Z" fill="url(#paint9_linear_1_31315)"/>
<path opacity="0.87" d="M50.3996 76.2788C50.1427 76.2882 49.8865 76.2461 49.6461 76.1551C49.4057 76.0641 49.1859 75.9259 48.9996 75.7488C48.6353 75.3295 48.4519 74.783 48.4896 74.2288V71.8388H47.0796C46.6894 71.8678 46.3029 71.7461 45.9996 71.4988C45.7428 71.2292 45.5996 70.8711 45.5996 70.4988C45.5996 70.1265 45.7428 69.7684 45.9996 69.4988C46.2988 69.2504 46.6814 69.1253 47.0696 69.1488H48.4296V67.1488H47.0796C46.6862 67.1765 46.2978 67.047 45.9996 66.7888C45.8662 66.6606 45.7629 66.5044 45.6972 66.3315C45.6315 66.1586 45.605 65.9732 45.6196 65.7888C45.6084 65.6047 45.6365 65.4203 45.702 65.2479C45.7675 65.0755 45.869 64.919 45.9996 64.7888C46.3003 64.544 46.6827 64.4225 47.0696 64.4488H48.4296V56.7088C48.3972 56.4476 48.4248 56.1824 48.5103 55.9335C48.5958 55.6846 48.737 55.4585 48.9231 55.2723C49.1092 55.0862 49.3354 54.945 49.5843 54.8595C49.8332 54.774 50.0984 54.7464 50.3596 54.7788H55.6296C56.9849 54.7387 58.3318 55.0053 59.5696 55.5588C60.5799 56.0349 61.4257 56.8007 61.9996 57.7588C62.5683 58.7713 62.855 59.9178 62.8296 61.0788C62.855 62.2031 62.564 63.3119 61.9896 64.2788C61.4027 65.2002 60.5624 65.9328 59.5696 66.3888C58.3751 66.9202 57.0765 67.1765 55.7696 67.1388H52.3596V69.1388H55.9996C56.3881 69.1132 56.7714 69.2386 57.0696 69.4888C57.3264 69.7584 57.4696 70.1165 57.4696 70.4888C57.4696 70.8611 57.3264 71.2192 57.0696 71.4888C56.7699 71.7355 56.3867 71.8572 55.9996 71.8288H52.3596V74.2188C52.3958 74.7711 52.2166 75.3159 51.8596 75.7388C51.6674 75.9258 51.4382 76.0704 51.1868 76.1634C50.9353 76.2564 50.6672 76.2957 50.3996 76.2788ZM52.2996 64.4888H55.1596C56.1852 64.5551 57.2059 64.3 58.0796 63.7588C58.4349 63.4731 58.7127 63.1027 58.8875 62.6815C59.0622 62.2604 59.1283 61.8021 59.0796 61.3488C59.1192 60.883 59.0495 60.4144 58.8758 59.9803C58.7022 59.5463 58.4296 59.1588 58.0796 58.8488C57.2308 58.2426 56.2012 57.9429 55.1596 57.9988H52.2996V64.4888Z" fill="url(#paint10_linear_1_31315)"/>
</g>
<path d="M127.56 41.3201C127.414 41.329 127.267 41.3079 127.13 41.258C126.992 41.2082 126.866 41.1306 126.76 41.0301C126.556 40.7991 126.452 40.4973 126.47 40.1901V38.8701H125.72C125.507 38.8795 125.297 38.8121 125.13 38.6801C125.058 38.6103 125.003 38.526 124.966 38.4328C124.93 38.3397 124.914 38.2399 124.92 38.1401C124.913 38.0387 124.929 37.9372 124.965 37.8423C125.001 37.7474 125.058 37.6614 125.13 37.5901C125.297 37.4581 125.507 37.3907 125.72 37.4001H126.47V36.2701H125.72C125.506 36.2843 125.295 36.2163 125.13 36.0801C125.058 36.0103 125.003 35.926 124.966 35.8328C124.93 35.7397 124.914 35.6399 124.92 35.5401C124.913 35.4387 124.929 35.3372 124.965 35.2423C125.001 35.1474 125.058 35.0614 125.13 34.9901C125.297 34.8581 125.507 34.7907 125.72 34.8001H126.47V30.5001C126.461 30.3577 126.483 30.2151 126.533 30.0817C126.584 29.9484 126.663 29.8275 126.764 29.7271C126.865 29.6267 126.987 29.5491 127.121 29.4996C127.255 29.4501 127.398 29.4298 127.54 29.4401H130.46C131.206 29.4165 131.949 29.5636 132.63 29.8701C133.203 30.1237 133.682 30.5504 134 31.0901C134.318 31.6465 134.477 32.2795 134.46 32.9201C134.478 33.5432 134.315 34.1582 133.99 34.6901C133.673 35.2014 133.209 35.6055 132.66 35.8501C132 36.1465 131.283 36.29 130.56 36.2701H128.66V37.4001H130.66C130.873 37.3888 131.083 37.4565 131.25 37.5901C131.322 37.6614 131.378 37.7474 131.415 37.8423C131.451 37.9372 131.466 38.0387 131.46 38.1401C131.465 38.2399 131.45 38.3397 131.413 38.4328C131.377 38.526 131.321 38.6103 131.25 38.6801C131.083 38.8137 130.873 38.8813 130.66 38.8701H128.66V40.1901C128.679 40.4941 128.582 40.7941 128.39 41.0301C128.279 41.1329 128.148 41.2117 128.005 41.2616C127.862 41.3115 127.711 41.3314 127.56 41.3201ZM128.61 34.8001H130.19C130.758 34.8364 131.324 34.6968 131.81 34.4001C132.007 34.2434 132.162 34.0393 132.26 33.8069C132.358 33.5744 132.396 33.321 132.37 33.0701C132.391 32.8132 132.352 32.555 132.257 32.3156C132.161 32.0762 132.012 31.8621 131.82 31.6901C131.343 31.3605 130.768 31.2019 130.19 31.2401H128.61V34.8001Z" fill="white"/>
<path d="M130.948 76.1913C130.86 75.9663 130.686 75.7857 130.464 75.6889C130.243 75.5922 129.992 75.5873 129.767 75.6753C129.374 75.8182 128.967 75.9156 128.553 75.9656C128.964 74.421 128.885 72.7867 128.327 71.2889C128.125 70.5474 127.694 69.8885 127.096 69.406C126.498 68.9235 125.764 68.6418 124.997 68.6011C124.195 68.5453 123.396 68.7279 122.698 69.1258C122 69.5237 121.436 70.1192 121.075 70.8373C120.753 71.5577 120.248 73.4713 122.493 75.7398C123.196 76.4569 124.041 77.0174 124.975 77.3847C124.133 77.7609 123.231 77.9865 122.311 78.0513C116.112 67.4185 102.167 60.0003 85.9662 60.0003C80.2207 59.9796 74.5148 60.9507 69.0992 62.8708C68.8346 62.9679 68.5526 63.0085 68.2713 62.99C67.9901 62.9715 67.7158 62.8943 67.4662 62.7633C65.4521 61.6306 63.2097 60.9643 60.9042 60.8136C58.5987 60.6629 56.2888 61.0316 54.1445 61.8925C53.7818 62.0323 53.4706 62.2799 53.2528 62.6021C53.0012 62.9622 52.8717 63.3936 52.8833 63.8329C52.8949 64.2722 53.047 64.6962 53.3173 65.0425L54.3916 66.3649C54.8965 66.9992 55.3585 67.5798 55.7775 68.1281C56.0832 68.5329 56.2291 69.0362 56.1875 69.5419C56.1459 70.0476 55.9196 70.5203 55.5519 70.8696C55.0899 71.2889 54.6494 71.7189 54.2197 72.1597C50.4478 75.8327 47.8335 80.5307 46.6994 85.6737C46.6073 86.1328 46.3588 86.5457 45.9963 86.8418C45.6338 87.1379 45.1798 87.2988 44.7119 87.2971C44.0673 87.2971 39.77 87.0284 39.0716 88.6948C38.3733 90.3612 42.9822 100.521 44.1103 101.338C45.959 102.314 47.8893 103.127 49.8794 103.768C50.2257 103.921 50.5204 104.171 50.7281 104.488C52.333 106.823 54.2364 108.937 56.3898 110.777C57.6837 111.882 59.0552 112.891 60.4938 113.798C61.825 114.645 63.2023 115.417 64.6192 116.11C64.8654 116.218 65.0873 116.375 65.2719 116.571C65.4564 116.766 65.5998 116.997 65.6936 117.249L68.519 125.162L70.1198 129.656C70.2614 130.05 70.5211 130.39 70.8634 130.631C71.2057 130.871 71.6138 131 72.0321 131H77.7798C78.3019 131.001 78.8043 130.8 79.1824 130.439C79.5605 130.079 79.7854 129.587 79.8102 129.065L80.1111 122.614C80.1233 122.346 80.189 122.083 80.3041 121.84C80.4193 121.597 80.5816 121.38 80.7817 121.201C80.9818 121.021 81.2155 120.884 81.4693 120.796C81.7231 120.709 81.9918 120.672 82.2597 120.69C83.463 120.776 84.677 120.819 85.9124 120.819C88.2734 120.817 90.6316 120.655 92.9708 120.335C93.2497 120.296 93.5336 120.315 93.8045 120.392C94.0753 120.469 94.3271 120.602 94.5436 120.783C94.7601 120.963 94.9366 121.186 95.0616 121.439C95.1867 121.691 95.2576 121.967 95.2699 122.249L95.5922 129.065C95.617 129.587 95.8419 130.079 96.22 130.439C96.5981 130.8 97.1005 131.001 97.6226 131H103.37C103.789 131.002 104.198 130.874 104.54 130.633C104.883 130.392 105.142 130.051 105.283 129.656L110.654 114.755C110.807 114.317 111.097 113.94 111.481 113.68C114.519 111.765 117.241 109.389 119.55 106.638C119.808 106.337 120.055 106.025 120.302 105.714C121.162 104.606 121.931 103.43 122.601 102.198C124.183 99.3936 125.191 96.3015 125.566 93.1027C125.674 92.1964 125.728 91.2846 125.727 90.3719C125.715 86.6794 124.859 83.0387 123.224 79.7284C124.789 79.5534 126.256 78.8829 127.414 77.8147C128.442 77.8584 129.469 77.6939 130.433 77.331C130.649 77.2444 130.824 77.0774 130.92 76.865C131.016 76.6526 131.026 76.4112 130.948 76.1913ZM126.587 75.9333C125.525 75.7396 124.549 75.2213 123.793 74.4497C122.719 73.3746 122.386 72.3855 122.719 71.5899C122.917 71.2312 123.208 70.9329 123.562 70.7266C123.916 70.5202 124.319 70.4136 124.728 70.4181H124.857C125.256 70.4333 125.64 70.5794 125.948 70.8338C126.257 71.0882 126.474 71.4369 126.565 71.8264C127.115 73.1386 127.123 74.6155 126.587 75.9333Z" fill="url(#paint11_linear_1_31315)"/>
<path d="M58.5058 79H58.4942C57.1167 79 56 80.1167 56 81.4942V81.5058C56 82.8833 57.1167 84 58.4942 84H58.5058C59.8833 84 61 82.8833 61 81.5058V81.4942C61 80.1167 59.8833 79 58.5058 79Z" fill="url(#paint12_linear_1_31315)"/>
<g opacity="0.74">
<path opacity="0.74" d="M103.25 71.1943C103.078 71.1918 102.907 71.1628 102.744 71.1081C97.3641 69.5387 91.7915 68.727 86.1873 68.6967C81.0154 68.6374 75.8702 69.4452 70.9654 71.0866C70.5655 71.238 70.122 71.2257 69.7311 71.0524C69.3402 70.8791 69.0333 70.5588 68.8769 70.1608C68.8005 69.9629 68.7639 69.7519 68.769 69.5398C68.7742 69.3277 68.8211 69.1187 68.9071 68.9247C68.9931 68.7308 69.1164 68.5557 69.2701 68.4094C69.4238 68.2632 69.6048 68.1486 69.8028 68.0724C75.0753 66.2743 80.6171 65.3932 86.1873 65.4672C92.1329 65.481 98.0457 66.3474 103.745 68.0401C104.113 68.1566 104.428 68.4013 104.631 68.7297C104.834 69.0581 104.913 69.4484 104.853 69.8299C104.793 70.2115 104.598 70.5589 104.304 70.8092C104.01 71.0595 103.636 71.1961 103.25 71.1943Z" fill="url(#paint13_linear_1_31315)"/>
</g>
<path d="M107 48.9681C107.006 52.7277 105.897 56.4047 103.813 59.5336C101.728 62.6626 98.7624 65.1028 95.2906 66.5455C91.8188 67.9882 87.997 68.3684 84.3089 67.638C80.6209 66.9077 77.2325 65.0996 74.5725 62.4427C71.9126 59.7857 70.1006 56.3993 69.3661 52.7122C68.6316 49.025 69.0075 45.2028 70.4463 41.7293C71.885 38.2559 74.3219 35.2874 77.4485 33.1995C80.5752 31.1117 84.2509 29.9983 88.0106 30.0004C90.5072 29.9834 92.9824 30.4622 95.2926 31.4091C97.6027 32.356 99.7019 33.7521 101.468 35.5166C103.235 37.281 104.633 39.3786 105.583 41.6877C106.532 43.9968 107.014 46.4714 107 48.9681Z" fill="url(#paint14_linear_1_31315)"/>
<path d="M105.999 48.9894C106.002 52.5498 104.948 56.0309 102.971 58.9924C100.995 61.9539 98.1843 64.2627 94.8955 65.6267C91.6067 66.9907 87.9872 67.3487 84.4949 66.6555C81.0026 65.9622 77.7943 64.2488 75.2759 61.7319C72.7575 59.215 71.0421 56.0078 70.3467 52.5159C69.6513 49.024 70.0071 45.4043 71.3691 42.1147C72.7311 38.8251 75.0382 36.0132 77.9985 34.0349C80.9587 32.0566 84.4392 31.0007 87.9997 31.0007C90.3682 30.9802 92.7172 31.4314 94.9095 32.328C97.1019 33.2247 99.0938 34.5487 100.769 36.2231C102.445 37.8975 103.77 39.8886 104.668 42.0804C105.566 44.2722 106.018 46.6208 105.999 48.9894Z" fill="url(#paint15_linear_1_31315)"/>
<path d="M84.513 60.9909C84.2059 61.0085 83.8983 60.9651 83.6094 60.8635C83.3205 60.7619 83.0566 60.6042 82.834 60.4004C82.623 60.1694 82.4618 59.9005 82.36 59.6093C82.2581 59.318 82.2176 59.0103 82.2408 58.7039V56.0412H80.6737C80.2198 56.0697 79.7716 55.9315 79.4201 55.6546C79.1492 55.3572 79 54.9758 79 54.5809C79 54.1861 79.1492 53.8046 79.4201 53.5072C79.7666 53.2187 80.2153 53.0688 80.6737 53.0885H82.2408V50.8015H80.6737C80.2198 50.83 79.7716 50.6918 79.4201 50.4149C79.1514 50.1166 79.0036 49.7355 79.0036 49.3412C79.0036 48.947 79.1514 48.5659 79.4201 48.2675C79.7649 47.9752 80.2138 47.8214 80.6737 47.8381H82.2408V39.1625C82.2025 38.8718 82.2341 38.5765 82.3331 38.2992C82.4321 38.022 82.5958 37.7701 82.8119 37.5629C83.0279 37.3557 83.2905 37.1986 83.5795 37.1037C83.8685 37.0087 84.1764 36.9784 84.4795 37.0151H90.6134C92.1882 36.9708 93.7532 37.2681 95.1915 37.8848C96.3704 38.4146 97.3568 39.271 98.0234 40.3436C98.6973 41.4767 99.0341 42.7654 98.9973 44.0694C99.0267 45.323 98.6851 46.559 98.0122 47.634C97.3315 48.6478 96.3651 49.4557 95.2251 49.964C93.8396 50.5583 92.332 50.8445 90.8149 50.8015H86.7965V53.0885H90.994C91.4479 53.0599 91.8961 53.1981 92.2477 53.475C92.5185 53.7724 92.6677 54.1538 92.6677 54.5487C92.6677 54.9436 92.5185 55.325 92.2477 55.6224C91.8961 55.8993 91.4479 56.0375 90.994 56.0089H86.7965V58.6717C86.8611 59.2916 86.6725 59.9113 86.2704 60.4004C86.0388 60.614 85.762 60.7773 85.4588 60.8792C85.1555 60.9811 84.833 61.0192 84.513 60.9909ZM86.7517 47.8381H90.1097C91.288 47.8991 92.4581 47.6185 93.4677 47.0328C93.8827 46.7153 94.2085 46.3036 94.4157 45.8349C94.6229 45.3662 94.7049 44.8553 94.6542 44.3485C94.705 43.8319 94.6304 43.311 94.4362 42.8267C94.242 42.3423 93.9335 41.9077 93.5349 41.5569C92.5404 40.8847 91.3345 40.5623 90.1209 40.6442H86.7629L86.7517 47.8381Z" fill="url(#paint16_linear_1_31315)"/>
<path d="M57.5395 69.3224C57.5734 69.0569 57.5514 68.7874 57.475 68.5303C57.3986 68.2732 57.2693 68.0337 57.0948 67.8262C56.6384 67.2481 56.1352 66.6927 55.5852 65.9673L54.4735 64.5731C54.1791 64.2079 54.0134 63.7609 54.0008 63.2977C53.9881 62.8346 54.1292 62.3797 54.4033 62C56.8725 62.5894 60.0788 63.7909 60.8161 66.0466V66.16C61.7171 68.9144 59.0959 71.1814 57.5395 69.3224Z" fill="url(#paint17_linear_1_31315)"/>
<path opacity="0.2" d="M123 102C122.321 103.241 121.543 104.424 120.672 105.54C120.422 105.854 120.172 106.168 119.911 106.471C117.573 109.24 114.818 111.632 111.743 113.561C111.353 113.822 111.06 114.202 110.905 114.644L105.467 129.647C105.325 130.044 105.062 130.388 104.715 130.63C104.369 130.873 103.955 131.002 103.531 131H97.7662C97.2376 131.001 96.729 130.798 96.3462 130.436C95.9634 130.073 95.7357 129.577 95.7106 129.052L95.3843 122.188C95.3719 121.905 95.3001 121.627 95.1734 121.373C95.0468 121.119 94.8682 120.894 94.649 120.712C94.4298 120.531 94.1749 120.397 93.9007 120.319C93.6265 120.242 93.339 120.222 93.0567 120.262C90.6884 120.584 88.301 120.747 85.9107 120.749C84.6599 120.749 83.4308 120.749 82.2127 120.619C81.9414 120.601 81.6694 120.638 81.4124 120.726C81.1555 120.814 80.9189 120.953 80.7163 121.133C80.5138 121.314 80.3494 121.532 80.2328 121.777C80.1162 122.021 80.0498 122.286 80.0373 122.557L79.7328 129.052C79.7076 129.577 79.48 130.073 79.0972 130.436C78.7143 130.798 78.2058 131.001 77.6771 131H71.8364C71.4129 131 70.9997 130.871 70.6532 130.628C70.3066 130.386 70.0437 130.043 69.9003 129.647L68.2797 125.122L65.4192 117.155C65.3243 116.901 65.1791 116.668 64.9923 116.471C64.8054 116.274 64.5807 116.117 64.3315 116.007C62.897 115.309 61.5026 114.532 60.1549 113.68C58.6984 112.767 57.3099 111.75 56 110.638C56.6744 110.779 67.7033 113.171 86.8244 113.171C106.304 113.106 122.5 102.314 123 102Z" fill="url(#paint18_linear_1_31315)"/>
</g>
<defs>
<linearGradient id="paint0_linear_1_31315" x1="47.4199" y1="124.8" x2="120.24" y2="47.6699" gradientUnits="userSpaceOnUse">
<stop stop-color="#D9F6FF"/>
<stop offset="1" stop-color="#BFF5FF"/>
</linearGradient>
<linearGradient id="paint1_linear_1_31315" x1="81.2097" y1="139.31" x2="83.1697" y2="141.25" gradientUnits="userSpaceOnUse">
<stop stop-color="#8AE9F2"/>
<stop offset="1" stop-color="#51D1E0"/>
</linearGradient>
<linearGradient id="paint2_linear_1_31315" x1="54.7767" y1="33.5431" x2="62.8503" y2="35.8979" gradientUnits="userSpaceOnUse">
<stop stop-color="#8AE9F2"/>
<stop offset="1" stop-color="#51D1E0"/>
</linearGradient>
<linearGradient id="paint3_linear_1_31315" x1="46.9467" y1="123.073" x2="55.0299" y2="125.43" gradientUnits="userSpaceOnUse">
<stop stop-color="#8AE9F2"/>
<stop offset="1" stop-color="#51D1E0"/>
</linearGradient>
<linearGradient id="paint4_linear_1_31315" x1="32.38" y1="84.42" x2="29.62" y2="81.68" gradientUnits="userSpaceOnUse">
<stop stop-color="#80EFFA"/>
<stop offset="1" stop-color="#28CCDE"/>
</linearGradient>
<linearGradient id="paint5_linear_1_31315" x1="139.4" y1="95.1013" x2="136.64" y2="92.3612" gradientUnits="userSpaceOnUse">
<stop stop-color="#80EFFA"/>
<stop offset="1" stop-color="#28CCDE"/>
</linearGradient>
<linearGradient id="paint6_linear_1_31315" x1="117.71" y1="132.261" x2="114.94" y2="129.521" gradientUnits="userSpaceOnUse">
<stop stop-color="#80EFFA"/>
<stop offset="1" stop-color="#28CCDE"/>
</linearGradient>
<linearGradient id="paint7_linear_1_31315" x1="132.82" y1="69.7201" x2="158.61" y2="44.0801" gradientUnits="userSpaceOnUse">
<stop stop-color="#80EFFA"/>
<stop offset="1" stop-color="#28CCDE"/>
</linearGradient>
<linearGradient id="paint8_linear_1_31315" x1="120.18" y1="35.4395" x2="138.31" y2="35.4395" gradientUnits="userSpaceOnUse">
<stop stop-color="#8AE9F2"/>
<stop offset="1" stop-color="#51D1E0"/>
</linearGradient>
<linearGradient id="paint9_linear_1_31315" x1="37.6699" y1="65.6399" x2="69.2299" y2="65.6399" gradientUnits="userSpaceOnUse">
<stop stop-color="#8AE9F2"/>
<stop offset="1" stop-color="#51D1E0"/>
</linearGradient>
<linearGradient id="paint10_linear_1_31315" x1="54.9396" y1="76.3588" x2="53.7796" y2="58.6788" gradientUnits="userSpaceOnUse">
<stop stop-color="white"/>
<stop offset="1" stop-color="white" stop-opacity="0.8"/>
</linearGradient>
<linearGradient id="paint11_linear_1_31315" x1="84.9885" y1="54.3668" x2="84.9885" y2="103.37" gradientUnits="userSpaceOnUse">
<stop stop-color="#8AE9F2"/>
<stop offset="1" stop-color="#51D1E0"/>
</linearGradient>
<linearGradient id="paint12_linear_1_31315" x1="58.5058" y1="78.6752" x2="58.5058" y2="81.2158" gradientUnits="userSpaceOnUse">
<stop stop-color="white"/>
<stop offset="1" stop-color="white" stop-opacity="0.8"/>
</linearGradient>
<linearGradient id="paint13_linear_1_31315" x1="68.7693" y1="68.3307" x2="104.865" y2="68.3307" gradientUnits="userSpaceOnUse">
<stop stop-color="#3EB8D6"/>
<stop offset="1" stop-color="#27B5C4"/>
</linearGradient>
<linearGradient id="paint14_linear_1_31315" x1="87.9998" y1="27.45" x2="87.9998" y2="46.8248" gradientUnits="userSpaceOnUse">
<stop stop-color="white"/>
<stop offset="1" stop-color="white" stop-opacity="0.8"/>
</linearGradient>
<linearGradient id="paint15_linear_1_31315" x1="69.989" y1="49.0003" x2="105.988" y2="49.0003" gradientUnits="userSpaceOnUse">
<stop stop-color="#8AE9F2"/>
<stop offset="1" stop-color="#51D1E0"/>
</linearGradient>
<linearGradient id="paint16_linear_1_31315" x1="89.7963" y1="61.0768" x2="88.56" y2="41.3569" gradientUnits="userSpaceOnUse">
<stop stop-color="white"/>
<stop offset="1" stop-color="white" stop-opacity="0.8"/>
</linearGradient>
<linearGradient id="paint17_linear_1_31315" x1="57.5161" y1="61.3652" x2="57.5161" y2="66.8854" gradientUnits="userSpaceOnUse">
<stop stop-color="#8AE9F2"/>
<stop offset="1" stop-color="#51D1E0"/>
</linearGradient>
<linearGradient id="paint18_linear_1_31315" x1="93.3177" y1="123.444" x2="90.2675" y2="109.517" gradientUnits="userSpaceOnUse">
<stop stop-color="#3EB8D6"/>
<stop offset="1" stop-color="#27B5C4"/>
</linearGradient>
<clipPath id="clip0_1_31315">
<rect width="170" height="170" fill="white"/>
</clipPath>
</defs>
</svg>
