<svg width="285" height="369" viewBox="0 0 285 369" fill="none" xmlns="http://www.w3.org/2000/svg">
<g opacity="0.1">
<path d="M0 320.93L2.0716e-06 368.323L47.3926 368.323L47.3926 320.93L0 320.93Z" fill="#73CEFF"/>
<path d="M94.7852 320.93L94.7852 368.323L142.178 368.323L142.178 320.93L94.7852 320.93Z" fill="#4DC0FE"/>
<path d="M142.179 320.93L142.179 368.323L189.571 368.323L189.571 320.93L142.179 320.93Z" fill="#7AD2F9" fill-opacity="0.29"/>
<path d="M142.179 273.537L142.179 320.93L189.571 320.93L189.571 273.537L142.179 273.537Z" fill="#69CFFF"/>
<path d="M189.57 320.93L189.57 368.323L236.963 368.323L236.963 320.93L189.57 320.93Z" fill="#4DC0FE"/>
<path d="M189.57 273.537L189.57 320.93L236.963 320.93L236.963 273.537L189.57 273.537Z" fill="#06B0FF"/>
<path d="M236.963 320.93L236.963 368.323L276.356 368.323C280.774 368.323 284.356 364.741 284.356 360.323L284.356 320.93L236.963 320.93Z" fill="#7ED2FF"/>
<path d="M236.963 273.537L236.963 320.93L284.356 320.93L284.356 273.537L236.963 273.537Z" fill="#DFF0FA"/>
<path d="M236.963 226.145L236.963 273.537L284.356 273.537L284.356 226.145L236.963 226.145Z" fill="#4FC7FF"/>
</g>
<g opacity="0.8">
<path opacity="0.05" d="M190 48L190 95L237 95L237 48L190 48Z" fill="#73CEFF"/>
<path opacity="0.08" d="M237 0L237 47L284 47L284 8C284 3.58172 280.418 -1.89787e-06 276 -1.70474e-06L237 0Z" fill="#4DC0FE"/>
<path opacity="0.08" d="M237 95L237 143L284 143L284 95L237 95Z" fill="#4DC0FE"/>
<path opacity="0.1" d="M142 0L142 47L189 47L189 -2.05444e-06L142 0Z" fill="#4DC0FE"/>
</g>
</svg>
