<svg width="170" height="170" viewBox="0 0 170 170" fill="none" xmlns="http://www.w3.org/2000/svg">
<g clip-path="url(#clip0_1_51774)">
<path opacity="0.42" d="M84.9993 147.333C119.425 147.333 147.333 119.425 147.333 84.9993C147.333 50.5736 119.425 22.666 84.9993 22.666C50.5736 22.666 22.666 50.5736 22.666 84.9993C22.666 119.425 50.5736 147.333 84.9993 147.333Z" fill="url(#paint0_linear_1_51774)"/>
<path d="M81.5997 48.4163L54.6037 60.2142C53.7171 60.5943 52.9618 61.2267 52.4318 62.0328C51.9019 62.8388 51.6206 63.7829 51.6231 64.7476V83.4136C51.6231 102.601 64.4071 120.598 82.0191 126.356C83.9554 126.991 86.044 126.991 87.9804 126.356C105.592 120.598 118.376 102.556 118.376 83.4136V64.7136C118.379 63.7489 118.098 62.8048 117.568 61.9988C117.038 61.1927 116.282 60.5603 115.396 60.1802L88.3997 48.4163C87.3256 47.9548 86.1688 47.7168 84.9997 47.7168C83.8307 47.7168 82.6739 47.9548 81.5997 48.4163Z" fill="url(#paint1_linear_1_51774)"/>
<path d="M82.4959 59.0118L62.8893 67.5798C62.2487 67.8589 61.703 68.3181 61.3187 68.9016C60.9344 69.4851 60.728 70.1678 60.7246 70.8665V84.4665C60.7246 98.4291 70.0179 111.53 82.8246 115.712C84.2381 116.177 85.7631 116.177 87.1766 115.712C99.9833 111.53 109.277 98.4291 109.277 84.4665V70.8665C109.273 70.1678 109.067 69.4851 108.682 68.9016C108.298 68.3181 107.753 67.8589 107.112 67.5798L87.5053 59.0118C86.7161 58.664 85.8631 58.4844 85.0006 58.4844C84.1382 58.4844 83.2852 58.664 82.4959 59.0118Z" fill="url(#paint2_linear_1_51774)"/>
<path d="M82.2692 100.096C81.4332 100.11 80.623 99.806 80.0025 99.2456L69.9952 90.281C69.3414 89.6948 68.9473 88.873 68.8994 87.9963C68.8516 87.1195 69.154 86.2597 69.7402 85.606C70.3263 84.9522 71.1481 84.5581 72.0249 84.5102C72.9016 84.4624 73.7614 84.7648 74.4152 85.351L81.9632 92.151L97.6145 74.7996C98.2021 74.1474 99.0248 73.7553 99.9015 73.7096C100.778 73.6639 101.637 73.9683 102.29 74.556C102.942 75.1436 103.334 75.9663 103.38 76.843C103.425 77.7197 103.121 78.5787 102.533 79.231L84.7285 98.9963C84.4186 99.3417 84.0395 99.6181 83.6158 99.8075C83.1921 99.9969 82.7333 100.095 82.2692 100.096Z" fill="url(#paint3_linear_1_51774)"/>
<path d="M43.5083 73.5205C44.5473 73.5205 45.3896 72.6782 45.3896 71.6391C45.3896 70.6001 44.5473 69.7578 43.5083 69.7578C42.4693 69.7578 41.627 70.6001 41.627 71.6391C41.627 72.6782 42.4693 73.5205 43.5083 73.5205Z" fill="url(#paint4_linear_1_51774)"/>
<path d="M111.793 129.075C113.132 129.075 114.218 127.989 114.218 126.65C114.218 125.31 113.132 124.225 111.793 124.225C110.453 124.225 109.367 125.31 109.367 126.65C109.367 127.989 110.453 129.075 111.793 129.075Z" fill="url(#paint5_linear_1_51774)"/>
<path d="M44.6995 102.907C43.9172 102.907 43.1525 102.675 42.502 102.24C41.8516 101.806 41.3446 101.188 41.0452 100.465C40.7459 99.7423 40.6675 98.947 40.8201 98.1798C40.9728 97.4125 41.3495 96.7077 41.9026 96.1546C42.4558 95.6014 43.1606 95.2247 43.9278 95.0721C44.6951 94.9195 45.4904 94.9978 46.2131 95.2972C46.9359 95.5965 47.5536 96.1035 47.9882 96.754C48.4228 97.4044 48.6548 98.1691 48.6548 98.9514C48.6548 100 48.2381 101.006 47.4963 101.748C46.7546 102.49 45.7485 102.907 44.6995 102.907ZM44.6995 96.6054C44.2323 96.6032 43.775 96.7398 43.3856 96.998C42.9962 97.2561 42.6923 97.6242 42.5124 98.0554C42.3326 98.4866 42.285 98.9615 42.3756 99.4199C42.4662 99.8782 42.6909 100.299 43.0213 100.63C43.3516 100.96 43.7727 101.185 44.2311 101.275C44.6894 101.366 45.1643 101.318 45.5955 101.138C46.0267 100.959 46.3948 100.655 46.6529 100.265C46.9111 99.8759 47.0477 99.4186 47.0455 98.9514C47.0425 98.3301 46.7944 97.7352 46.3551 97.2958C45.9157 96.8565 45.3208 96.6084 44.6995 96.6054Z" fill="url(#paint6_linear_1_51774)"/>
<path d="M134.63 38.0572L133.213 37.0372C133.236 36.7581 133.236 36.4776 133.213 36.1985L134.584 35.0652C134.801 34.8948 134.948 34.6511 134.998 34.3799C135.049 34.1087 134.998 33.8285 134.856 33.5919L132.964 30.4752C132.818 30.2455 132.595 30.0756 132.335 29.9965C132.075 29.9175 131.795 29.9345 131.547 30.0445L129.949 30.7585C129.712 30.6109 129.466 30.4784 129.212 30.3619L128.952 28.6392C128.911 28.3689 128.773 28.1226 128.565 27.9456C128.357 27.7686 128.092 27.6728 127.818 27.6759L124.169 27.7552C123.889 27.7535 123.618 27.8556 123.409 28.0419C123.199 28.2282 123.066 28.4854 123.036 28.7639L122.854 30.5999C122.73 30.6565 122.616 30.7359 122.492 30.8039L122.14 31.0305L120.52 30.3845C120.262 30.2813 119.975 30.2763 119.714 30.3703C119.453 30.4643 119.236 30.6508 119.103 30.8945L117.358 34.1132C117.228 34.354 117.19 34.6334 117.251 34.9C117.311 35.1666 117.466 35.4023 117.686 35.5639L119.103 36.5952C119.086 36.8707 119.086 37.147 119.103 37.4225L117.732 38.5559C117.515 38.7263 117.368 38.9699 117.317 39.2412C117.267 39.5124 117.318 39.7926 117.46 40.0292L119.375 43.0665C119.521 43.3017 119.748 43.4753 120.013 43.5546C120.278 43.634 120.563 43.6135 120.814 43.4972L122.412 42.7832C122.65 42.9288 122.896 43.0612 123.149 43.1799L123.398 44.9025C123.439 45.1728 123.577 45.4191 123.785 45.5961C123.993 45.7732 124.258 45.8689 124.532 45.8659L128.192 45.7865C128.472 45.7882 128.743 45.6861 128.953 45.4998C129.162 45.3135 129.295 45.0563 129.326 44.7779L129.496 43.0439C129.618 42.9844 129.735 42.9162 129.847 42.8399C129.969 42.7721 130.086 42.6964 130.198 42.6132L131.819 43.2479C132.077 43.351 132.363 43.3561 132.624 43.2621C132.885 43.1681 133.103 42.9816 133.236 42.7379L134.981 39.5305C135.114 39.2849 135.152 38.9985 135.088 38.7265C135.023 38.4546 134.86 38.2162 134.63 38.0572Z" fill="url(#paint7_linear_1_51774)"/>
<path d="M127.93 39.6663C127.356 40.018 126.69 40.1914 126.018 40.1645C125.345 40.1375 124.695 39.9114 124.151 39.5147C123.607 39.1181 123.193 38.5689 122.961 37.9366C122.73 37.3044 122.691 36.6176 122.85 35.9634C123.009 35.3092 123.359 34.7169 123.855 34.2617C124.352 33.8066 124.972 33.509 125.637 33.4067C126.303 33.3044 126.984 33.402 127.594 33.6871C128.204 33.9722 128.715 34.432 129.064 35.0083C129.528 35.7769 129.67 36.6982 129.458 37.571C129.245 38.4437 128.696 39.197 127.93 39.6663Z" fill="url(#paint8_linear_1_51774)"/>
<path d="M33.2398 84.728L36.5604 86.1333C36.6246 86.1583 36.6833 86.1958 36.7329 86.2436C36.7826 86.2914 36.8222 86.3486 36.8496 86.4118C36.877 86.4751 36.8916 86.5431 36.8926 86.612C36.8935 86.6809 36.8808 86.7493 36.8551 86.8133C36.8283 86.8797 36.7884 86.94 36.7378 86.9906C36.6871 87.0413 36.6268 87.0812 36.5604 87.108L33.2398 88.502C33.1091 88.5555 33.0037 88.6568 32.9451 88.7853L31.5058 92.106C31.4785 92.171 31.4387 92.2299 31.3886 92.2794C31.3384 92.3289 31.2789 92.368 31.2136 92.3943C31.1482 92.4207 31.0783 92.4338 31.0078 92.433C30.9374 92.4321 30.8678 92.4172 30.8031 92.3893C30.6779 92.3317 30.5774 92.2312 30.5198 92.106L29.1371 88.774C29.0913 88.6591 29.0124 88.5605 28.9104 88.4906L25.5104 87.0966C25.3799 87.0438 25.2756 86.9413 25.2204 86.8118C25.1652 86.6822 25.1635 86.5361 25.2158 86.4053C25.2432 86.3407 25.2835 86.2822 25.3342 86.2335C25.3848 86.1849 25.4447 86.1469 25.5104 86.122L28.9104 84.728C29.0356 84.6703 29.1361 84.5698 29.1938 84.4446L30.5991 81.1126C30.6564 80.9833 30.7618 80.8814 30.893 80.8285C31.0242 80.7756 31.1708 80.7759 31.3018 80.8293C31.366 80.8544 31.4244 80.8925 31.4731 80.9413C31.5219 80.99 31.56 81.0484 31.5851 81.1126L32.9678 84.4446C33.0209 84.5691 33.1176 84.6698 33.2398 84.728Z" fill="url(#paint9_linear_1_51774)"/>
<path d="M69.6773 35.9376L72.1707 36.9916C72.2198 37.0089 72.2649 37.0363 72.3028 37.072C72.3408 37.1077 72.3709 37.1509 72.3912 37.199C72.4115 37.247 72.4215 37.2987 72.4206 37.3508C72.4197 37.403 72.4079 37.4543 72.386 37.5016C72.3693 37.5518 72.3412 37.5974 72.3038 37.6347C72.2664 37.6721 72.2208 37.7003 72.1707 37.7169L69.6773 38.7709C69.6287 38.7872 69.5843 38.8139 69.5471 38.8491C69.5099 38.8843 69.4808 38.9273 69.462 38.9749L68.3287 41.4796C68.2992 41.5532 68.2484 41.6164 68.1828 41.6608C68.1171 41.7053 68.0396 41.7291 67.9603 41.7291C67.881 41.7291 67.8036 41.7053 67.7379 41.6608C67.6722 41.6164 67.6214 41.5532 67.592 41.4796L66.5493 38.9749C66.5156 38.8907 66.4561 38.8193 66.3793 38.7709L63.852 37.7169C63.7547 37.6789 63.6762 37.604 63.6338 37.5086C63.5914 37.4131 63.5883 37.3047 63.6253 37.2069C63.646 37.1572 63.6768 37.1123 63.7158 37.0753C63.7549 37.0382 63.8013 37.0097 63.852 36.9916L66.3793 35.9376C66.4276 35.9177 66.4715 35.8884 66.5085 35.8514C66.5454 35.8145 66.5747 35.7706 66.5947 35.7223L67.6373 33.2289C67.6572 33.1804 67.6865 33.1363 67.7235 33.0991C67.7605 33.0619 67.8046 33.0325 67.8531 33.0125C67.9015 32.9924 67.9535 32.9822 68.006 32.9824C68.0584 32.9826 68.1103 32.9932 68.1587 33.0136C68.207 33.0335 68.2509 33.0628 68.2878 33.0998C68.3248 33.1367 68.3541 33.1806 68.374 33.2289L69.4167 35.7223C69.4376 35.7778 69.4726 35.8269 69.5183 35.8646C69.5641 35.9024 69.6189 35.9276 69.6773 35.9376Z" fill="url(#paint10_linear_1_51774)"/>
<path d="M126.933 111.35L129.427 112.393C129.524 112.431 129.602 112.506 129.645 112.601C129.687 112.697 129.69 112.805 129.653 112.903C129.609 113.004 129.528 113.085 129.427 113.13L126.933 114.172C126.885 114.192 126.841 114.222 126.804 114.258C126.767 114.295 126.738 114.339 126.718 114.388L125.585 116.881C125.565 116.93 125.535 116.974 125.498 117.011C125.461 117.048 125.417 117.077 125.369 117.097C125.32 117.117 125.268 117.128 125.216 117.127C125.163 117.127 125.112 117.117 125.063 117.096C125.013 117.08 124.967 117.051 124.93 117.014C124.893 116.977 124.865 116.931 124.848 116.881L123.805 114.388C123.775 114.298 123.715 114.222 123.635 114.172L121.108 113.13C121.059 113.11 121.015 113.08 120.978 113.043C120.941 113.006 120.911 112.962 120.891 112.914C120.871 112.865 120.861 112.813 120.861 112.761C120.862 112.709 120.872 112.657 120.893 112.608C120.909 112.558 120.937 112.513 120.975 112.475C121.012 112.438 121.058 112.41 121.108 112.393L123.635 111.35C123.73 111.306 123.807 111.23 123.851 111.135L124.893 108.63C124.923 108.557 124.973 108.494 125.039 108.449C125.105 108.405 125.182 108.381 125.262 108.381C125.341 108.381 125.418 108.405 125.484 108.449C125.55 108.494 125.6 108.557 125.63 108.63L126.673 111.135C126.727 111.238 126.821 111.316 126.933 111.35Z" fill="url(#paint11_linear_1_51774)"/>
<path d="M126.082 74.2328C125.989 74.249 125.893 74.249 125.799 74.2328C125.688 74.1958 125.585 74.1369 125.496 74.0596C125.407 73.9823 125.335 73.8882 125.284 73.7827C125.232 73.6771 125.202 73.5624 125.195 73.445C125.188 73.3277 125.205 73.2102 125.244 73.0994C125.73 71.6659 126.364 70.2871 127.136 68.9854C127.259 68.7832 127.456 68.6375 127.685 68.5802C127.915 68.5229 128.157 68.5585 128.36 68.6794C128.46 68.7389 128.547 68.8175 128.617 68.9107C128.686 69.0038 128.736 69.1097 128.765 69.2223C128.793 69.335 128.799 69.4521 128.782 69.567C128.765 69.6819 128.726 69.7924 128.666 69.8921C127.958 71.086 127.377 72.3509 126.932 73.6661C126.867 73.8369 126.75 73.9831 126.598 74.0846C126.445 74.1861 126.265 74.2379 126.082 74.2328ZM130.4 66.7301C130.198 66.734 130.001 66.6656 129.845 66.5374C129.754 66.4648 129.678 66.3746 129.621 66.272C129.565 66.1695 129.531 66.0567 129.519 65.9405C129.507 65.8242 129.519 65.7068 129.554 65.5952C129.588 65.4836 129.645 65.3801 129.72 65.2908C130.658 64.1392 131.665 63.0454 132.735 62.0154C132.815 61.9183 132.915 61.8392 133.028 61.7834C133.141 61.7275 133.265 61.6962 133.391 61.6914C133.517 61.6866 133.642 61.7084 133.759 61.7555C133.876 61.8025 133.982 61.8737 134.069 61.9645C134.157 62.0552 134.224 62.1634 134.267 62.2819C134.31 62.4005 134.327 62.5267 134.318 62.6524C134.309 62.7781 134.273 62.9004 134.213 63.0114C134.153 63.1223 134.07 63.2193 133.97 63.2961C132.949 64.2758 131.987 65.3166 131.092 66.4128C131.007 66.5138 130.902 66.5947 130.782 66.6496C130.662 66.7045 130.532 66.732 130.4 66.7301ZM146.822 64.8828H146.584C146.468 64.8813 146.354 64.8569 146.247 64.8112C146.14 64.7654 146.044 64.699 145.963 64.6158C145.882 64.5327 145.818 64.4344 145.775 64.3266C145.732 64.2188 145.71 64.1035 145.712 63.9874C145.718 63.7529 145.814 63.5297 145.981 63.3648C146.148 63.2 146.372 63.1063 146.607 63.1034H146.822C148.138 63.1146 149.451 62.97 150.732 62.6728C150.962 62.6248 151.201 62.6676 151.4 62.7923C151.599 62.917 151.741 63.1138 151.798 63.3414C151.849 63.5712 151.807 63.8119 151.682 64.0113C151.557 64.2107 151.358 64.3527 151.129 64.4068C149.717 64.7303 148.272 64.89 146.822 64.8828ZM142.289 64.3614H142.085C140.613 64.0181 139.179 63.5323 137.801 62.9108C137.695 62.8624 137.6 62.7937 137.521 62.7086C137.442 62.6234 137.381 62.5235 137.34 62.4146C137.299 62.3057 137.281 62.1899 137.285 62.0737C137.289 61.9576 137.316 61.8434 137.365 61.7378C137.413 61.6321 137.482 61.537 137.567 61.4579C137.652 61.3787 137.752 61.3172 137.861 61.2767C137.97 61.2361 138.086 61.2175 138.202 61.2217C138.318 61.226 138.432 61.2531 138.538 61.3014C139.804 61.8767 141.125 62.321 142.482 62.6274C142.711 62.6814 142.91 62.8235 143.035 63.0229C143.16 63.2223 143.201 63.4629 143.15 63.6928C143.102 63.8845 142.991 64.0545 142.835 64.1757C142.679 64.2969 142.487 64.3623 142.289 64.3614ZM154.914 62.7974C154.722 62.7985 154.535 62.7369 154.381 62.6221C154.227 62.5073 154.115 62.3454 154.061 62.161C154.007 61.9765 154.015 61.7796 154.083 61.6C154.151 61.4204 154.276 61.2678 154.438 61.1654C155.515 60.5562 156.324 59.5654 156.705 58.3888C156.732 58.2758 156.78 58.1693 156.849 58.0755C156.917 57.9816 157.003 57.9023 157.102 57.8421C157.201 57.782 157.312 57.7422 157.426 57.7251C157.541 57.7081 157.658 57.7141 157.77 57.7428C157.884 57.7694 157.99 57.8181 158.085 57.8861C158.179 57.9541 158.259 58.0401 158.32 58.139C158.381 58.238 158.422 58.348 158.441 58.4628C158.459 58.5776 158.455 58.695 158.428 58.8081C157.945 60.4306 156.858 61.8058 155.39 62.6501C155.25 62.7456 155.084 62.797 154.914 62.7974ZM134.412 60.8028C134.226 60.8061 134.044 60.7506 133.891 60.6441C132.67 59.7684 131.532 58.782 130.491 57.6974C130.326 57.5318 130.234 57.3077 130.234 57.0741C130.234 56.8405 130.326 56.6164 130.491 56.4508C130.659 56.2853 130.885 56.1926 131.12 56.1926C131.356 56.1926 131.582 56.2853 131.749 56.4508C132.721 57.4555 133.779 58.3732 134.911 59.1934C135.061 59.3028 135.173 59.4566 135.23 59.633C135.288 59.8094 135.289 59.9995 135.232 60.1763C135.176 60.3531 135.065 60.5076 134.916 60.618C134.767 60.7284 134.587 60.7891 134.401 60.7914L134.412 60.8028ZM136.679 60.7008C136.543 60.6986 136.409 60.666 136.288 60.6052C136.166 60.5443 136.06 60.4569 135.976 60.3494C135.835 60.1642 135.772 59.9305 135.801 59.6991C135.831 59.4677 135.951 59.2574 136.135 59.1141C137.308 58.203 138.526 57.3519 139.784 56.5641C139.984 56.4409 140.225 56.4021 140.453 56.4563C140.682 56.5105 140.88 56.6532 141.003 56.8531C141.126 57.053 141.165 57.2936 141.111 57.5221C141.056 57.7506 140.914 57.9482 140.714 58.0714C139.58 58.8194 138.345 59.6354 137.223 60.5081C137.059 60.6388 136.855 60.7071 136.645 60.7008H136.679ZM144.068 56.1674C143.899 56.171 143.732 56.1245 143.589 56.0338C143.446 55.9431 143.333 55.8122 143.264 55.6574C143.18 55.4489 143.178 55.2167 143.258 55.0068C143.338 54.7968 143.494 54.6246 143.694 54.5241C145.05 53.8807 146.456 53.3501 147.899 52.9374C148.014 52.8977 148.137 52.8826 148.258 52.893C148.379 52.9034 148.497 52.9391 148.604 52.9978C148.711 53.0566 148.804 53.137 148.878 53.2339C148.952 53.3309 149.004 53.4422 149.032 53.5608C149.071 53.6753 149.085 53.7963 149.074 53.9166C149.064 54.0368 149.029 54.1535 148.971 54.2597C148.914 54.3659 148.836 54.4592 148.741 54.5339C148.646 54.6086 148.537 54.6631 148.42 54.6941C147.072 55.0828 145.757 55.5793 144.488 56.1788C144.334 56.1999 144.178 56.1804 144.034 56.1221L144.068 56.1674ZM156.399 55.5328C156.283 55.5349 156.167 55.5128 156.06 55.468C155.953 55.4231 155.856 55.3564 155.776 55.2721C154.845 54.4342 153.627 53.9877 152.376 54.0254C152.26 54.0217 152.145 53.9952 152.04 53.9473C151.934 53.8994 151.838 53.8312 151.759 53.7465C151.68 53.6618 151.618 53.5622 151.577 53.4535C151.536 53.3449 151.516 53.2292 151.52 53.1131C151.524 52.997 151.55 52.8828 151.598 52.777C151.646 52.6711 151.714 52.5758 151.799 52.4963C151.884 52.4169 151.983 52.3549 152.092 52.3139C152.201 52.2729 152.316 52.2537 152.432 52.2574C154.115 52.2393 155.74 52.8729 156.966 54.0254C157.131 54.193 157.224 54.419 157.224 54.6544C157.224 54.8899 157.131 55.1159 156.966 55.2834C156.814 55.433 156.612 55.5217 156.399 55.5328ZM128.417 54.6488C128.274 54.649 128.133 54.614 128.006 54.5468C127.88 54.4796 127.772 54.3823 127.692 54.2634C127.51 54.0028 127.329 53.7421 127.159 53.4701C127.031 53.2732 126.987 53.0337 127.036 52.8041C127.085 52.5746 127.223 52.3738 127.42 52.2461C127.617 52.1183 127.856 52.074 128.086 52.1229C128.315 52.1718 128.516 52.3099 128.644 52.5068L129.142 53.2548C129.21 53.3499 129.258 53.4574 129.283 53.5711C129.309 53.6848 129.312 53.8024 129.292 53.9172C129.272 54.032 129.229 54.1417 129.167 54.2401C129.104 54.3384 129.023 54.4234 128.927 54.4901C128.759 54.5866 128.565 54.6301 128.372 54.6148L128.417 54.6488Z" fill="url(#paint12_linear_1_51774)"/>
</g>
<defs>
<linearGradient id="paint0_linear_1_51774" x1="47.418" y1="124.802" x2="128.633" y2="38.782" gradientUnits="userSpaceOnUse">
<stop stop-color="#E0F8FF"/>
<stop offset="1" stop-color="#BFF5FF"/>
</linearGradient>
<linearGradient id="paint1_linear_1_51774" x1="61.7664" y1="109.616" x2="105.003" y2="56.9389" gradientUnits="userSpaceOnUse">
<stop stop-color="#3EB8D6"/>
<stop offset="1" stop-color="#27B5C4"/>
</linearGradient>
<linearGradient id="paint2_linear_1_51774" x1="60.7246" y1="87.2658" x2="109.277" y2="87.2658" gradientUnits="userSpaceOnUse">
<stop stop-color="#8AE9F2"/>
<stop offset="1" stop-color="#51D1E0"/>
</linearGradient>
<linearGradient id="paint3_linear_1_51774" x1="68.9525" y1="86.8923" x2="103.394" y2="86.8923" gradientUnits="userSpaceOnUse">
<stop offset="0.46" stop-color="white"/>
<stop offset="1" stop-color="white" stop-opacity="0.8"/>
</linearGradient>
<linearGradient id="paint4_linear_1_51774" x1="-1524.53" y1="7146.78" x2="-1532.51" y2="7138.85" gradientUnits="userSpaceOnUse">
<stop stop-color="#8AE9F2"/>
<stop offset="1" stop-color="#51D1E0"/>
</linearGradient>
<linearGradient id="paint5_linear_1_51774" x1="580.755" y1="5481.24" x2="594.046" y2="5494.44" gradientUnits="userSpaceOnUse">
<stop stop-color="#8AE9F2"/>
<stop offset="1" stop-color="#51D1E0"/>
</linearGradient>
<linearGradient id="paint6_linear_1_51774" x1="-3914.82" y1="27477.2" x2="-3953.98" y2="27438.3" gradientUnits="userSpaceOnUse">
<stop stop-color="#80EFFA"/>
<stop offset="1" stop-color="#28CCDE"/>
</linearGradient>
<linearGradient id="paint7_linear_1_51774" x1="2036.37" y1="496.254" x2="2185.72" y2="737.839" gradientUnits="userSpaceOnUse">
<stop stop-color="#8AE9F2"/>
<stop offset="1" stop-color="#51D1E0"/>
</linearGradient>
<linearGradient id="paint8_linear_1_51774" x1="124.406" y1="33.8976" x2="127.93" y2="39.6776" gradientUnits="userSpaceOnUse">
<stop stop-color="white"/>
<stop offset="1" stop-color="white" stop-opacity="0.8"/>
</linearGradient>
<linearGradient id="paint9_linear_1_51774" x1="285.834" y1="15145.5" x2="406.028" y2="15145.5" gradientUnits="userSpaceOnUse">
<stop stop-color="#8AE9F2"/>
<stop offset="1" stop-color="#51D1E0"/>
</linearGradient>
<linearGradient id="paint10_linear_1_51774" x1="558.988" y1="10639.8" x2="626.998" y2="10639.8" gradientUnits="userSpaceOnUse">
<stop stop-color="#8AE9F2"/>
<stop offset="1" stop-color="#51D1E0"/>
</linearGradient>
<linearGradient id="paint11_linear_1_51774" x1="1061.87" y1="11146.4" x2="1129.86" y2="11146.4" gradientUnits="userSpaceOnUse">
<stop stop-color="#8AE9F2"/>
<stop offset="1" stop-color="#51D1E0"/>
</linearGradient>
<linearGradient id="paint12_linear_1_51774" x1="3798.26" y1="1491.74" x2="4265.24" y2="794.298" gradientUnits="userSpaceOnUse">
<stop stop-color="#80EFFA"/>
<stop offset="1" stop-color="#28CCDE"/>
</linearGradient>
<clipPath id="clip0_1_51774">
<rect width="170" height="170" fill="white"/>
</clipPath>
</defs>
</svg>
