<svg width="234" height="36" viewBox="0 0 234 36" fill="none" xmlns="http://www.w3.org/2000/svg">
<g filter="url(#filter0_b_7776_152104)">
<rect width="229" height="36" rx="5" fill="#EDEDED" fill-opacity="0.02"/>
</g>
<g filter="url(#filter1_b_7776_152104)">
<rect width="6" height="6" fill="black" fill-opacity="0.12"/>
<rect x="6" y="6" width="6" height="6" fill="black" fill-opacity="0.12"/>
<rect x="12" y="12" width="6" height="6" fill="black" fill-opacity="0.12"/>
<rect x="18" y="18" width="6" height="6" fill="black" fill-opacity="0.12"/>
<rect x="24" y="24" width="6" height="6" fill="black" fill-opacity="0.12"/>
<rect x="30" y="30" width="6" height="6" fill="black" fill-opacity="0.12"/>
</g>
<g filter="url(#filter2_b_7776_152104)">
<rect y="12" width="6" height="6" fill="black" fill-opacity="0.12"/>
<rect x="6" y="18" width="6" height="6" fill="black" fill-opacity="0.12"/>
<rect x="12" y="24" width="6" height="6" fill="black" fill-opacity="0.12"/>
<rect x="18" y="30" width="6" height="6" fill="black" fill-opacity="0.12"/>
</g>
<g filter="url(#filter3_b_7776_152104)">
<rect y="24" width="6" height="6" fill="black" fill-opacity="0.12"/>
<rect x="6" y="30" width="6" height="6" fill="black" fill-opacity="0.12"/>
</g>
<g filter="url(#filter4_b_7776_152104)">
<rect x="12" width="6" height="6" fill="black" fill-opacity="0.12"/>
<rect x="18" y="6" width="6" height="6" fill="black" fill-opacity="0.12"/>
<rect x="24" y="12" width="6" height="6" fill="black" fill-opacity="0.12"/>
<rect x="30" y="18" width="6" height="6" fill="black" fill-opacity="0.12"/>
<rect x="36" y="24" width="6" height="6" fill="black" fill-opacity="0.12"/>
<rect x="42" y="30" width="6" height="6" fill="black" fill-opacity="0.12"/>
</g>
<g filter="url(#filter5_b_7776_152104)">
<rect x="24" width="6" height="6" fill="black" fill-opacity="0.12"/>
<rect x="30" y="6" width="6" height="6" fill="black" fill-opacity="0.12"/>
<rect x="36" y="12" width="6" height="6" fill="black" fill-opacity="0.12"/>
<rect x="42" y="18" width="6" height="6" fill="black" fill-opacity="0.12"/>
<rect x="48" y="24" width="6" height="6" fill="black" fill-opacity="0.12"/>
<rect x="54" y="30" width="6" height="6" fill="black" fill-opacity="0.12"/>
</g>
<g filter="url(#filter6_b_7776_152104)">
<rect x="36" width="6" height="6" fill="black" fill-opacity="0.12"/>
<rect x="42" y="6" width="6" height="6" fill="black" fill-opacity="0.12"/>
<rect x="48" y="12" width="6" height="6" fill="black" fill-opacity="0.12"/>
<rect x="54" y="18" width="6" height="6" fill="black" fill-opacity="0.12"/>
<rect x="60" y="24" width="6" height="6" fill="black" fill-opacity="0.12"/>
<rect x="66" y="30" width="6" height="6" fill="black" fill-opacity="0.12"/>
</g>
<g filter="url(#filter7_b_7776_152104)">
<rect x="48" width="6" height="6" fill="black" fill-opacity="0.12"/>
<rect x="54" y="6" width="6" height="6" fill="black" fill-opacity="0.12"/>
<rect x="60" y="12" width="6" height="6" fill="black" fill-opacity="0.12"/>
<rect x="66" y="18" width="6" height="6" fill="black" fill-opacity="0.12"/>
<rect x="72" y="24" width="6" height="6" fill="black" fill-opacity="0.12"/>
<rect x="78" y="30" width="6" height="6" fill="black" fill-opacity="0.12"/>
</g>
<g filter="url(#filter8_b_7776_152104)">
<rect x="60" width="6" height="6" fill="black" fill-opacity="0.12"/>
<rect x="66" y="6" width="6" height="6" fill="black" fill-opacity="0.12"/>
<rect x="72" y="12" width="6" height="6" fill="black" fill-opacity="0.12"/>
<rect x="78" y="18" width="6" height="6" fill="black" fill-opacity="0.12"/>
<rect x="84" y="24" width="6" height="6" fill="black" fill-opacity="0.12"/>
<rect x="90" y="30" width="6" height="6" fill="black" fill-opacity="0.12"/>
</g>
<g filter="url(#filter9_b_7776_152104)">
<rect x="72" width="6" height="6" fill="black" fill-opacity="0.12"/>
<rect x="78" y="6" width="6" height="6" fill="black" fill-opacity="0.12"/>
<rect x="84" y="12" width="6" height="6" fill="black" fill-opacity="0.12"/>
<rect x="90" y="18" width="6" height="6" fill="black" fill-opacity="0.12"/>
<rect x="96" y="24" width="6" height="6" fill="black" fill-opacity="0.12"/>
<rect x="102" y="30" width="6" height="6" fill="black" fill-opacity="0.12"/>
</g>
<g filter="url(#filter10_b_7776_152104)">
<rect x="84" width="6" height="6" fill="black" fill-opacity="0.12"/>
<rect x="90" y="6" width="6" height="6" fill="black" fill-opacity="0.12"/>
<rect x="96" y="12" width="6" height="6" fill="black" fill-opacity="0.12"/>
<rect x="102" y="18" width="6" height="6" fill="black" fill-opacity="0.12"/>
<rect x="108" y="24" width="6" height="6" fill="black" fill-opacity="0.12"/>
<rect x="114" y="30" width="6" height="6" fill="black" fill-opacity="0.12"/>
</g>
<g filter="url(#filter11_b_7776_152104)">
<rect x="96" width="6" height="6" fill="black" fill-opacity="0.12"/>
<rect x="102" y="6" width="6" height="6" fill="black" fill-opacity="0.12"/>
<rect x="108" y="12" width="6" height="6" fill="black" fill-opacity="0.12"/>
<rect x="114" y="18" width="6" height="6" fill="black" fill-opacity="0.12"/>
<rect x="120" y="24" width="6" height="6" fill="black" fill-opacity="0.12"/>
<rect x="126" y="30" width="6" height="6" fill="black" fill-opacity="0.12"/>
</g>
<g filter="url(#filter12_b_7776_152104)">
<rect x="108" width="6" height="6" fill="black" fill-opacity="0.12"/>
<rect x="114" y="6" width="6" height="6" fill="black" fill-opacity="0.12"/>
<rect x="120" y="12" width="6" height="6" fill="black" fill-opacity="0.12"/>
<rect x="126" y="18" width="6" height="6" fill="black" fill-opacity="0.12"/>
<rect x="132" y="24" width="6" height="6" fill="black" fill-opacity="0.12"/>
<rect x="138" y="30" width="6" height="6" fill="black" fill-opacity="0.12"/>
</g>
<g filter="url(#filter13_b_7776_152104)">
<rect x="120" width="6" height="6" fill="black" fill-opacity="0.12"/>
<rect x="126" y="6" width="6" height="6" fill="black" fill-opacity="0.12"/>
<rect x="132" y="12" width="6" height="6" fill="black" fill-opacity="0.12"/>
<rect x="138" y="18" width="6" height="6" fill="black" fill-opacity="0.12"/>
<rect x="144" y="24" width="6" height="6" fill="black" fill-opacity="0.12"/>
<rect x="150" y="30" width="6" height="6" fill="black" fill-opacity="0.12"/>
</g>
<g filter="url(#filter14_b_7776_152104)">
<rect x="132" width="6" height="6" fill="black" fill-opacity="0.12"/>
<rect x="138" y="6" width="6" height="6" fill="black" fill-opacity="0.12"/>
<rect x="144" y="12" width="6" height="6" fill="black" fill-opacity="0.12"/>
<rect x="150" y="18" width="6" height="6" fill="black" fill-opacity="0.12"/>
<rect x="156" y="24" width="6" height="6" fill="black" fill-opacity="0.12"/>
<rect x="162" y="30" width="6" height="6" fill="black" fill-opacity="0.12"/>
</g>
<g filter="url(#filter15_b_7776_152104)">
<rect x="144" width="6" height="6" fill="black" fill-opacity="0.12"/>
<rect x="150" y="6" width="6" height="6" fill="black" fill-opacity="0.12"/>
<rect x="156" y="12" width="6" height="6" fill="black" fill-opacity="0.12"/>
<rect x="162" y="18" width="6" height="6" fill="black" fill-opacity="0.12"/>
<rect x="168" y="24" width="6" height="6" fill="black" fill-opacity="0.12"/>
<rect x="174" y="30" width="6" height="6" fill="black" fill-opacity="0.12"/>
</g>
<g filter="url(#filter16_b_7776_152104)">
<rect x="156" width="6" height="6" fill="black" fill-opacity="0.12"/>
<rect x="162" y="6" width="6" height="6" fill="black" fill-opacity="0.12"/>
<rect x="168" y="12" width="6" height="6" fill="black" fill-opacity="0.12"/>
<rect x="174" y="18" width="6" height="6" fill="black" fill-opacity="0.12"/>
<rect x="180" y="24" width="6" height="6" fill="black" fill-opacity="0.12"/>
<rect x="186" y="30" width="6" height="6" fill="black" fill-opacity="0.12"/>
</g>
<g filter="url(#filter17_b_7776_152104)">
<rect x="168" width="6" height="6" fill="black" fill-opacity="0.12"/>
<rect x="174" y="6" width="6" height="6" fill="black" fill-opacity="0.12"/>
<rect x="180" y="12" width="6" height="6" fill="black" fill-opacity="0.12"/>
<rect x="186" y="18" width="6" height="6" fill="black" fill-opacity="0.12"/>
<rect x="192" y="24" width="6" height="6" fill="black" fill-opacity="0.12"/>
<rect x="198" y="30" width="6" height="6" fill="black" fill-opacity="0.12"/>
</g>
<g filter="url(#filter18_b_7776_152104)">
<rect x="180" width="6" height="6" fill="black" fill-opacity="0.12"/>
<rect x="186" y="6" width="6" height="6" fill="black" fill-opacity="0.12"/>
<rect x="192" y="12" width="6" height="6" fill="black" fill-opacity="0.12"/>
<rect x="198" y="18" width="6" height="6" fill="black" fill-opacity="0.12"/>
<rect x="204" y="24" width="6" height="6" fill="black" fill-opacity="0.12"/>
<rect x="210" y="30" width="6" height="6" fill="black" fill-opacity="0.12"/>
</g>
<g filter="url(#filter19_b_7776_152104)">
<rect x="192" width="6" height="6" fill="black" fill-opacity="0.12"/>
<rect x="198" y="6" width="6" height="6" fill="black" fill-opacity="0.12"/>
<rect x="204" y="12" width="6" height="6" fill="black" fill-opacity="0.12"/>
<rect x="210" y="18" width="6" height="6" fill="black" fill-opacity="0.12"/>
<rect x="216" y="24" width="6" height="6" fill="black" fill-opacity="0.12"/>
<rect x="222" y="30" width="6" height="6" fill="black" fill-opacity="0.12"/>
</g>
<g filter="url(#filter20_b_7776_152104)">
<rect x="204" width="6" height="6" fill="black" fill-opacity="0.12"/>
<rect x="210" y="6" width="6" height="6" fill="black" fill-opacity="0.12"/>
<rect x="216" y="12" width="6" height="6" fill="black" fill-opacity="0.12"/>
<rect x="222" y="18" width="6" height="6" fill="black" fill-opacity="0.12"/>
<rect x="228" y="24" width="6" height="6" fill="black" fill-opacity="0.12"/>
</g>
<g filter="url(#filter21_b_7776_152104)">
<rect x="216" width="6" height="6" fill="black" fill-opacity="0.12"/>
<rect x="222" y="6" width="6" height="6" fill="black" fill-opacity="0.12"/>
<rect x="228" y="12" width="6" height="6" fill="black" fill-opacity="0.12"/>
</g>
<defs>
<filter id="filter0_b_7776_152104" x="-9" y="-9" width="247" height="54" filterUnits="userSpaceOnUse" color-interpolation-filters="sRGB">
<feFlood flood-opacity="0" result="BackgroundImageFix"/>
<feGaussianBlur in="BackgroundImageFix" stdDeviation="4.5"/>
<feComposite in2="SourceAlpha" operator="in" result="effect1_backgroundBlur_7776_152104"/>
<feBlend mode="normal" in="SourceGraphic" in2="effect1_backgroundBlur_7776_152104" result="shape"/>
</filter>
<filter id="filter1_b_7776_152104" x="-4" y="-4" width="44" height="44" filterUnits="userSpaceOnUse" color-interpolation-filters="sRGB">
<feFlood flood-opacity="0" result="BackgroundImageFix"/>
<feGaussianBlur in="BackgroundImageFix" stdDeviation="2"/>
<feComposite in2="SourceAlpha" operator="in" result="effect1_backgroundBlur_7776_152104"/>
<feBlend mode="normal" in="SourceGraphic" in2="effect1_backgroundBlur_7776_152104" result="shape"/>
</filter>
<filter id="filter2_b_7776_152104" x="-4" y="8" width="32" height="32" filterUnits="userSpaceOnUse" color-interpolation-filters="sRGB">
<feFlood flood-opacity="0" result="BackgroundImageFix"/>
<feGaussianBlur in="BackgroundImageFix" stdDeviation="2"/>
<feComposite in2="SourceAlpha" operator="in" result="effect1_backgroundBlur_7776_152104"/>
<feBlend mode="normal" in="SourceGraphic" in2="effect1_backgroundBlur_7776_152104" result="shape"/>
</filter>
<filter id="filter3_b_7776_152104" x="-4" y="20" width="20" height="20" filterUnits="userSpaceOnUse" color-interpolation-filters="sRGB">
<feFlood flood-opacity="0" result="BackgroundImageFix"/>
<feGaussianBlur in="BackgroundImageFix" stdDeviation="2"/>
<feComposite in2="SourceAlpha" operator="in" result="effect1_backgroundBlur_7776_152104"/>
<feBlend mode="normal" in="SourceGraphic" in2="effect1_backgroundBlur_7776_152104" result="shape"/>
</filter>
<filter id="filter4_b_7776_152104" x="8" y="-4" width="44" height="44" filterUnits="userSpaceOnUse" color-interpolation-filters="sRGB">
<feFlood flood-opacity="0" result="BackgroundImageFix"/>
<feGaussianBlur in="BackgroundImageFix" stdDeviation="2"/>
<feComposite in2="SourceAlpha" operator="in" result="effect1_backgroundBlur_7776_152104"/>
<feBlend mode="normal" in="SourceGraphic" in2="effect1_backgroundBlur_7776_152104" result="shape"/>
</filter>
<filter id="filter5_b_7776_152104" x="20" y="-4" width="44" height="44" filterUnits="userSpaceOnUse" color-interpolation-filters="sRGB">
<feFlood flood-opacity="0" result="BackgroundImageFix"/>
<feGaussianBlur in="BackgroundImageFix" stdDeviation="2"/>
<feComposite in2="SourceAlpha" operator="in" result="effect1_backgroundBlur_7776_152104"/>
<feBlend mode="normal" in="SourceGraphic" in2="effect1_backgroundBlur_7776_152104" result="shape"/>
</filter>
<filter id="filter6_b_7776_152104" x="32" y="-4" width="44" height="44" filterUnits="userSpaceOnUse" color-interpolation-filters="sRGB">
<feFlood flood-opacity="0" result="BackgroundImageFix"/>
<feGaussianBlur in="BackgroundImageFix" stdDeviation="2"/>
<feComposite in2="SourceAlpha" operator="in" result="effect1_backgroundBlur_7776_152104"/>
<feBlend mode="normal" in="SourceGraphic" in2="effect1_backgroundBlur_7776_152104" result="shape"/>
</filter>
<filter id="filter7_b_7776_152104" x="44" y="-4" width="44" height="44" filterUnits="userSpaceOnUse" color-interpolation-filters="sRGB">
<feFlood flood-opacity="0" result="BackgroundImageFix"/>
<feGaussianBlur in="BackgroundImageFix" stdDeviation="2"/>
<feComposite in2="SourceAlpha" operator="in" result="effect1_backgroundBlur_7776_152104"/>
<feBlend mode="normal" in="SourceGraphic" in2="effect1_backgroundBlur_7776_152104" result="shape"/>
</filter>
<filter id="filter8_b_7776_152104" x="56" y="-4" width="44" height="44" filterUnits="userSpaceOnUse" color-interpolation-filters="sRGB">
<feFlood flood-opacity="0" result="BackgroundImageFix"/>
<feGaussianBlur in="BackgroundImageFix" stdDeviation="2"/>
<feComposite in2="SourceAlpha" operator="in" result="effect1_backgroundBlur_7776_152104"/>
<feBlend mode="normal" in="SourceGraphic" in2="effect1_backgroundBlur_7776_152104" result="shape"/>
</filter>
<filter id="filter9_b_7776_152104" x="68" y="-4" width="44" height="44" filterUnits="userSpaceOnUse" color-interpolation-filters="sRGB">
<feFlood flood-opacity="0" result="BackgroundImageFix"/>
<feGaussianBlur in="BackgroundImageFix" stdDeviation="2"/>
<feComposite in2="SourceAlpha" operator="in" result="effect1_backgroundBlur_7776_152104"/>
<feBlend mode="normal" in="SourceGraphic" in2="effect1_backgroundBlur_7776_152104" result="shape"/>
</filter>
<filter id="filter10_b_7776_152104" x="80" y="-4" width="44" height="44" filterUnits="userSpaceOnUse" color-interpolation-filters="sRGB">
<feFlood flood-opacity="0" result="BackgroundImageFix"/>
<feGaussianBlur in="BackgroundImageFix" stdDeviation="2"/>
<feComposite in2="SourceAlpha" operator="in" result="effect1_backgroundBlur_7776_152104"/>
<feBlend mode="normal" in="SourceGraphic" in2="effect1_backgroundBlur_7776_152104" result="shape"/>
</filter>
<filter id="filter11_b_7776_152104" x="92" y="-4" width="44" height="44" filterUnits="userSpaceOnUse" color-interpolation-filters="sRGB">
<feFlood flood-opacity="0" result="BackgroundImageFix"/>
<feGaussianBlur in="BackgroundImageFix" stdDeviation="2"/>
<feComposite in2="SourceAlpha" operator="in" result="effect1_backgroundBlur_7776_152104"/>
<feBlend mode="normal" in="SourceGraphic" in2="effect1_backgroundBlur_7776_152104" result="shape"/>
</filter>
<filter id="filter12_b_7776_152104" x="104" y="-4" width="44" height="44" filterUnits="userSpaceOnUse" color-interpolation-filters="sRGB">
<feFlood flood-opacity="0" result="BackgroundImageFix"/>
<feGaussianBlur in="BackgroundImageFix" stdDeviation="2"/>
<feComposite in2="SourceAlpha" operator="in" result="effect1_backgroundBlur_7776_152104"/>
<feBlend mode="normal" in="SourceGraphic" in2="effect1_backgroundBlur_7776_152104" result="shape"/>
</filter>
<filter id="filter13_b_7776_152104" x="116" y="-4" width="44" height="44" filterUnits="userSpaceOnUse" color-interpolation-filters="sRGB">
<feFlood flood-opacity="0" result="BackgroundImageFix"/>
<feGaussianBlur in="BackgroundImageFix" stdDeviation="2"/>
<feComposite in2="SourceAlpha" operator="in" result="effect1_backgroundBlur_7776_152104"/>
<feBlend mode="normal" in="SourceGraphic" in2="effect1_backgroundBlur_7776_152104" result="shape"/>
</filter>
<filter id="filter14_b_7776_152104" x="128" y="-4" width="44" height="44" filterUnits="userSpaceOnUse" color-interpolation-filters="sRGB">
<feFlood flood-opacity="0" result="BackgroundImageFix"/>
<feGaussianBlur in="BackgroundImageFix" stdDeviation="2"/>
<feComposite in2="SourceAlpha" operator="in" result="effect1_backgroundBlur_7776_152104"/>
<feBlend mode="normal" in="SourceGraphic" in2="effect1_backgroundBlur_7776_152104" result="shape"/>
</filter>
<filter id="filter15_b_7776_152104" x="140" y="-4" width="44" height="44" filterUnits="userSpaceOnUse" color-interpolation-filters="sRGB">
<feFlood flood-opacity="0" result="BackgroundImageFix"/>
<feGaussianBlur in="BackgroundImageFix" stdDeviation="2"/>
<feComposite in2="SourceAlpha" operator="in" result="effect1_backgroundBlur_7776_152104"/>
<feBlend mode="normal" in="SourceGraphic" in2="effect1_backgroundBlur_7776_152104" result="shape"/>
</filter>
<filter id="filter16_b_7776_152104" x="152" y="-4" width="44" height="44" filterUnits="userSpaceOnUse" color-interpolation-filters="sRGB">
<feFlood flood-opacity="0" result="BackgroundImageFix"/>
<feGaussianBlur in="BackgroundImageFix" stdDeviation="2"/>
<feComposite in2="SourceAlpha" operator="in" result="effect1_backgroundBlur_7776_152104"/>
<feBlend mode="normal" in="SourceGraphic" in2="effect1_backgroundBlur_7776_152104" result="shape"/>
</filter>
<filter id="filter17_b_7776_152104" x="164" y="-4" width="44" height="44" filterUnits="userSpaceOnUse" color-interpolation-filters="sRGB">
<feFlood flood-opacity="0" result="BackgroundImageFix"/>
<feGaussianBlur in="BackgroundImageFix" stdDeviation="2"/>
<feComposite in2="SourceAlpha" operator="in" result="effect1_backgroundBlur_7776_152104"/>
<feBlend mode="normal" in="SourceGraphic" in2="effect1_backgroundBlur_7776_152104" result="shape"/>
</filter>
<filter id="filter18_b_7776_152104" x="176" y="-4" width="44" height="44" filterUnits="userSpaceOnUse" color-interpolation-filters="sRGB">
<feFlood flood-opacity="0" result="BackgroundImageFix"/>
<feGaussianBlur in="BackgroundImageFix" stdDeviation="2"/>
<feComposite in2="SourceAlpha" operator="in" result="effect1_backgroundBlur_7776_152104"/>
<feBlend mode="normal" in="SourceGraphic" in2="effect1_backgroundBlur_7776_152104" result="shape"/>
</filter>
<filter id="filter19_b_7776_152104" x="188" y="-4" width="44" height="44" filterUnits="userSpaceOnUse" color-interpolation-filters="sRGB">
<feFlood flood-opacity="0" result="BackgroundImageFix"/>
<feGaussianBlur in="BackgroundImageFix" stdDeviation="2"/>
<feComposite in2="SourceAlpha" operator="in" result="effect1_backgroundBlur_7776_152104"/>
<feBlend mode="normal" in="SourceGraphic" in2="effect1_backgroundBlur_7776_152104" result="shape"/>
</filter>
<filter id="filter20_b_7776_152104" x="200" y="-4" width="38" height="38" filterUnits="userSpaceOnUse" color-interpolation-filters="sRGB">
<feFlood flood-opacity="0" result="BackgroundImageFix"/>
<feGaussianBlur in="BackgroundImageFix" stdDeviation="2"/>
<feComposite in2="SourceAlpha" operator="in" result="effect1_backgroundBlur_7776_152104"/>
<feBlend mode="normal" in="SourceGraphic" in2="effect1_backgroundBlur_7776_152104" result="shape"/>
</filter>
<filter id="filter21_b_7776_152104" x="212" y="-4" width="26" height="26" filterUnits="userSpaceOnUse" color-interpolation-filters="sRGB">
<feFlood flood-opacity="0" result="BackgroundImageFix"/>
<feGaussianBlur in="BackgroundImageFix" stdDeviation="2"/>
<feComposite in2="SourceAlpha" operator="in" result="effect1_backgroundBlur_7776_152104"/>
<feBlend mode="normal" in="SourceGraphic" in2="effect1_backgroundBlur_7776_152104" result="shape"/>
</filter>
</defs>
</svg>
