<svg width="16" height="16" viewBox="0 0 16 16" fill="none" xmlns="http://www.w3.org/2000/svg">
<path d="M13.0095 13.6076C12.8504 13.6074 12.6979 13.5441 12.5855 13.4316L2.5855 3.43155C2.52655 3.37662 2.47927 3.31038 2.44647 3.23678C2.41368 3.16318 2.39605 3.08373 2.39462 3.00316C2.3932 2.9226 2.40802 2.84258 2.4382 2.76787C2.46838 2.69316 2.51329 2.62529 2.57027 2.56831C2.62724 2.51134 2.69511 2.46642 2.76982 2.43625C2.84453 2.40607 2.92455 2.39125 3.00512 2.39267C3.08568 2.39409 3.16513 2.41173 3.23873 2.44452C3.31233 2.47731 3.37857 2.5246 3.4335 2.58354L13.4335 12.5836C13.5173 12.6675 13.5744 12.7743 13.5975 12.8906C13.6206 13.007 13.6087 13.1275 13.5633 13.2371C13.518 13.3467 13.4411 13.4403 13.3426 13.5063C13.244 13.5722 13.1281 13.6074 13.0095 13.6076Z" fill="#fff"/>
<path d="M3.00963 13.6069C2.89104 13.6068 2.77514 13.5716 2.67656 13.5056C2.57799 13.4397 2.50117 13.346 2.4558 13.2365C2.41043 13.1269 2.39855 13.0063 2.42166 12.89C2.44476 12.7737 2.50182 12.6668 2.58563 12.5829L12.5856 2.58291C12.6994 2.47692 12.8498 2.41923 13.0053 2.42197C13.1607 2.42471 13.309 2.48768 13.4189 2.59761C13.5289 2.70754 13.5918 2.85585 13.5946 3.01129C13.5973 3.16673 13.5396 3.31717 13.4336 3.43091L3.43363 13.4309C3.32122 13.5435 3.16871 13.6068 3.00963 13.6069Z" fill="#fff"/>
</svg>
