<svg width="18" height="18" viewBox="0 0 18 18" fill="none" xmlns="http://www.w3.org/2000/svg">
<g clip-path="url(#clip0_322_533)">
<path d="M8.0873 13.4265C8.22892 13.2848 8.30847 13.0928 8.30847 12.8925C8.30847 12.6922 8.22892 12.5001 8.0873 12.3585L6.1718 10.443L13.8571 10.443C14.0572 10.443 14.2492 10.3635 14.3908 10.222C14.5324 10.0806 14.6121 9.88866 14.6123 9.68848C14.6123 9.5893 14.5928 9.49109 14.5548 9.39946C14.5169 9.30783 14.4612 9.22457 14.3911 9.15444C14.321 9.0843 14.2377 9.02867 14.1461 8.99072C14.0544 8.95276 13.9562 8.93323 13.8571 8.93323L6.17555 8.93323L8.0873 7.01773C8.15889 6.94793 8.2159 6.86461 8.25503 6.7726C8.29416 6.6806 8.31464 6.58174 8.31527 6.48176C8.3159 6.38178 8.29667 6.28267 8.2587 6.19018C8.22073 6.09769 8.16477 6.01365 8.09408 5.94296C8.02338 5.87226 7.93935 5.8163 7.84686 5.77833C7.75436 5.74036 7.65526 5.72113 7.55528 5.72176C7.4553 5.72239 7.35644 5.74287 7.26443 5.782C7.17243 5.82113 7.08911 5.87815 7.0193 5.94973L3.28731 9.68848L7.0253 13.4265C7.16694 13.5681 7.35902 13.6476 7.55931 13.6476C7.75959 13.6476 7.95167 13.5681 8.0933 13.4265L8.0873 13.4265Z" fill="#00c297"/>
</g>
<defs>
<clipPath id="clip0_322_533">
<rect width="18" height="18" fill="white" transform="matrix(4.37114e-08 -1 -1 -4.37114e-08 18 18)"/>
</clipPath>
</defs>
</svg>
